Lateef-Black.ufo
<glyph name="exclam.arab" format="2">
  <advance width="494.0"/>
  <unicode hex="0021"/>
  <outline>
    <contour>
      <point x="248.0" y="184.0" type="curve"/>
      <point x="211.0" y="184.0"/>
      <point x="154.0" y="129.0"/>
      <point x="154.0" y="90.0" type="curve" smooth="yes"/>
      <point x="154.0" y="51.0"/>
      <point x="211.0" y="-6.0"/>
      <point x="248.0" y="-6.0" type="curve" smooth="yes"/>
      <point x="287.0" y="-6.0"/>
      <point x="342.0" y="51.0"/>
      <point x="342.0" y="90.0" type="curve" smooth="yes"/>
      <point x="342.0" y="129.0"/>
      <point x="287.0" y="184.0"/>
    </contour>
    <contour>
      <point x="184.0" y="809.0" type="line"/>
      <point x="184.0" y="528.0" type="line" smooth="yes"/>
      <point x="184.0" y="506.0"/>
      <point x="186.0" y="444.0"/>
      <point x="198.0" y="379.0" type="curve" smooth="yes"/>
      <point x="207.0" y="332.0"/>
      <point x="215.0" y="303.0"/>
      <point x="227.0" y="260.0" type="curve"/>
      <point x="276.0" y="287.0" type="line"/>
      <point x="276.0" y="571.0" type="line" smooth="yes"/>
      <point x="276.0" y="598.0"/>
      <point x="287.0" y="743.0"/>
      <point x="297.0" y="803.0" type="curve" smooth="yes"/>
      <point x="307.0" y="870.0"/>
      <point x="309.0" y="887.0"/>
      <point x="315.0" y="932.0" type="curve"/>
    </contour>
  </outline>
</glyph>
<glyph name="exclam" format="2">
  <advance width="465"/>
  <unicode hex="0021"/>
  <outline>
    <contour>
      <point x="345" y="1054" type="curve"/>
      <point x="80" y="915" type="line"/>
      <point x="96" y="671"/>
      <point x="127" y="523"/>
      <point x="216" y="288" type="curve"/>
      <point x="241" y="294" type="line"/>
      <point x="235" y="553"/>
      <point x="273" y="779"/>
    </contour>
    <component base="_dot1" xOffset="231" yOffset="102"/>
  </outline>
</glyph>
<glyph name="quotedbl" format="2">
  <advance width="629.0"/>
  <unicode hex="0022"/>
  <outline>
    <contour>
      <point x="528.0" y="965.0" type="curve"/>
      <point x="528.0" y="1010.0"/>
      <point x="500.0" y="1044.0"/>
      <point x="453.0" y="1044.0" type="curve" smooth="yes"/>
      <point x="395.0" y="1044.0"/>
      <point x="375.0" y="1008.0"/>
      <point x="375.0" y="954.0" type="curve" smooth="yes"/>
      <point x="375.0" y="854.0"/>
      <point x="418.0" y="696.0"/>
      <point x="434.0" y="606.0" type="curve"/>
      <point x="471.0" y="606.0" type="line"/>
      <point x="492.0" y="719.0"/>
      <point x="528.0" y="848.0"/>
    </contour>
    <contour>
      <point x="252.0" y="965.0" type="curve"/>
      <point x="252.0" y="1010.0"/>
      <point x="223.0" y="1044.0"/>
      <point x="176.0" y="1044.0" type="curve" smooth="yes"/>
      <point x="119.0" y="1044.0"/>
      <point x="100.0" y="1006.0"/>
      <point x="100.0" y="954.0" type="curve" smooth="yes"/>
      <point x="100.0" y="844.0"/>
      <point x="139.0" y="709.0"/>
      <point x="160.0" y="606.0" type="curve"/>
      <point x="190.0" y="606.0" type="line"/>
      <point x="203.0" y="676.0"/>
      <point x="252.0" y="874.0"/>
    </contour>
  </outline>
</glyph>
<glyph name="numbersign" format="2">
  <advance width="772.0"/>
  <unicode hex="0023"/>
  <outline>
    <contour>
      <point x="745.0" y="322.0" type="line"/>
      <point x="745.0" y="385.0" type="line"/>
      <point x="553.0" y="385.0" type="line"/>
      <point x="606.0" y="643.0" type="line"/>
      <point x="745.0" y="643.0" type="line"/>
      <point x="745.0" y="702.0" type="line"/>
      <point x="616.0" y="702.0" type="line"/>
      <point x="688.0" y="1044.0" type="line"/>
      <point x="625.0" y="1044.0" type="line"/>
      <point x="553.0" y="702.0" type="line"/>
      <point x="299.0" y="702.0" type="line"/>
      <point x="365.0" y="1044.0" type="line"/>
      <point x="305.0" y="1044.0" type="line"/>
      <point x="236.0" y="702.0" type="line"/>
      <point x="27.0" y="702.0" type="line"/>
      <point x="27.0" y="643.0" type="line"/>
      <point x="221.0" y="643.0" type="line"/>
      <point x="168.0" y="385.0" type="line"/>
      <point x="27.0" y="385.0" type="line"/>
      <point x="27.0" y="322.0" type="line"/>
      <point x="156.0" y="322.0" type="line"/>
      <point x="86.0" y="-23.0" type="line"/>
      <point x="150.0" y="-23.0" type="line"/>
      <point x="221.0" y="322.0" type="line"/>
      <point x="477.0" y="322.0" type="line"/>
      <point x="408.0" y="-23.0" type="line"/>
      <point x="469.0" y="-23.0" type="line"/>
      <point x="539.0" y="322.0" type="line"/>
    </contour>
    <contour>
      <point x="543.0" y="643.0" type="line"/>
      <point x="489.0" y="385.0" type="line"/>
      <point x="231.0" y="385.0" type="line"/>
      <point x="285.0" y="643.0" type="line"/>
    </contour>
  </outline>
</glyph>
<glyph name="dollar" format="2">
  <advance width="888"/>
  <unicode hex="0024"/>
  <note>
dollar
</note>
  <outline>
    <contour>
      <point x="385" y="-14" type="curve" smooth="yes"/>
      <point x="638" y="-14"/>
      <point x="807" y="109"/>
      <point x="807" y="277" type="curve" smooth="yes"/>
      <point x="807" y="589"/>
      <point x="338" y="526"/>
      <point x="338" y="730" type="curve" smooth="yes"/>
      <point x="338" y="808"/>
      <point x="402" y="850"/>
      <point x="479" y="850" type="curve" smooth="yes"/>
      <point x="521" y="850"/>
      <point x="555" y="842"/>
      <point x="589" y="828" type="curve"/>
      <point x="642" y="662" type="line"/>
      <point x="755" y="669" type="line"/>
      <point x="733" y="914" type="line"/>
      <point x="672" y="940"/>
      <point x="566" y="961"/>
      <point x="495" y="961" type="curve" smooth="yes"/>
      <point x="247" y="961"/>
      <point x="85" y="839"/>
      <point x="85" y="662" type="curve" smooth="yes"/>
      <point x="85" y="329"/>
      <point x="544" y="417"/>
      <point x="544" y="200" type="curve" smooth="yes"/>
      <point x="544" y="138"/>
      <point x="497" y="97"/>
      <point x="406" y="97" type="curve" smooth="yes"/>
      <point x="353" y="97"/>
      <point x="292" y="113"/>
      <point x="253" y="139" type="curve"/>
      <point x="197" y="312" type="line"/>
      <point x="81" y="306" type="line"/>
      <point x="89" y="59" type="line"/>
      <point x="171" y="14"/>
      <point x="295" y="-14"/>
    </contour>
    <contour>
      <point x="370" y="-186" type="line"/>
      <point x="509" y="-186" type="line"/>
      <point x="509" y="1128" type="line"/>
      <point x="370" y="1128" type="line"/>
    </contour>
  </outline>
</glyph>
<glyph name="percent" format="2">
  <advance width="1335.0"/>
  <unicode hex="0025"/>
  <outline>
    <contour>
      <point x="1219.0" y="383.0" type="curve"/>
      <point x="1219.0" y="477.0"/>
      <point x="1149.0" y="553.0"/>
      <point x="1055.0" y="553.0" type="curve" smooth="yes"/>
      <point x="879.0" y="553.0"/>
      <point x="719.0" y="360.0"/>
      <point x="719.0" y="190.0" type="curve" smooth="yes"/>
      <point x="719.0" y="57.0"/>
      <point x="776.0" y="-23.0"/>
      <point x="915.0" y="-23.0" type="curve" smooth="yes"/>
      <point x="1108.0" y="-23.0"/>
      <point x="1219.0" y="217.0"/>
    </contour>
    <contour>
      <point x="1006.0" y="1049.0" type="line"/>
      <point x="932.0" y="1049.0" type="line"/>
      <point x="874.0" y="973.0"/>
      <point x="791.0" y="942.0"/>
      <point x="698.0" y="942.0" type="curve" smooth="yes"/>
      <point x="575.0" y="942.0"/>
      <point x="559.0" y="1026.0"/>
      <point x="451.0" y="1026.0" type="curve" smooth="yes"/>
      <point x="276.0" y="1026.0"/>
      <point x="117.0" y="827.0"/>
      <point x="117.0" y="659.0" type="curve" smooth="yes"/>
      <point x="117.0" y="535.0"/>
      <point x="166.0" y="446.0"/>
      <point x="301.0" y="446.0" type="curve" smooth="yes"/>
      <point x="481.0" y="446.0"/>
      <point x="618.0" y="674.0"/>
      <point x="618.0" y="836.0" type="curve" smooth="yes"/>
      <point x="618.0" y="864.0"/>
      <point x="606.0" y="891.0"/>
      <point x="606.0" y="920.0" type="curve"/>
      <point x="631.0" y="909.0"/>
      <point x="657.0" y="907.0"/>
      <point x="684.0" y="907.0" type="curve" smooth="yes"/>
      <point x="750.0" y="907.0"/>
      <point x="813.0" y="922.0"/>
      <point x="874.0" y="948.0" type="curve"/>
      <point x="334.0" y="-23.0" type="line"/>
      <point x="408.0" y="-23.0" type="line"/>
    </contour>
    <contour>
      <point x="1180.0" y="375.0" type="curve"/>
      <point x="1180.0" y="248.0"/>
      <point x="1081.0" y="25.0"/>
      <point x="932.0" y="25.0" type="curve" smooth="yes"/>
      <point x="864.0" y="25.0"/>
      <point x="836.0" y="68.0"/>
      <point x="836.0" y="133.0" type="curve" smooth="yes"/>
      <point x="836.0" y="252.0"/>
      <point x="930.0" y="504.0"/>
      <point x="1071.0" y="504.0" type="curve" smooth="yes"/>
      <point x="1143.0" y="504.0"/>
      <point x="1180.0" y="438.0"/>
    </contour>
    <contour>
      <point x="578.0" y="858.0" type="curve"/>
      <point x="578.0" y="727.0"/>
      <point x="485.0" y="500.0"/>
      <point x="332.0" y="500.0" type="curve" smooth="yes"/>
      <point x="260.0" y="500.0"/>
      <point x="236.0" y="549.0"/>
      <point x="236.0" y="614.0" type="curve" smooth="yes"/>
      <point x="236.0" y="711.0"/>
      <point x="268.0" y="801.0"/>
      <point x="325.0" y="877.0" type="curve" smooth="yes"/>
      <point x="352.0" y="913.0"/>
      <point x="406.0" y="981.0"/>
      <point x="457.0" y="981.0" type="curve" smooth="yes"/>
      <point x="477.0" y="981.0"/>
      <point x="535.0" y="938.0"/>
      <point x="565.0" y="930.0" type="curve"/>
      <point x="567.0" y="909.0"/>
      <point x="578.0" y="879.0"/>
    </contour>
  </outline>
</glyph>
<glyph name="ampersand" format="2">
  <advance width="1277"/>
  <unicode hex="0026"/>
  <note>
ampersand
</note>
  <outline>
    <contour>
      <point x="423" y="-17" type="curve" smooth="yes"/>
      <point x="717" y="-17"/>
      <point x="946" y="138"/>
      <point x="1093" y="454" type="curve"/>
      <point x="1205" y="470" type="line"/>
      <point x="1200" y="556" type="line"/>
      <point x="815" y="555" type="line"/>
      <point x="810" y="468" type="line"/>
      <point x="922" y="454" type="line"/>
      <point x="844" y="226"/>
      <point x="712" y="131"/>
      <point x="507" y="131" type="curve" smooth="yes"/>
      <point x="354" y="131"/>
      <point x="298" y="205"/>
      <point x="298" y="287" type="curve" smooth="yes"/>
      <point x="298" y="369"/>
      <point x="353" y="446"/>
      <point x="489" y="510" type="curve"/>
      <point x="704" y="584"/>
      <point x="818" y="701"/>
      <point x="818" y="839" type="curve" smooth="yes"/>
      <point x="818" y="983"/>
      <point x="723" y="1072"/>
      <point x="550" y="1072" type="curve" smooth="yes"/>
      <point x="365" y="1072"/>
      <point x="223" y="956"/>
      <point x="223" y="759" type="curve" smooth="yes"/>
      <point x="223" y="648"/>
      <point x="279" y="531"/>
      <point x="422" y="341" type="curve" smooth="yes"/>
      <point x="593" y="110"/>
      <point x="741" y="-17"/>
      <point x="990" y="-17" type="curve" smooth="yes"/>
      <point x="1120" y="-17"/>
      <point x="1237" y="41"/>
      <point x="1303" y="141" type="curve"/>
      <point x="1245" y="203" type="line"/>
      <point x="1197" y="162"/>
      <point x="1131" y="142"/>
      <point x="1080" y="142" type="curve" smooth="yes"/>
      <point x="938" y="142"/>
      <point x="849" y="208"/>
      <point x="683" y="410" type="curve" smooth="yes"/>
      <point x="475" y="661"/>
      <point x="444" y="759"/>
      <point x="444" y="847" type="curve" smooth="yes"/>
      <point x="444" y="922"/>
      <point x="484" y="969"/>
      <point x="539" y="969" type="curve" smooth="yes"/>
      <point x="587" y="969"/>
      <point x="619" y="934"/>
      <point x="619" y="858" type="curve" smooth="yes"/>
      <point x="619" y="738"/>
      <point x="585" y="674"/>
      <point x="402" y="555" type="curve"/>
      <point x="194" y="520"/>
      <point x="41" y="409"/>
      <point x="41" y="253" type="curve" smooth="yes"/>
      <point x="41" y="99"/>
      <point x="176" y="-17"/>
    </contour>
  </outline>
</glyph>
<glyph name="quotesingle" format="2">
  <advance width="279.0"/>
  <unicode hex="0027"/>
  <outline>
    <contour>
      <point x="215.0" y="965.0" type="curve"/>
      <point x="215.0" y="985.0"/>
      <point x="209.0" y="1004.0"/>
      <point x="195.0" y="1020.0" type="curve" smooth="yes"/>
      <point x="180.0" y="1036.0"/>
      <point x="162.0" y="1044.0"/>
      <point x="135.0" y="1044.0" type="curve" smooth="yes"/>
      <point x="88.0" y="1044.0"/>
      <point x="63.0" y="1016.0"/>
      <point x="63.0" y="954.0" type="curve" smooth="yes"/>
      <point x="63.0" y="932.0"/>
      <point x="72.0" y="873.0"/>
      <point x="80.0" y="829.0" type="curve" smooth="yes"/>
      <point x="121.0" y="606.0" type="line"/>
      <point x="154.0" y="606.0" type="line"/>
      <point x="195.0" y="827.0" type="line" smooth="yes"/>
      <point x="209.0" y="903.0"/>
      <point x="215.0" y="950.0"/>
    </contour>
  </outline>
</glyph>
<glyph name="asterisk.arab" format="2">
  <advance width="854.0"/>
  <unicode hex="002A"/>
  <outline>
    <contour>
      <point x="406.0" y="705.0" type="curve"/>
      <point x="343.0" y="705.0"/>
      <point x="325.0" y="665.0"/>
      <point x="325.0" y="610.0" type="curve" smooth="yes"/>
      <point x="325.0" y="534.0"/>
      <point x="360.0" y="435.0"/>
      <point x="360.0" y="392.0" type="curve" smooth="yes"/>
      <point x="360.0" y="379.0"/>
      <point x="357.0" y="371.0"/>
      <point x="348.0" y="371.0" type="curve" smooth="yes"/>
      <point x="307.0" y="371.0"/>
      <point x="176.0" y="533.0"/>
      <point x="93.0" y="533.0" type="curve" smooth="yes"/>
      <point x="57.0" y="533.0"/>
      <point x="27.0" y="488.0"/>
      <point x="27.0" y="440.0" type="curve" smooth="yes"/>
      <point x="27.0" y="318.0"/>
      <point x="281.0" y="330.0"/>
      <point x="281.0" y="265.0" type="curve" smooth="yes"/>
      <point x="281.0" y="229.0"/>
      <point x="24.0" y="145.0"/>
      <point x="24.0" y="59.0" type="curve" smooth="yes"/>
      <point x="24.0" y="22.0"/>
      <point x="74.0" y="-7.0"/>
      <point x="105.0" y="-7.0" type="curve" smooth="yes"/>
      <point x="199.0" y="-7.0"/>
      <point x="298.0" y="152.0"/>
      <point x="334.0" y="152.0" type="curve" smooth="yes"/>
      <point x="344.0" y="152.0"/>
      <point x="347.0" y="142.0"/>
      <point x="347.0" y="125.0" type="curve" smooth="yes"/>
      <point x="347.0" y="82.0"/>
      <point x="324.0" y="-5.0"/>
      <point x="324.0" y="-76.0" type="curve" smooth="yes"/>
      <point x="324.0" y="-142.0"/>
      <point x="342.0" y="-190.0"/>
      <point x="410.0" y="-190.0" type="curve" smooth="yes"/>
      <point x="474.0" y="-190.0"/>
      <point x="492.0" y="-135.0"/>
      <point x="492.0" y="-74.0" type="curve" smooth="yes"/>
      <point x="492.0" y="1.0"/>
      <point x="467.0" y="90.0"/>
      <point x="467.0" y="127.0" type="curve" smooth="yes"/>
      <point x="467.0" y="140.0"/>
      <point x="470.0" y="145.0"/>
      <point x="477.0" y="145.0" type="curve" smooth="yes"/>
      <point x="515.0" y="145.0"/>
      <point x="642.0" y="-8.0"/>
      <point x="728.0" y="-8.0" type="curve" smooth="yes"/>
      <point x="755.0" y="-8.0"/>
      <point x="800.0" y="18.0"/>
      <point x="800.0" y="81.0" type="curve" smooth="yes"/>
      <point x="800.0" y="199.0"/>
      <point x="535.0" y="216.0"/>
      <point x="535.0" y="256.0" type="curve" smooth="yes"/>
      <point x="535.0" y="295.0"/>
      <point x="812.0" y="338.0"/>
      <point x="812.0" y="443.0" type="curve" smooth="yes"/>
      <point x="812.0" y="485.0"/>
      <point x="765.0" y="529.0"/>
      <point x="726.0" y="529.0" type="curve" smooth="yes"/>
      <point x="634.0" y="529.0"/>
      <point x="522.0" y="372.0"/>
      <point x="477.0" y="372.0" type="curve" smooth="yes"/>
      <point x="461.0" y="372.0"/>
      <point x="456.0" y="388.0"/>
      <point x="456.0" y="410.0" type="curve" smooth="yes"/>
      <point x="456.0" y="458.0"/>
      <point x="479.0" y="541.0"/>
      <point x="479.0" y="606.0" type="curve" smooth="yes"/>
      <point x="479.0" y="661.0"/>
      <point x="463.0" y="703.0"/>
    </contour>
    <contour>
      <point x="334.0" y="264.0" type="curve" smooth="yes"/>
      <point x="334.0" y="303.0"/>
      <point x="371.0" y="342.0"/>
      <point x="410.0" y="342.0" type="curve" smooth="yes"/>
      <point x="453.0" y="342.0"/>
      <point x="489.0" y="301.0"/>
      <point x="489.0" y="258.0" type="curve" smooth="yes"/>
      <point x="489.0" y="218.0"/>
      <point x="453.0" y="182.0"/>
      <point x="413.0" y="182.0" type="curve" smooth="yes"/>
      <point x="371.0" y="182.0"/>
      <point x="334.0" y="222.0"/>
    </contour>
  </outline>
</glyph>
<glyph name="plus" format="2">
  <advance width="866"/>
  <unicode hex="002B"/>
  <outline>
    <contour>
      <point x="783" y="481" type="line"/>
      <point x="83" y="481" type="line"/>
      <point x="83" y="337" type="line"/>
      <point x="783" y="337" type="line"/>
    </contour>
    <contour>
      <point x="359" y="759" type="line"/>
      <point x="359" y="62" type="line"/>
      <point x="508" y="62" type="line"/>
      <point x="508" y="759" type="line"/>
    </contour>
  </outline>
</glyph>
<glyph name="comma" format="2">
  <advance width="387.0"/>
  <unicode hex="002C"/>
  <outline>
    <contour>
      <point x="307.0" y="-8.0" type="curve"/>
      <point x="307.0" y="41.0"/>
      <point x="293.0" y="80.0"/>
      <point x="266.0" y="111.0" type="curve" smooth="yes"/>
      <point x="242.0" y="137.0"/>
      <point x="213.0" y="150.0"/>
      <point x="180.0" y="150.0" type="curve" smooth="yes"/>
      <point x="154.0" y="150.0"/>
      <point x="131.0" y="141.0"/>
      <point x="113.0" y="125.0" type="curve" smooth="yes"/>
      <point x="92.0" y="109.0"/>
      <point x="84.0" y="88.0"/>
      <point x="84.0" y="61.0" type="curve" smooth="yes"/>
      <point x="84.0" y="6.0"/>
      <point x="111.0" y="-23.0"/>
      <point x="164.0" y="-23.0" type="curve" smooth="yes"/>
      <point x="172.0" y="-23.0"/>
      <point x="182.0" y="-18.0"/>
      <point x="197.0" y="-10.0" type="curve" smooth="yes"/>
      <point x="209.0" y="-4.0"/>
      <point x="221.0" y="0.0"/>
      <point x="229.0" y="0.0" type="curve" smooth="yes"/>
      <point x="240.0" y="0.0"/>
      <point x="246.0" y="-10.0"/>
      <point x="246.0" y="-31.0" type="curve" smooth="yes"/>
      <point x="246.0" y="-76.0"/>
      <point x="227.0" y="-119.0"/>
      <point x="193.0" y="-156.0" type="curve" smooth="yes"/>
      <point x="162.0" y="-188.0"/>
      <point x="125.0" y="-211.0"/>
      <point x="84.0" y="-223.0" type="curve"/>
      <point x="84.0" y="-258.0" type="line"/>
      <point x="233.0" y="-207.0"/>
      <point x="307.0" y="-123.0"/>
    </contour>
  </outline>
</glyph>
<glyph name="hyphen" format="2">
  <advance width="514.0"/>
  <unicode hex="002D"/>
  <outline>
    <contour>
      <point x="451.0" y="238.0" type="line"/>
      <point x="451.0" y="352.0" type="line"/>
      <point x="61.0" y="352.0" type="line"/>
      <point x="61.0" y="238.0" type="line"/>
    </contour>
  </outline>
</glyph>
<glyph name="period" format="2">
  <advance width="641"/>
  <unicode hex="002E"/>
  <outline>
    <contour>
      <point x="364" y="66" type="curve" smooth="yes"/>
      <point x="364" y="113"/>
      <point x="325" y="152"/>
      <point x="275" y="152" type="curve" smooth="yes"/>
      <point x="228" y="152"/>
      <point x="189" y="113"/>
      <point x="189" y="66" type="curve" smooth="yes"/>
      <point x="189" y="16"/>
      <point x="228" y="-23"/>
      <point x="275" y="-23" type="curve" smooth="yes"/>
      <point x="325" y="-23"/>
      <point x="364" y="16"/>
    </contour>
  </outline>
</glyph>
<glyph name="zero" format="2">
  <advance width="772.0"/>
  <unicode hex="0030"/>
  <outline>
    <contour>
      <point x="717.0" y="520.0" type="curve"/>
      <point x="717.0" y="715.0"/>
      <point x="637.0" y="1044.0"/>
      <point x="389.0" y="1044.0" type="curve" smooth="yes"/>
      <point x="139.0" y="1044.0"/>
      <point x="55.0" y="702.0"/>
      <point x="55.0" y="506.0" type="curve" smooth="yes"/>
      <point x="55.0" y="313.0"/>
      <point x="139.0" y="-18.0"/>
      <point x="381.0" y="-18.0" type="curve" smooth="yes"/>
      <point x="639.0" y="-18.0"/>
      <point x="717.0" y="317.0"/>
    </contour>
    <contour>
      <point x="569.0" y="553.0" type="curve"/>
      <point x="569.0" y="436.0"/>
      <point x="569.0" y="31.0"/>
      <point x="385.0" y="31.0" type="curve" smooth="yes"/>
      <point x="213.0" y="31.0"/>
      <point x="203.0" y="371.0"/>
      <point x="203.0" y="487.0" type="curve" smooth="yes"/>
      <point x="203.0" y="602.0"/>
      <point x="211.0" y="995.0"/>
      <point x="387.0" y="995.0" type="curve" smooth="yes"/>
      <point x="557.0" y="995.0"/>
      <point x="569.0" y="670.0"/>
    </contour>
  </outline>
</glyph>
<glyph name="one" format="2">
  <advance width="772.0"/>
  <unicode hex="0031"/>
  <outline>
    <contour>
      <point x="584.0" y="0.0" type="line"/>
      <point x="584.0" y="29.0" type="line"/>
      <point x="457.0" y="29.0"/>
      <point x="457.0" y="63.0"/>
      <point x="457.0" y="180.0" type="curve" smooth="yes"/>
      <point x="457.0" y="1044.0" type="line"/>
      <point x="430.0" y="1044.0" type="line"/>
      <point x="180.0" y="922.0" type="line"/>
      <point x="193.0" y="899.0" type="line"/>
      <point x="215.0" y="909.0"/>
      <point x="244.0" y="922.0"/>
      <point x="270.0" y="922.0" type="curve" smooth="yes"/>
      <point x="332.0" y="922.0"/>
      <point x="332.0" y="844.0"/>
      <point x="332.0" y="769.0" type="curve" smooth="yes"/>
      <point x="332.0" y="180.0" type="line" smooth="yes"/>
      <point x="332.0" y="59.0"/>
      <point x="330.0" y="29.0"/>
      <point x="199.0" y="29.0" type="curve"/>
      <point x="199.0" y="0.0" type="line"/>
    </contour>
  </outline>
</glyph>
<glyph name="two" format="2">
  <advance width="772.0"/>
  <unicode hex="0032"/>
  <outline>
    <contour>
      <point x="709.0" y="197.0" type="line"/>
      <point x="680.0" y="197.0" type="line"/>
      <point x="619.0" y="115.0"/>
      <point x="590.0" y="115.0"/>
      <point x="461.0" y="115.0" type="curve" smooth="yes"/>
      <point x="195.0" y="115.0" type="line"/>
      <point x="276.0" y="190.0"/>
      <point x="352.0" y="275.0"/>
      <point x="428.0" y="360.0" type="curve" smooth="yes"/>
      <point x="525.0" y="468.0"/>
      <point x="645.0" y="623.0"/>
      <point x="645.0" y="774.0" type="curve" smooth="yes"/>
      <point x="645.0" y="936.0"/>
      <point x="508.0" y="1044.0"/>
      <point x="354.0" y="1044.0" type="curve" smooth="yes"/>
      <point x="178.0" y="1044.0"/>
      <point x="84.0" y="920.0"/>
      <point x="63.0" y="756.0" type="curve"/>
      <point x="90.0" y="756.0" type="line"/>
      <point x="127.0" y="862.0"/>
      <point x="199.0" y="928.0"/>
      <point x="315.0" y="928.0" type="curve" smooth="yes"/>
      <point x="440.0" y="928.0"/>
      <point x="516.0" y="823.0"/>
      <point x="516.0" y="705.0" type="curve" smooth="yes"/>
      <point x="516.0" y="461.0"/>
      <point x="203.0" y="184.0"/>
      <point x="35.0" y="29.0" type="curve"/>
      <point x="35.0" y="0.0" type="line"/>
      <point x="635.0" y="0.0" type="line"/>
    </contour>
  </outline>
</glyph>
<glyph name="three" format="2">
  <advance width="772.0"/>
  <unicode hex="0033"/>
  <outline>
    <contour>
      <point x="645.0" y="338.0" type="curve"/>
      <point x="645.0" y="471.0"/>
      <point x="578.0" y="561.0"/>
      <point x="455.0" y="606.0" type="curve"/>
      <point x="520.0" y="664.0"/>
      <point x="592.0" y="743.0"/>
      <point x="592.0" y="836.0" type="curve" smooth="yes"/>
      <point x="592.0" y="971.0"/>
      <point x="477.0" y="1044.0"/>
      <point x="354.0" y="1044.0" type="curve" smooth="yes"/>
      <point x="205.0" y="1044.0"/>
      <point x="137.0" y="950.0"/>
      <point x="78.0" y="827.0" type="curve"/>
      <point x="104.0" y="815.0" type="line"/>
      <point x="150.0" y="887.0"/>
      <point x="213.0" y="940.0"/>
      <point x="299.0" y="940.0" type="curve" smooth="yes"/>
      <point x="401.0" y="940.0"/>
      <point x="467.0" y="866.0"/>
      <point x="467.0" y="768.0" type="curve" smooth="yes"/>
      <point x="467.0" y="639.0"/>
      <point x="358.0" y="545.0"/>
      <point x="236.0" y="530.0" type="curve"/>
      <point x="236.0" y="506.0" type="line"/>
      <point x="401.0" y="504.0"/>
      <point x="532.0" y="426.0"/>
      <point x="532.0" y="246.0" type="curve" smooth="yes"/>
      <point x="532.0" y="141.0"/>
      <point x="449.0" y="47.0"/>
      <point x="342.0" y="47.0" type="curve" smooth="yes"/>
      <point x="250.0" y="47.0"/>
      <point x="188.0" y="117.0"/>
      <point x="123.0" y="117.0" type="curve" smooth="yes"/>
      <point x="94.0" y="117.0"/>
      <point x="63.0" y="94.0"/>
      <point x="63.0" y="63.0" type="curve" smooth="yes"/>
      <point x="63.0" y="-14.0"/>
      <point x="186.0" y="-18.0"/>
      <point x="240.0" y="-18.0" type="curve" smooth="yes"/>
      <point x="461.0" y="-18.0"/>
      <point x="645.0" y="102.0"/>
    </contour>
  </outline>
</glyph>
<glyph name="four" format="2">
  <advance width="772.0"/>
  <unicode hex="0034"/>
  <outline>
    <contour>
      <point x="717.0" y="270.0" type="line"/>
      <point x="717.0" y="377.0" type="line"/>
      <point x="582.0" y="377.0" type="line"/>
      <point x="582.0" y="1044.0" type="line"/>
      <point x="500.0" y="1044.0" type="line"/>
      <point x="25.0" y="365.0" type="line"/>
      <point x="25.0" y="270.0" type="line"/>
      <point x="457.0" y="270.0" type="line"/>
      <point x="457.0" y="0.0" type="line"/>
      <point x="582.0" y="0.0" type="line"/>
      <point x="582.0" y="270.0" type="line"/>
    </contour>
    <contour>
      <point x="457.0" y="377.0" type="line"/>
      <point x="98.0" y="377.0" type="line"/>
      <point x="457.0" y="885.0" type="line"/>
    </contour>
  </outline>
</glyph>
<glyph name="five" format="2">
  <advance width="772.0"/>
  <unicode hex="0035"/>
  <outline>
    <contour>
      <point x="670.0" y="1022.0" type="line"/>
      <point x="305.0" y="1022.0" type="line"/>
      <point x="109.0" y="625.0" type="line"/>
      <point x="309.0" y="618.0"/>
      <point x="555.0" y="526.0"/>
      <point x="555.0" y="289.0" type="curve" smooth="yes"/>
      <point x="555.0" y="164.0"/>
      <point x="459.0" y="59.0"/>
      <point x="334.0" y="59.0" type="curve" smooth="yes"/>
      <point x="246.0" y="59.0"/>
      <point x="195.0" y="137.0"/>
      <point x="133.0" y="137.0" type="curve" smooth="yes"/>
      <point x="96.0" y="137.0"/>
      <point x="74.0" y="121.0"/>
      <point x="74.0" y="82.0" type="curve" smooth="yes"/>
      <point x="74.0" y="-2.0"/>
      <point x="188.0" y="-18.0"/>
      <point x="250.0" y="-18.0" type="curve" smooth="yes"/>
      <point x="463.0" y="-18.0"/>
      <point x="653.0" y="150.0"/>
      <point x="653.0" y="369.0" type="curve" smooth="yes"/>
      <point x="653.0" y="592.0"/>
      <point x="442.0" y="737.0"/>
      <point x="236.0" y="758.0" type="curve"/>
      <point x="305.0" y="893.0" type="line"/>
      <point x="612.0" y="893.0" type="line"/>
    </contour>
  </outline>
</glyph>
<glyph name="eight" format="2">
  <advance width="986"/>
  <unicode hex="0038"/>
  <note>
eight
</note>
  <outline>
    <contour>
      <point x="481" y="-14" type="curve" smooth="yes"/>
      <point x="731" y="-14"/>
      <point x="898" y="97"/>
      <point x="898" y="276" type="curve" smooth="yes"/>
      <point x="898" y="587"/>
      <point x="365" y="521"/>
      <point x="365" y="739" type="curve" smooth="yes"/>
      <point x="365" y="805"/>
      <point x="415" y="845"/>
      <point x="495" y="845" type="curve" smooth="yes"/>
      <point x="581" y="845"/>
      <point x="633" y="791"/>
      <point x="633" y="691" type="curve" smooth="yes"/>
      <point x="633" y="616"/>
      <point x="616" y="566"/>
      <point x="566" y="489" type="curve"/>
      <point x="579" y="471" type="line"/>
      <point x="757" y="499"/>
      <point x="858" y="584"/>
      <point x="858" y="706" type="curve" smooth="yes"/>
      <point x="858" y="852"/>
      <point x="741" y="956"/>
      <point x="516" y="956" type="curve" smooth="yes"/>
      <point x="277" y="956"/>
      <point x="125" y="841"/>
      <point x="125" y="677" type="curve" smooth="yes"/>
      <point x="125" y="341"/>
      <point x="654" y="409"/>
      <point x="654" y="207" type="curve" smooth="yes"/>
      <point x="654" y="149"/>
      <point x="597" y="107"/>
      <point x="507" y="107" type="curve" smooth="yes"/>
      <point x="406" y="107"/>
      <point x="330" y="157"/>
      <point x="330" y="256" type="curve" smooth="yes"/>
      <point x="330" y="312"/>
      <point x="349" y="364"/>
      <point x="396" y="436" type="curve"/>
      <point x="375" y="475" type="line"/>
      <point x="202" y="442"/>
      <point x="86" y="362"/>
      <point x="86" y="240" type="curve" smooth="yes"/>
      <point x="86" y="93"/>
      <point x="240" y="-14"/>
    </contour>
  </outline>
</glyph>
<glyph name="nine" format="2">
  <advance width="772.0"/>
  <unicode hex="0039"/>
  <outline>
    <contour>
      <point x="705.0" y="623.0" type="curve"/>
      <point x="705.0" y="811.0"/>
      <point x="596.0" y="1044.0"/>
      <point x="381.0" y="1044.0" type="curve" smooth="yes"/>
      <point x="182.0" y="1044.0"/>
      <point x="61.0" y="858.0"/>
      <point x="61.0" y="678.0" type="curve" smooth="yes"/>
      <point x="61.0" y="522.0"/>
      <point x="154.0" y="373.0"/>
      <point x="322.0" y="373.0" type="curve" smooth="yes"/>
      <point x="399.0" y="373.0"/>
      <point x="473.0" y="408.0"/>
      <point x="537.0" y="451.0" type="curve"/>
      <point x="481.0" y="229.0"/>
      <point x="328.0" y="12.0"/>
      <point x="82.0" y="6.0" type="curve"/>
      <point x="82.0" y="-23.0" type="line"/>
      <point x="125.0" y="-23.0" type="line" smooth="yes"/>
      <point x="455.0" y="-23.0"/>
      <point x="705.0" y="311.0"/>
    </contour>
    <contour>
      <point x="563.0" y="662.0" type="curve"/>
      <point x="563.0" y="608.0"/>
      <point x="555.0" y="557.0"/>
      <point x="549.0" y="506.0" type="curve"/>
      <point x="522.0" y="469.0"/>
      <point x="426.0" y="440.0"/>
      <point x="383.0" y="440.0" type="curve" smooth="yes"/>
      <point x="233.0" y="440.0"/>
      <point x="197.0" y="641.0"/>
      <point x="197.0" y="756.0" type="curve" smooth="yes"/>
      <point x="197.0" y="856.0"/>
      <point x="238.0" y="995.0"/>
      <point x="362.0" y="995.0" type="curve" smooth="yes"/>
      <point x="514.0" y="995.0"/>
      <point x="563.0" y="778.0"/>
    </contour>
  </outline>
</glyph>
<glyph name="semicolon" format="2">
  <advance width="487"/>
  <unicode hex="003B"/>
  <note>
semicolon
</note>
  <outline>
    <contour>
      <point x="80" y="-357" type="line"/>
      <point x="316" y="-261"/>
      <point x="422" y="-105"/>
      <point x="422" y="83" type="curve" smooth="yes"/>
      <point x="422" y="247"/>
      <point x="324" y="301"/>
      <point x="237" y="301" type="curve" smooth="yes"/>
      <point x="144" y="301"/>
      <point x="73" y="242"/>
      <point x="73" y="158" type="curve" smooth="yes"/>
      <point x="73" y="25"/>
      <point x="229" y="36"/>
      <point x="229" y="-89" type="curve" smooth="yes"/>
      <point x="229" y="-162"/>
      <point x="186" y="-226"/>
      <point x="48" y="-282" type="curve"/>
    </contour>
    <contour>
      <point x="243" y="409" type="curve" smooth="yes"/>
      <point x="335" y="409"/>
      <point x="410" y="476"/>
      <point x="410" y="564" type="curve" smooth="yes"/>
      <point x="410" y="654"/>
      <point x="335" y="727"/>
      <point x="243" y="727" type="curve" smooth="yes"/>
      <point x="152" y="727"/>
      <point x="75" y="654"/>
      <point x="75" y="564" type="curve" smooth="yes"/>
      <point x="75" y="476"/>
      <point x="152" y="409"/>
    </contour>
  </outline>
</glyph>
<glyph name="less" format="2">
  <advance width="770.0"/>
  <unicode hex="003C"/>
  <outline>
    <contour>
      <point x="629.0" y="51.0" type="line"/>
      <point x="209.0" y="471.0" type="line"/>
      <point x="629.0" y="893.0" type="line"/>
      <point x="561.0" y="893.0" type="line"/>
      <point x="141.0" y="471.0" type="line"/>
      <point x="561.0" y="51.0" type="line"/>
    </contour>
  </outline>
</glyph>
<glyph name="equal" format="2">
  <advance width="866"/>
  <unicode hex="003D"/>
  <outline>
    <contour>
      <point x="781" y="627" type="line"/>
      <point x="85" y="627" type="line"/>
      <point x="85" y="476" type="line"/>
      <point x="781" y="476" type="line"/>
    </contour>
    <contour>
      <point x="781" y="341" type="line"/>
      <point x="85" y="341" type="line"/>
      <point x="85" y="190" type="line"/>
      <point x="781" y="190" type="line"/>
    </contour>
  </outline>
</glyph>
<glyph name="greater" format="2">
  <advance width="770.0"/>
  <unicode hex="003E"/>
  <outline>
    <contour>
      <point x="629.0" y="471.0" type="line"/>
      <point x="209.0" y="893.0" type="line"/>
      <point x="141.0" y="893.0" type="line"/>
      <point x="561.0" y="471.0" type="line"/>
      <point x="141.0" y="51.0" type="line"/>
      <point x="209.0" y="51.0" type="line"/>
    </contour>
  </outline>
</glyph>
<glyph name="question" format="2">
  <advance width="622"/>
  <unicode hex="003F"/>
  <note>
question
</note>
  <outline>
    <contour>
      <point x="168" y="385" type="curve"/>
      <point x="274" y="385" type="line"/>
      <point x="271" y="412"/>
      <point x="269" y="426"/>
      <point x="269" y="436" type="curve" smooth="yes"/>
      <point x="269" y="558"/>
      <point x="568" y="524"/>
      <point x="568" y="760" type="curve" smooth="yes"/>
      <point x="568" y="953"/>
      <point x="370" y="1120"/>
      <point x="155" y="1120" type="curve" smooth="yes"/>
      <point x="64" y="1120"/>
      <point x="4" y="1073"/>
      <point x="4" y="1006" type="curve" smooth="yes"/>
      <point x="4" y="935"/>
      <point x="67" y="887"/>
      <point x="152" y="887" type="curve" smooth="yes"/>
      <point x="213" y="887"/>
      <point x="263" y="914"/>
      <point x="317" y="914" type="curve" smooth="yes"/>
      <point x="370" y="914"/>
      <point x="401" y="884"/>
      <point x="401" y="849" type="curve" smooth="yes"/>
      <point x="401" y="736"/>
      <point x="134" y="712"/>
      <point x="134" y="536" type="curve" smooth="yes"/>
      <point x="134" y="487"/>
      <point x="146" y="444"/>
    </contour>
    <contour>
      <point x="219" y="-16" type="curve" smooth="yes"/>
      <point x="312" y="-16"/>
      <point x="388" y="54"/>
      <point x="388" y="146" type="curve" smooth="yes"/>
      <point x="388" y="239"/>
      <point x="312" y="312"/>
      <point x="219" y="312" type="curve" smooth="yes"/>
      <point x="130" y="312"/>
      <point x="52" y="239"/>
      <point x="52" y="146" type="curve" smooth="yes"/>
      <point x="52" y="56"/>
      <point x="128" y="-16"/>
    </contour>
  </outline>
</glyph>
<glyph name="at" format="2">
  <advance width="1423.0"/>
  <unicode hex="0040"/>
  <outline>
    <contour>
      <point x="1341.0" y="129.0" type="line"/>
      <point x="1229.0" y="-125.0"/>
      <point x="1018.0" y="-287.0"/>
      <point x="735.0" y="-287.0" type="curve" smooth="yes"/>
      <point x="379.0" y="-287.0"/>
      <point x="143.0" y="-39.0"/>
      <point x="143.0" y="315.0" type="curve" smooth="yes"/>
      <point x="143.0" y="688.0"/>
      <point x="393.0" y="1034.0"/>
      <point x="791.0" y="1034.0" type="curve" smooth="yes"/>
      <point x="1065.0" y="1034.0"/>
      <point x="1278.0" y="854.0"/>
      <point x="1278.0" y="569.0" type="curve" smooth="yes"/>
      <point x="1278.0" y="440.0"/>
      <point x="1245.0" y="311.0"/>
      <point x="1165.0" y="208.0" type="curve"/>
      <point x="1114.0" y="143.0"/>
      <point x="1047.0" y="78.0"/>
      <point x="961.0" y="78.0" type="curve" smooth="yes"/>
      <point x="930.0" y="78.0"/>
      <point x="903.0" y="102.0"/>
      <point x="903.0" y="133.0" type="curve" smooth="yes"/>
      <point x="903.0" y="205.0"/>
      <point x="1047.0" y="674.0"/>
      <point x="1061.0" y="723.0" type="curve"/>
      <point x="942.0" y="705.0" type="line"/>
      <point x="920.0" y="623.0" type="line"/>
      <point x="905.0" y="692.0"/>
      <point x="860.0" y="727.0"/>
      <point x="788.0" y="727.0" type="curve" smooth="yes"/>
      <point x="571.0" y="727.0"/>
      <point x="375.0" y="393.0"/>
      <point x="375.0" y="197.0" type="curve" smooth="yes"/>
      <point x="375.0" y="117.0"/>
      <point x="416.0" y="25.0"/>
      <point x="510.0" y="25.0" type="curve" smooth="yes"/>
      <point x="618.0" y="25.0"/>
      <point x="743.0" y="162.0"/>
      <point x="807.0" y="238.0" type="curve"/>
      <point x="801.0" y="203.0"/>
      <point x="795.0" y="168.0"/>
      <point x="795.0" y="133.0" type="curve" smooth="yes"/>
      <point x="795.0" y="59.0"/>
      <point x="836.0" y="25.0"/>
      <point x="909.0" y="25.0" type="curve" smooth="yes"/>
      <point x="1186.0" y="25.0"/>
      <point x="1325.0" y="313.0"/>
      <point x="1325.0" y="555.0" type="curve" smooth="yes"/>
      <point x="1325.0" y="877.0"/>
      <point x="1100.0" y="1071.0"/>
      <point x="786.0" y="1071.0" type="curve" smooth="yes"/>
      <point x="371.0" y="1071.0"/>
      <point x="74.0" y="743.0"/>
      <point x="74.0" y="336.0" type="curve" smooth="yes"/>
      <point x="74.0" y="-43.0"/>
      <point x="348.0" y="-334.0"/>
      <point x="731.0" y="-334.0" type="curve" smooth="yes"/>
      <point x="1014.0" y="-334.0"/>
      <point x="1307.0" y="-156.0"/>
      <point x="1384.0" y="129.0" type="curve"/>
    </contour>
    <contour>
      <point x="891.0" y="569.0" type="curve"/>
      <point x="891.0" y="426.0"/>
      <point x="748.0" y="115.0"/>
      <point x="580.0" y="115.0" type="curve" smooth="yes"/>
      <point x="524.0" y="115.0"/>
      <point x="494.0" y="172.0"/>
      <point x="494.0" y="221.0" type="curve" smooth="yes"/>
      <point x="494.0" y="354.0"/>
      <point x="647.0" y="692.0"/>
      <point x="797.0" y="692.0" type="curve" smooth="yes"/>
      <point x="872.0" y="692.0"/>
      <point x="891.0" y="633.0"/>
    </contour>
  </outline>
</glyph>
<glyph name="A" format="2">
  <advance width="1110.0"/>
  <unicode hex="0041"/>
  <anchor x="555.0" y="1090.0" name="above"/>
  <outline>
    <contour>
      <point x="1098.0" y="0.0" type="line"/>
      <point x="1098.0" y="29.0" type="line"/>
      <point x="987.0" y="35.0"/>
      <point x="961.0" y="104.0"/>
      <point x="922.0" y="197.0" type="curve" smooth="yes"/>
      <point x="567.0" y="1044.0" type="line"/>
      <point x="541.0" y="1044.0" type="line"/>
      <point x="180.0" y="203.0" type="line" smooth="yes"/>
      <point x="146.0" y="123.0"/>
      <point x="109.0" y="31.0"/>
      <point x="12.0" y="29.0" type="curve"/>
      <point x="12.0" y="0.0" type="line"/>
      <point x="334.0" y="0.0" type="line"/>
      <point x="334.0" y="29.0" type="line"/>
      <point x="295.0" y="31.0"/>
      <point x="215.0" y="41.0"/>
      <point x="215.0" y="94.0" type="curve" smooth="yes"/>
      <point x="215.0" y="143.0"/>
      <point x="295.0" y="309.0"/>
      <point x="311.0" y="342.0" type="curve"/>
      <point x="707.0" y="342.0" type="line"/>
      <point x="723.0" y="305.0"/>
      <point x="797.0" y="147.0"/>
      <point x="797.0" y="94.0" type="curve" smooth="yes"/>
      <point x="797.0" y="39.0"/>
      <point x="739.0" y="29.0"/>
      <point x="694.0" y="29.0" type="curve"/>
      <point x="694.0" y="0.0" type="line"/>
    </contour>
    <contour>
      <point x="686.0" y="397.0" type="line"/>
      <point x="334.0" y="397.0" type="line"/>
      <point x="512.0" y="813.0" type="line"/>
    </contour>
  </outline>
</glyph>
<glyph name="B" format="2">
  <advance width="995"/>
  <unicode hex="0042"/>
  <note>
B
</note>
  <anchor x="507" y="942" name="above"/>
  <anchor x="507" y="0" name="below"/>
  <outline>
    <contour>
      <point x="155" y="113" type="curve"/>
      <point x="51" y="86" type="line"/>
      <point x="56" y="0" type="line"/>
      <point x="502" y="0" type="line" smooth="yes"/>
      <point x="773" y="0"/>
      <point x="927" y="99"/>
      <point x="927" y="277" type="curve" smooth="yes"/>
      <point x="927" y="417"/>
      <point x="812" y="505"/>
      <point x="609" y="515" type="curve"/>
      <point x="590" y="502" type="line"/>
      <point x="763" y="511"/>
      <point x="879" y="598"/>
      <point x="879" y="715" type="curve" smooth="yes"/>
      <point x="879" y="868"/>
      <point x="768" y="942"/>
      <point x="537" y="942" type="curve" smooth="yes"/>
      <point x="56" y="942" type="line"/>
      <point x="51" y="857" type="line"/>
      <point x="155" y="826" type="line"/>
      <point x="162" y="815"/>
      <point x="166" y="706"/>
      <point x="166" y="577" type="curve" smooth="yes"/>
      <point x="166" y="364" type="line" smooth="yes"/>
      <point x="166" y="234"/>
      <point x="162" y="125"/>
    </contour>
    <contour>
      <point x="409" y="284" type="curve" smooth="yes"/>
      <point x="409" y="654" type="line" smooth="yes"/>
      <point x="409" y="751"/>
      <point x="410" y="826"/>
      <point x="412" y="845" type="curve"/>
      <point x="455" y="845" type="line" smooth="yes"/>
      <point x="569" y="845"/>
      <point x="617" y="784"/>
      <point x="617" y="691" type="curve" smooth="yes"/>
      <point x="617" y="590"/>
      <point x="566" y="532"/>
      <point x="457" y="532" type="curve" smooth="yes"/>
      <point x="434" y="532"/>
      <point x="417" y="534"/>
      <point x="385" y="536" type="curve"/>
      <point x="385" y="420" type="line"/>
      <point x="414" y="423"/>
      <point x="438" y="425"/>
      <point x="465" y="425" type="curve" smooth="yes"/>
      <point x="606" y="425"/>
      <point x="666" y="370"/>
      <point x="666" y="251" type="curve" smooth="yes"/>
      <point x="666" y="158"/>
      <point x="605" y="99"/>
      <point x="505" y="99" type="curve" smooth="yes"/>
      <point x="473" y="99"/>
      <point x="434" y="105"/>
      <point x="414" y="113" type="curve"/>
      <point x="410" y="139"/>
      <point x="409" y="200"/>
    </contour>
  </outline>
</glyph>
<glyph name="D" format="2">
  <advance width="1152"/>
  <unicode hex="0044"/>
  <note>
D
</note>
  <anchor x="552" y="0" name="bottom"/>
  <anchor x="584" y="471" name="center"/>
  <anchor x="351" y="471" name="stroke"/>
  <anchor x="568" y="942" name="top"/>
  <outline>
    <contour>
      <point x="57" y="942" type="line"/>
      <point x="52" y="855" type="line"/>
      <point x="157" y="829" type="line"/>
      <point x="163" y="818"/>
      <point x="168" y="711"/>
      <point x="168" y="577" type="curve" smooth="yes"/>
      <point x="168" y="364" type="line" smooth="yes"/>
      <point x="168" y="229"/>
      <point x="163" y="125"/>
      <point x="157" y="113" type="curve"/>
      <point x="52" y="86" type="line"/>
      <point x="57" y="0" type="line"/>
      <point x="534" y="0" type="line" smooth="yes"/>
      <point x="847" y="0"/>
      <point x="1073" y="203"/>
      <point x="1073" y="484" type="curve" smooth="yes"/>
      <point x="1073" y="772"/>
      <point x="868" y="942"/>
      <point x="520" y="942" type="curve" smooth="yes"/>
    </contour>
    <contour>
      <point x="415" y="828" type="curve"/>
      <point x="444" y="832"/>
      <point x="478" y="836"/>
      <point x="507" y="836" type="curve" smooth="yes"/>
      <point x="651" y="836"/>
      <point x="804" y="739"/>
      <point x="804" y="431" type="curve" smooth="yes"/>
      <point x="804" y="208"/>
      <point x="720" y="113"/>
      <point x="552" y="113" type="curve" smooth="yes"/>
      <point x="511" y="113"/>
      <point x="460" y="118"/>
      <point x="420" y="128" type="curve"/>
      <point x="415" y="173"/>
      <point x="412" y="285"/>
      <point x="412" y="364" type="curve" smooth="yes"/>
      <point x="412" y="577" type="line" smooth="yes"/>
      <point x="412" y="715"/>
      <point x="414" y="807"/>
    </contour>
  </outline>
</glyph>
<glyph name="E" format="2">
  <advance width="942.0"/>
  <unicode hex="0045"/>
  <anchor x="471.0" y="1090.0" name="above"/>
  <outline>
    <contour>
      <point x="909.0" y="256.0" type="line"/>
      <point x="877.0" y="256.0" type="line"/>
      <point x="795.0" y="111.0"/>
      <point x="758.0" y="55.0"/>
      <point x="580.0" y="55.0" type="curve" smooth="yes"/>
      <point x="408.0" y="55.0" type="line" smooth="yes"/>
      <point x="322.0" y="55.0"/>
      <point x="322.0" y="96.0"/>
      <point x="322.0" y="170.0" type="curve" smooth="yes"/>
      <point x="322.0" y="506.0" type="line"/>
      <point x="547.0" y="506.0" type="line" smooth="yes"/>
      <point x="674.0" y="506.0"/>
      <point x="692.0" y="473.0"/>
      <point x="709.0" y="354.0" type="curve"/>
      <point x="737.0" y="354.0" type="line"/>
      <point x="737.0" y="711.0" type="line"/>
      <point x="709.0" y="711.0" type="line"/>
      <point x="692.0" y="592.0"/>
      <point x="672.0" y="563.0"/>
      <point x="547.0" y="563.0" type="curve" smooth="yes"/>
      <point x="322.0" y="563.0" type="line"/>
      <point x="322.0" y="967.0" type="line"/>
      <point x="604.0" y="967.0" type="line" smooth="yes"/>
      <point x="756.0" y="967.0"/>
      <point x="768.0" y="930.0"/>
      <point x="803.0" y="799.0" type="curve"/>
      <point x="831.0" y="799.0" type="line"/>
      <point x="819.0" y="1022.0" type="line"/>
      <point x="33.0" y="1022.0" type="line"/>
      <point x="33.0" y="995.0" type="line"/>
      <point x="164.0" y="995.0"/>
      <point x="178.0" y="973.0"/>
      <point x="178.0" y="846.0" type="curve" smooth="yes"/>
      <point x="178.0" y="180.0" type="line" smooth="yes"/>
      <point x="178.0" y="55.0"/>
      <point x="160.0" y="29.0"/>
      <point x="33.0" y="29.0" type="curve"/>
      <point x="33.0" y="0.0" type="line"/>
      <point x="819.0" y="0.0" type="line"/>
    </contour>
  </outline>
</glyph>
<glyph name="F" format="2">
  <advance width="858.0"/>
  <unicode hex="0046"/>
  <outline>
    <contour>
      <point x="797.0" y="799.0" type="line"/>
      <point x="786.0" y="1022.0" type="line"/>
      <point x="25.0" y="1022.0" type="line"/>
      <point x="25.0" y="995.0" type="line"/>
      <point x="154.0" y="995.0"/>
      <point x="170.0" y="965.0"/>
      <point x="170.0" y="842.0" type="curve" smooth="yes"/>
      <point x="170.0" y="180.0" type="line" smooth="yes"/>
      <point x="170.0" y="57.0"/>
      <point x="156.0" y="29.0"/>
      <point x="25.0" y="29.0" type="curve"/>
      <point x="25.0" y="0.0" type="line"/>
      <point x="463.0" y="0.0" type="line"/>
      <point x="463.0" y="29.0" type="line"/>
      <point x="332.0" y="29.0"/>
      <point x="315.0" y="55.0"/>
      <point x="315.0" y="180.0" type="curve" smooth="yes"/>
      <point x="315.0" y="502.0" type="line"/>
      <point x="502.0" y="502.0" type="line" smooth="yes"/>
      <point x="604.0" y="502.0"/>
      <point x="635.0" y="455.0"/>
      <point x="635.0" y="358.0" type="curve"/>
      <point x="664.0" y="358.0" type="line"/>
      <point x="664.0" y="705.0" type="line"/>
      <point x="635.0" y="705.0" type="line"/>
      <point x="623.0" y="614.0"/>
      <point x="602.0" y="565.0"/>
      <point x="502.0" y="565.0" type="curve" smooth="yes"/>
      <point x="315.0" y="565.0" type="line"/>
      <point x="315.0" y="967.0" type="line"/>
      <point x="543.0" y="967.0" type="line" smooth="yes"/>
      <point x="680.0" y="967.0"/>
      <point x="731.0" y="932.0"/>
      <point x="770.0" y="799.0" type="curve"/>
    </contour>
  </outline>
</glyph>
<glyph name="H" format="2">
  <advance width="1149"/>
  <unicode hex="0048"/>
  <note>
H
</note>
  <anchor x="572" y="942" name="above"/>
  <anchor x="572" y="0" name="below"/>
  <anchor x="572" y="696" name="center"/>
  <anchor x="49" y="942" name="topleft"/>
  <outline>
    <contour>
      <point x="630" y="0" type="line"/>
      <point x="1091" y="0" type="line"/>
      <point x="1096" y="86" type="line"/>
      <point x="993" y="113" type="line"/>
      <point x="988" y="131"/>
      <point x="980" y="269"/>
      <point x="980" y="364" type="curve" smooth="yes"/>
      <point x="980" y="577" type="line" smooth="yes"/>
      <point x="980" y="677"/>
      <point x="988" y="815"/>
      <point x="993" y="829" type="curve"/>
      <point x="1096" y="855" type="line"/>
      <point x="1091" y="942" type="line"/>
      <point x="630" y="942" type="line"/>
      <point x="625" y="855" type="line"/>
      <point x="725" y="829" type="line"/>
      <point x="731" y="815"/>
      <point x="736" y="696"/>
      <point x="736" y="577" type="curve" smooth="yes"/>
      <point x="736" y="364" type="line" smooth="yes"/>
      <point x="736" y="248"/>
      <point x="731" y="131"/>
      <point x="725" y="113" type="curve"/>
      <point x="625" y="86" type="line"/>
    </contour>
    <contour>
      <point x="56" y="0" type="line"/>
      <point x="516" y="0" type="line"/>
      <point x="521" y="86" type="line"/>
      <point x="422" y="113" type="line"/>
      <point x="415" y="131"/>
      <point x="410" y="248"/>
      <point x="410" y="364" type="curve" smooth="yes"/>
      <point x="410" y="577" type="line" smooth="yes"/>
      <point x="410" y="696"/>
      <point x="415" y="815"/>
      <point x="422" y="829" type="curve"/>
      <point x="521" y="855" type="line"/>
      <point x="516" y="942" type="line"/>
      <point x="56" y="942" type="line"/>
      <point x="51" y="855" type="line"/>
      <point x="154" y="829" type="line"/>
      <point x="160" y="820"/>
      <point x="166" y="704"/>
      <point x="166" y="577" type="curve" smooth="yes"/>
      <point x="166" y="364" type="line" smooth="yes"/>
      <point x="166" y="240"/>
      <point x="160" y="126"/>
      <point x="154" y="113" type="curve"/>
      <point x="51" y="86" type="line"/>
    </contour>
    <contour>
      <point x="367" y="414" type="line"/>
      <point x="412" y="415"/>
      <point x="471" y="420"/>
      <point x="572" y="420" type="curve" smooth="yes"/>
      <point x="674" y="420"/>
      <point x="736" y="415"/>
      <point x="780" y="414" type="curve"/>
      <point x="780" y="545" type="line"/>
      <point x="723" y="539"/>
      <point x="669" y="537"/>
      <point x="572" y="537" type="curve" smooth="yes"/>
      <point x="478" y="537"/>
      <point x="422" y="539"/>
      <point x="367" y="545" type="curve"/>
    </contour>
  </outline>
</glyph>
<glyph name="I" format="2">
  <advance width="578"/>
  <unicode hex="0049"/>
  <note>
I
</note>
  <anchor x="288" y="0" name="bottom"/>
  <anchor x="415" y="0" name="ogonek"/>
  <anchor x="288" y="942" name="top"/>
  <anchor x="49" y="942" name="topleft"/>
  <outline>
    <contour>
      <point x="56" y="0" type="line"/>
      <point x="520" y="0" type="line"/>
      <point x="524" y="86" type="line"/>
      <point x="422" y="113" type="line"/>
      <point x="415" y="131"/>
      <point x="410" y="248"/>
      <point x="410" y="364" type="curve" smooth="yes"/>
      <point x="410" y="577" type="line" smooth="yes"/>
      <point x="410" y="696"/>
      <point x="415" y="815"/>
      <point x="422" y="829" type="curve"/>
      <point x="524" y="855" type="line"/>
      <point x="520" y="942" type="line"/>
      <point x="56" y="942" type="line"/>
      <point x="51" y="855" type="line"/>
      <point x="154" y="829" type="line"/>
      <point x="160" y="820"/>
      <point x="166" y="704"/>
      <point x="166" y="577" type="curve" smooth="yes"/>
      <point x="166" y="364" type="line" smooth="yes"/>
      <point x="166" y="240"/>
      <point x="160" y="126"/>
      <point x="154" y="113" type="curve"/>
      <point x="51" y="86" type="line"/>
    </contour>
  </outline>
</glyph>
<glyph name="J" format="2">
  <advance width="578"/>
  <unicode hex="004A"/>
  <note>
J
</note>
  <anchor x="288" y="942" name="above"/>
  <outline>
    <contour>
      <point x="422" y="829" type="curve"/>
      <point x="524" y="855" type="line"/>
      <point x="520" y="942" type="line"/>
      <point x="44" y="942" type="line"/>
      <point x="40" y="855" type="line"/>
      <point x="154" y="832" type="line"/>
      <point x="160" y="815"/>
      <point x="166" y="696"/>
      <point x="166" y="585" type="curve"/>
      <point x="168" y="-32" type="line"/>
      <point x="168" y="-215"/>
      <point x="158" y="-242"/>
      <point x="86" y="-229" type="curve"/>
      <point x="186" y="-266" type="line"/>
      <point x="62" y="-150" type="line" smooth="yes"/>
      <point x="19" y="-109"/>
      <point x="-14" y="-91"/>
      <point x="-57" y="-91" type="curve" smooth="yes"/>
      <point x="-105" y="-91"/>
      <point x="-146" y="-130"/>
      <point x="-146" y="-184" type="curve" smooth="yes"/>
      <point x="-146" y="-268"/>
      <point x="-44" y="-325"/>
      <point x="97" y="-325" type="curve" smooth="yes"/>
      <point x="287" y="-325"/>
      <point x="414" y="-197"/>
      <point x="414" y="0" type="curve"/>
      <point x="410" y="581" type="line"/>
      <point x="410" y="704"/>
      <point x="415" y="816"/>
    </contour>
  </outline>
</glyph>
<glyph name="K" format="2">
  <advance width="1092"/>
  <unicode hex="004B"/>
  <note>
K
</note>
  <anchor x="544" y="0" name="bottom"/>
  <anchor x="544" y="942" name="top"/>
  <outline>
    <contour>
      <point x="601" y="0" type="line"/>
      <point x="1113" y="0" type="line"/>
      <point x="1113" y="88" type="line"/>
      <point x="1030" y="99" type="line"/>
      <point x="1017" y="113"/>
      <point x="993" y="134"/>
      <point x="911" y="234" type="curve" smooth="yes"/>
      <point x="600" y="614" type="line"/>
      <point x="609" y="536" type="line"/>
      <point x="950" y="836" type="line"/>
      <point x="1062" y="852" type="line"/>
      <point x="1057" y="942" type="line"/>
      <point x="674" y="942" type="line"/>
      <point x="669" y="855" type="line"/>
      <point x="772" y="837" type="line"/>
      <point x="441" y="499" type="line"/>
      <point x="380" y="487" type="line"/>
      <point x="380" y="407" type="line"/>
      <point x="441" y="407" type="line"/>
      <point x="624" y="179" type="line" smooth="yes"/>
      <point x="654" y="138"/>
      <point x="662" y="125"/>
      <point x="674" y="102" type="curve"/>
      <point x="595" y="86" type="line"/>
    </contour>
    <contour>
      <point x="62" y="0" type="line"/>
      <point x="492" y="0" type="line"/>
      <point x="497" y="86" type="line"/>
      <point x="420" y="113" type="line"/>
      <point x="415" y="126"/>
      <point x="412" y="232"/>
      <point x="412" y="364" type="curve" smooth="yes"/>
      <point x="412" y="577" type="line" smooth="yes"/>
      <point x="412" y="696"/>
      <point x="417" y="812"/>
      <point x="423" y="828" type="curve"/>
      <point x="526" y="855" type="line"/>
      <point x="521" y="942" type="line"/>
      <point x="57" y="942" type="line"/>
      <point x="52" y="855" type="line"/>
      <point x="155" y="828" type="line"/>
      <point x="162" y="816"/>
      <point x="168" y="704"/>
      <point x="168" y="577" type="curve" smooth="yes"/>
      <point x="168" y="364" type="line" smooth="yes"/>
      <point x="168" y="232"/>
      <point x="165" y="126"/>
      <point x="160" y="113" type="curve"/>
      <point x="57" y="86" type="line"/>
    </contour>
  </outline>
</glyph>
<glyph name="L" format="2">
  <advance width="910"/>
  <unicode hex="004C"/>
  <note>
L
</note>
  <anchor x="288" y="942" name="above"/>
  <anchor x="489" y="0" name="below"/>
  <anchor x="332" y="486" name="center"/>
  <anchor x="645" y="513" name="dotacc"/>
  <anchor x="624" y="942" name="topright"/>
  <outline>
    <contour>
      <point x="818" y="-12" type="curve"/>
      <point x="900" y="292" type="line"/>
      <point x="794" y="317" type="line"/>
      <point x="701" y="136" type="line"/>
      <point x="682" y="131"/>
      <point x="640" y="126"/>
      <point x="600" y="126" type="curve" smooth="yes"/>
      <point x="553" y="126" type="line" smooth="yes"/>
      <point x="495" y="126"/>
      <point x="459" y="128"/>
      <point x="420" y="134" type="curve"/>
      <point x="414" y="163"/>
      <point x="412" y="234"/>
      <point x="412" y="364" type="curve" smooth="yes"/>
      <point x="412" y="577" type="line" smooth="yes"/>
      <point x="412" y="702"/>
      <point x="418" y="815"/>
      <point x="423" y="826" type="curve"/>
      <point x="556" y="852" type="line"/>
      <point x="552" y="942" type="line"/>
      <point x="57" y="942" type="line"/>
      <point x="52" y="855" type="line"/>
      <point x="157" y="828" type="line"/>
      <point x="162" y="813"/>
      <point x="166" y="693"/>
      <point x="166" y="577" type="curve" smooth="yes"/>
      <point x="166" y="364" type="line" smooth="yes"/>
      <point x="166" y="253"/>
      <point x="162" y="130"/>
      <point x="157" y="113" type="curve"/>
      <point x="52" y="86" type="line"/>
      <point x="57" y="0" type="line"/>
      <point x="534" y="0" type="line"/>
      <point x="590" y="0"/>
      <point x="727" y="-3"/>
    </contour>
  </outline>
</glyph>
<glyph name="N" format="2">
  <advance width="1138"/>
  <unicode hex="004E"/>
  <note>
N
</note>
  <anchor x="568" y="942" name="above"/>
  <anchor x="568" y="0" name="below"/>
  <outline>
    <contour>
      <point x="842" y="317" type="line"/>
      <point x="919" y="317" type="line"/>
      <point x="325" y="942" type="line"/>
      <point x="59" y="942" type="line"/>
      <point x="54" y="855" type="line"/>
      <point x="157" y="828" type="line"/>
      <point x="160" y="804"/>
      <point x="168" y="691"/>
      <point x="168" y="632" type="curve" smooth="yes"/>
      <point x="168" y="439" type="line" smooth="yes"/>
      <point x="168" y="287"/>
      <point x="163" y="134"/>
      <point x="157" y="113" type="curve"/>
      <point x="54" y="86" type="line"/>
      <point x="59" y="0" type="line"/>
      <point x="420" y="0" type="line"/>
      <point x="425" y="86" type="line"/>
      <point x="312" y="113" type="line"/>
      <point x="303" y="134"/>
      <point x="300" y="272"/>
      <point x="300" y="439" type="curve" smooth="yes"/>
      <point x="300" y="722" type="line"/>
      <point x="197" y="722" type="line"/>
      <point x="861" y="-9" type="line"/>
      <point x="967" y="-9" type="line"/>
      <point x="967" y="65"/>
      <point x="969" y="136"/>
      <point x="969" y="247" type="curve" smooth="yes"/>
      <point x="969" y="526" type="line" smooth="yes"/>
      <point x="969" y="672"/>
      <point x="972" y="812"/>
      <point x="979" y="828" type="curve"/>
      <point x="1083" y="855" type="line"/>
      <point x="1078" y="942" type="line"/>
      <point x="723" y="942" type="line"/>
      <point x="719" y="855" type="line"/>
      <point x="831" y="828" type="line"/>
      <point x="839" y="812"/>
      <point x="842" y="670"/>
      <point x="842" y="526" type="curve" smooth="yes"/>
    </contour>
  </outline>
</glyph>
<glyph name="O" format="2">
  <advance width="1151"/>
  <unicode hex="004F"/>
  <note>
O
</note>
  <anchor x="576" y="0" name="bottom"/>
  <anchor x="576" y="471" name="center"/>
  <anchor x="694" y="0" name="ogonek"/>
  <anchor x="576" y="942" name="top"/>
  <anchor x="27" y="942" name="topleft"/>
  <anchor x="1123" y="942" name="topright"/>
  <outline>
    <contour>
      <point x="585" y="-14" type="curve" smooth="yes"/>
      <point x="789" y="-14"/>
      <point x="1083" y="139"/>
      <point x="1083" y="486" type="curve" smooth="yes"/>
      <point x="1083" y="763"/>
      <point x="877" y="956"/>
      <point x="585" y="956" type="curve" smooth="yes"/>
      <point x="285" y="956"/>
      <point x="67" y="744"/>
      <point x="67" y="455" type="curve" smooth="yes"/>
      <point x="67" y="182"/>
      <point x="285" y="-14"/>
    </contour>
    <contour>
      <point x="597" y="115" type="curve" smooth="yes"/>
      <point x="451" y="115"/>
      <point x="351" y="277"/>
      <point x="351" y="508" type="curve" smooth="yes"/>
      <point x="351" y="717"/>
      <point x="433" y="841"/>
      <point x="566" y="841" type="curve" smooth="yes"/>
      <point x="709" y="841"/>
      <point x="800" y="686"/>
      <point x="800" y="444" type="curve" smooth="yes"/>
      <point x="800" y="232"/>
      <point x="735" y="115"/>
    </contour>
  </outline>
</glyph>
<glyph name="P" format="2">
  <advance width="948"/>
  <unicode hex="0050"/>
  <note>
P
</note>
  <anchor x="290" y="0" name="bottom"/>
  <anchor x="483" y="942" name="top"/>
  <outline>
    <contour>
      <point x="62" y="0" type="line"/>
      <point x="550" y="0" type="line"/>
      <point x="555" y="89" type="line"/>
      <point x="425" y="113" type="line"/>
      <point x="422" y="126"/>
      <point x="414" y="240"/>
      <point x="414" y="356" type="curve"/>
      <point x="412" y="592" type="line"/>
      <point x="412" y="751"/>
      <point x="412" y="820"/>
      <point x="414" y="845" type="curve"/>
      <point x="444" y="845" type="line" smooth="yes"/>
      <point x="571" y="845"/>
      <point x="638" y="783"/>
      <point x="638" y="642" type="curve" smooth="yes"/>
      <point x="638" y="524"/>
      <point x="587" y="459"/>
      <point x="492" y="459" type="curve" smooth="yes"/>
      <point x="442" y="459"/>
      <point x="407" y="468"/>
      <point x="391" y="475" type="curve"/>
      <point x="391" y="357" type="line"/>
      <point x="422" y="351"/>
      <point x="459" y="346"/>
      <point x="491" y="346" type="curve" smooth="yes"/>
      <point x="757" y="346"/>
      <point x="898" y="486"/>
      <point x="898" y="664" type="curve" smooth="yes"/>
      <point x="898" y="842"/>
      <point x="767" y="942"/>
      <point x="487" y="942" type="curve" smooth="yes"/>
      <point x="57" y="942" type="line"/>
      <point x="52" y="855" type="line"/>
      <point x="155" y="834" type="line"/>
      <point x="163" y="821"/>
      <point x="168" y="702"/>
      <point x="168" y="592" type="curve"/>
      <point x="166" y="356" type="line"/>
      <point x="166" y="240"/>
      <point x="162" y="126"/>
      <point x="154" y="113" type="curve"/>
      <point x="57" y="86" type="line"/>
    </contour>
  </outline>
</glyph>
<glyph name="Q" format="2">
  <advance width="1151"/>
  <unicode hex="0051"/>
  <note>
Q
</note>
  <anchor x="576" y="942" name="above"/>
  <outline>
    <contour>
      <point x="585" y="-9" type="curve"/>
      <point x="609" y="-4" type="line"/>
      <point x="799" y="-4"/>
      <point x="1083" y="142"/>
      <point x="1083" y="486" type="curve" smooth="yes"/>
      <point x="1083" y="763"/>
      <point x="877" y="956"/>
      <point x="585" y="956" type="curve" smooth="yes"/>
      <point x="285" y="956"/>
      <point x="67" y="744"/>
      <point x="67" y="455" type="curve" smooth="yes"/>
      <point x="67" y="182"/>
      <point x="285" y="-9"/>
    </contour>
    <contour>
      <point x="985" y="-242" type="curve" smooth="yes"/>
      <point x="1083" y="-242"/>
      <point x="1168" y="-215"/>
      <point x="1224" y="-176" type="curve"/>
      <point x="1198" y="-81" type="line"/>
      <point x="1157" y="-93"/>
      <point x="1121" y="-96"/>
      <point x="1097" y="-96" type="curve" smooth="yes"/>
      <point x="1043" y="-96"/>
      <point x="1004" y="-83"/>
      <point x="919" y="-35" type="curve" smooth="yes"/>
      <point x="857" y="0"/>
      <point x="765" y="20"/>
      <point x="683" y="20" type="curve"/>
      <point x="417" y="20" type="line"/>
      <point x="473" y="-4"/>
      <point x="507" y="-30"/>
      <point x="581" y="-97" type="curve" smooth="yes"/>
      <point x="662" y="-173"/>
      <point x="780" y="-242"/>
    </contour>
    <contour>
      <point x="597" y="115" type="curve" smooth="yes"/>
      <point x="451" y="115"/>
      <point x="351" y="277"/>
      <point x="351" y="508" type="curve" smooth="yes"/>
      <point x="351" y="717"/>
      <point x="433" y="841"/>
      <point x="566" y="841" type="curve" smooth="yes"/>
      <point x="709" y="841"/>
      <point x="800" y="686"/>
      <point x="800" y="444" type="curve" smooth="yes"/>
      <point x="800" y="226"/>
      <point x="733" y="115"/>
    </contour>
  </outline>
</glyph>
<glyph name="R" format="2">
  <advance width="1030.0"/>
  <unicode hex="0052"/>
  <outline>
    <contour>
      <point x="1044.0" y="0.0" type="line"/>
      <point x="1044.0" y="29.0" type="line"/>
      <point x="913.0" y="41.0"/>
      <point x="856.0" y="100.0"/>
      <point x="782.0" y="203.0" type="curve" smooth="yes"/>
      <point x="573.0" y="498.0" type="line"/>
      <point x="715.0" y="528.0"/>
      <point x="823.0" y="604.0"/>
      <point x="823.0" y="760.0" type="curve" smooth="yes"/>
      <point x="823.0" y="993.0"/>
      <point x="590.0" y="1022.0"/>
      <point x="412.0" y="1022.0" type="curve" smooth="yes"/>
      <point x="27.0" y="1022.0" type="line"/>
      <point x="27.0" y="995.0" type="line"/>
      <point x="158.0" y="995.0"/>
      <point x="172.0" y="969.0"/>
      <point x="172.0" y="842.0" type="curve" smooth="yes"/>
      <point x="172.0" y="180.0" type="line" smooth="yes"/>
      <point x="172.0" y="55.0"/>
      <point x="158.0" y="29.0"/>
      <point x="27.0" y="29.0" type="curve"/>
      <point x="27.0" y="0.0" type="line"/>
      <point x="465.0" y="0.0" type="line"/>
      <point x="465.0" y="29.0" type="line"/>
      <point x="336.0" y="29.0"/>
      <point x="315.0" y="55.0"/>
      <point x="315.0" y="180.0" type="curve" smooth="yes"/>
      <point x="315.0" y="477.0" type="line"/>
      <point x="327.0" y="476.0"/>
      <point x="339.0" y="475.0"/>
      <point x="351.0" y="475.0" type="curve" smooth="yes"/>
      <point x="376.0" y="475.0"/>
      <point x="402.0" y="475.0"/>
      <point x="424.0" y="477.0" type="curve"/>
      <point x="770.0" y="0.0" type="line"/>
    </contour>
    <contour>
      <point x="655.0" y="748.0" type="curve"/>
      <point x="655.0" y="578.0"/>
      <point x="504.0" y="526.0"/>
      <point x="358.0" y="526.0" type="curve" smooth="yes"/>
      <point x="315.0" y="526.0" type="line"/>
      <point x="315.0" y="952.0" type="line"/>
      <point x="356.0" y="958.0"/>
      <point x="395.0" y="965.0"/>
      <point x="434.0" y="965.0" type="curve" smooth="yes"/>
      <point x="565.0" y="965.0"/>
      <point x="655.0" y="879.0"/>
    </contour>
  </outline>
</glyph>
<glyph name="S" format="2">
  <advance width="858.0"/>
  <unicode hex="0053"/>
  <anchor x="437.0" y="1090.0" name="above"/>
  <outline>
    <contour>
      <point x="776.0" y="262.0" type="curve"/>
      <point x="776.0" y="580.0"/>
      <point x="217.0" y="604.0"/>
      <point x="217.0" y="829.0" type="curve" smooth="yes"/>
      <point x="217.0" y="924.0"/>
      <point x="307.0" y="985.0"/>
      <point x="397.0" y="985.0" type="curve" smooth="yes"/>
      <point x="569.0" y="985.0"/>
      <point x="666.0" y="852.0"/>
      <point x="680.0" y="692.0" type="curve"/>
      <point x="709.0" y="692.0" type="line"/>
      <point x="709.0" y="1044.0" type="line"/>
      <point x="680.0" y="1044.0" type="line"/>
      <point x="674.0" y="1022.0"/>
      <point x="662.0" y="987.0"/>
      <point x="631.0" y="987.0" type="curve" smooth="yes"/>
      <point x="586.0" y="987.0"/>
      <point x="487.0" y="1044.0"/>
      <point x="395.0" y="1044.0" type="curve" smooth="yes"/>
      <point x="238.0" y="1044.0"/>
      <point x="98.0" y="944.0"/>
      <point x="98.0" y="776.0" type="curve" smooth="yes"/>
      <point x="98.0" y="467.0"/>
      <point x="641.0" y="438.0"/>
      <point x="641.0" y="203.0" type="curve" smooth="yes"/>
      <point x="641.0" y="92.0"/>
      <point x="537.0" y="35.0"/>
      <point x="438.0" y="35.0" type="curve" smooth="yes"/>
      <point x="256.0" y="35.0"/>
      <point x="154.0" y="154.0"/>
      <point x="133.0" y="328.0" type="curve"/>
      <point x="106.0" y="328.0" type="line"/>
      <point x="106.0" y="-25.0" type="line"/>
      <point x="133.0" y="-25.0" type="line"/>
      <point x="137.0" y="2.0"/>
      <point x="147.0" y="35.0"/>
      <point x="180.0" y="35.0" type="curve" smooth="yes"/>
      <point x="231.0" y="35.0"/>
      <point x="346.0" y="-25.0"/>
      <point x="455.0" y="-25.0" type="curve" smooth="yes"/>
      <point x="621.0" y="-25.0"/>
      <point x="776.0" y="84.0"/>
    </contour>
  </outline>
</glyph>
<glyph name="U" format="2">
  <advance width="1153"/>
  <unicode hex="0055"/>
  <note>
U
</note>
  <anchor x="627" y="0" name="bottom"/>
  <anchor x="714" y="0" name="ogonek"/>
  <anchor x="627" y="942" name="top"/>
  <anchor x="1091" y="942" name="topright"/>
  <outline>
    <contour>
      <point x="54" y="942" type="line"/>
      <point x="49" y="855" type="line"/>
      <point x="152" y="828" type="line"/>
      <point x="157" y="816"/>
      <point x="162" y="698"/>
      <point x="162" y="577" type="curve" smooth="yes"/>
      <point x="162" y="409" type="line" smooth="yes"/>
      <point x="162" y="138"/>
      <point x="316" y="-14"/>
      <point x="595" y="-14" type="curve" smooth="yes"/>
      <point x="844" y="-14"/>
      <point x="990" y="152"/>
      <point x="990" y="402" type="curve" smooth="yes"/>
      <point x="990" y="548" type="line" smooth="yes"/>
      <point x="990" y="674"/>
      <point x="995" y="818"/>
      <point x="1001" y="828" type="curve"/>
      <point x="1105" y="855" type="line"/>
      <point x="1101" y="942" type="line"/>
      <point x="728" y="942" type="line"/>
      <point x="723" y="855" type="line"/>
      <point x="836" y="828" type="line"/>
      <point x="842" y="818"/>
      <point x="847" y="674"/>
      <point x="847" y="548" type="curve" smooth="yes"/>
      <point x="847" y="436" type="line" smooth="yes"/>
      <point x="847" y="248"/>
      <point x="780" y="152"/>
      <point x="630" y="152" type="curve" smooth="yes"/>
      <point x="478" y="152"/>
      <point x="407" y="253"/>
      <point x="409" y="438" type="curve"/>
      <point x="409" y="577" type="line"/>
      <point x="409" y="688"/>
      <point x="414" y="786"/>
      <point x="417" y="828" type="curve"/>
      <point x="521" y="855" type="line"/>
      <point x="516" y="942" type="line"/>
    </contour>
  </outline>
</glyph>
<glyph name="V" format="2">
  <advance width="1004"/>
  <unicode hex="0056"/>
  <note>
V
</note>
  <anchor x="492" y="942" name="above"/>
  <anchor x="492" y="0" name="below"/>
  <outline>
    <contour>
      <point x="452" y="-4" type="line"/>
      <point x="545" y="-4" type="line"/>
      <point x="930" y="828" type="line"/>
      <point x="1015" y="858" type="line"/>
      <point x="1007" y="942" type="line"/>
      <point x="667" y="942" type="line"/>
      <point x="662" y="855" type="line"/>
      <point x="775" y="828" type="line"/>
      <point x="539" y="231" type="line"/>
      <point x="611" y="231" type="line"/>
      <point x="351" y="828" type="line"/>
      <point x="451" y="855" type="line"/>
      <point x="446" y="942" type="line"/>
      <point x="-6" y="942" type="line"/>
      <point x="-11" y="858" type="line"/>
      <point x="73" y="828" type="line"/>
    </contour>
  </outline>
</glyph>
<glyph name="W" format="2">
  <advance width="1458.0"/>
  <unicode hex="0057"/>
  <outline>
    <contour>
      <point x="1444.0" y="1022.0" type="line"/>
      <point x="1141.0" y="1022.0" type="line"/>
      <point x="1141.0" y="995.0" type="line"/>
      <point x="1188.0" y="995.0"/>
      <point x="1251.0" y="985.0"/>
      <point x="1251.0" y="926.0" type="curve" smooth="yes"/>
      <point x="1251.0" y="893.0"/>
      <point x="1231.0" y="834.0"/>
      <point x="1221.0" y="803.0" type="curve" smooth="yes"/>
      <point x="1026.0" y="238.0" type="line"/>
      <point x="829.0" y="795.0" type="line" smooth="yes"/>
      <point x="815.0" y="831.0"/>
      <point x="797.0" y="887.0"/>
      <point x="797.0" y="928.0" type="curve" smooth="yes"/>
      <point x="797.0" y="995.0"/>
      <point x="854.0" y="995.0"/>
      <point x="905.0" y="995.0" type="curve"/>
      <point x="905.0" y="1022.0" type="line"/>
      <point x="506.0" y="1022.0" type="line"/>
      <point x="506.0" y="995.0" type="line"/>
      <point x="635.0" y="995.0"/>
      <point x="672.0" y="825.0"/>
      <point x="702.0" y="727.0" type="curve"/>
      <point x="532.0" y="238.0" type="line"/>
      <point x="332.0" y="813.0" type="line" smooth="yes"/>
      <point x="322.0" y="842.0"/>
      <point x="299.0" y="903.0"/>
      <point x="299.0" y="934.0" type="curve" smooth="yes"/>
      <point x="299.0" y="989.0"/>
      <point x="356.0" y="995.0"/>
      <point x="397.0" y="995.0" type="curve"/>
      <point x="397.0" y="1022.0" type="line"/>
      <point x="20.0" y="1022.0" type="line"/>
      <point x="20.0" y="995.0" type="line"/>
      <point x="131.0" y="995.0"/>
      <point x="143.0" y="913.0"/>
      <point x="176.0" y="825.0" type="curve"/>
      <point x="477.0" y="-25.0" type="line"/>
      <point x="506.0" y="-25.0" type="line"/>
      <point x="737.0" y="629.0" type="line"/>
      <point x="969.0" y="-25.0" type="line"/>
      <point x="1001.0" y="-25.0" type="line"/>
      <point x="1284.0" y="803.0" type="line" smooth="yes"/>
      <point x="1313.0" y="883.0"/>
      <point x="1337.0" y="995.0"/>
      <point x="1444.0" y="995.0" type="curve"/>
    </contour>
  </outline>
</glyph>
<glyph name="X" format="2">
  <advance width="992"/>
  <unicode hex="0058"/>
  <note>
X
</note>
  <anchor x="489" y="0" name="bottom"/>
  <anchor x="489" y="942" name="top"/>
  <outline>
    <contour>
      <point x="987" y="0" type="line"/>
      <point x="991" y="86" type="line"/>
      <point x="910" y="113" type="line"/>
      <point x="609" y="544" type="line"/>
      <point x="544" y="638" type="line"/>
      <point x="414" y="828" type="line"/>
      <point x="484" y="855" type="line"/>
      <point x="479" y="942" type="line"/>
      <point x="51" y="942" type="line"/>
      <point x="46" y="855" type="line"/>
      <point x="128" y="828" type="line"/>
      <point x="383" y="455" type="line"/>
      <point x="455" y="359" type="line"/>
      <point x="621" y="113" type="line"/>
      <point x="521" y="86" type="line"/>
      <point x="526" y="0" type="line"/>
    </contour>
    <contour>
      <point x="674" y="828" type="line"/>
      <point x="544" y="638" type="line"/>
      <point x="383" y="455" type="line"/>
      <point x="121" y="113" type="line"/>
      <point x="40" y="86" type="line"/>
      <point x="44" y="0" type="line"/>
      <point x="386" y="0" type="line"/>
      <point x="391" y="86" type="line"/>
      <point x="287" y="113" type="line"/>
      <point x="455" y="359" type="line"/>
      <point x="609" y="544" type="line"/>
      <point x="841" y="828" type="line"/>
      <point x="922" y="855" type="line"/>
      <point x="918" y="942" type="line"/>
      <point x="603" y="942" type="line"/>
      <point x="598" y="855" type="line"/>
    </contour>
  </outline>
</glyph>
<glyph name="Y" format="2">
  <advance width="1114.0"/>
  <unicode hex="0059"/>
  <anchor x="554.0" y="1090.0" name="above"/>
  <outline>
    <contour>
      <point x="1094.0" y="1022.0" type="line"/>
      <point x="737.0" y="1022.0" type="line"/>
      <point x="737.0" y="995.0" type="line"/>
      <point x="782.0" y="995.0"/>
      <point x="840.0" y="977.0"/>
      <point x="840.0" y="922.0" type="curve" smooth="yes"/>
      <point x="840.0" y="889.0"/>
      <point x="811.0" y="842.0"/>
      <point x="795.0" y="815.0" type="curve" smooth="yes"/>
      <point x="592.0" y="500.0" type="line"/>
      <point x="586.0" y="512.0"/>
      <point x="334.0" y="870.0"/>
      <point x="334.0" y="928.0" type="curve" smooth="yes"/>
      <point x="334.0" y="989.0"/>
      <point x="408.0" y="995.0"/>
      <point x="451.0" y="995.0" type="curve"/>
      <point x="451.0" y="1022.0" type="line"/>
      <point x="14.0" y="1022.0" type="line"/>
      <point x="14.0" y="995.0" type="line"/>
      <point x="104.0" y="995.0"/>
      <point x="156.0" y="915.0"/>
      <point x="199.0" y="848.0" type="curve" smooth="yes"/>
      <point x="477.0" y="420.0" type="line"/>
      <point x="477.0" y="178.0" type="line" smooth="yes"/>
      <point x="477.0" y="55.0"/>
      <point x="463.0" y="29.0"/>
      <point x="336.0" y="29.0" type="curve"/>
      <point x="336.0" y="0.0" type="line"/>
      <point x="770.0" y="0.0" type="line"/>
      <point x="770.0" y="29.0" type="line"/>
      <point x="643.0" y="29.0"/>
      <point x="625.0" y="53.0"/>
      <point x="625.0" y="178.0" type="curve" smooth="yes"/>
      <point x="625.0" y="434.0" type="line"/>
      <point x="872.0" y="821.0" type="line" smooth="yes"/>
      <point x="928.0" y="909.0"/>
      <point x="975.0" y="995.0"/>
      <point x="1094.0" y="995.0" type="curve"/>
    </contour>
  </outline>
</glyph>
<glyph name="bracketleft" format="2">
  <advance width="568"/>
  <unicode hex="005B"/>
  <note>
bracketleft
</note>
  <outline>
    <contour>
      <point x="528" y="-353" type="line"/>
      <point x="528" y="-251" type="line"/>
      <point x="365" y="-251" type="line"/>
      <point x="365" y="1057" type="line"/>
      <point x="528" y="1057" type="line"/>
      <point x="528" y="1158" type="line"/>
      <point x="138" y="1158" type="line"/>
      <point x="138" y="-353" type="line"/>
    </contour>
  </outline>
</glyph>
<glyph name="backslash" format="2">
  <advance width="695"/>
  <unicode hex="005C"/>
  <note>
backslash
</note>
  <outline>
    <contour>
      <point x="642" y="-288" type="line"/>
      <point x="158" y="1168" type="line"/>
      <point x="-11" y="1168" type="line"/>
      <point x="471" y="-288" type="line"/>
    </contour>
  </outline>
</glyph>
<glyph name="bracketright" format="2">
  <advance width="569"/>
  <unicode hex="005D"/>
  <note>
bracketright
</note>
  <outline>
    <contour>
      <point x="40" y="-353" type="line"/>
      <point x="431" y="-353" type="line"/>
      <point x="431" y="1158" type="line"/>
      <point x="40" y="1158" type="line"/>
      <point x="40" y="1057" type="line"/>
      <point x="202" y="1057" type="line"/>
      <point x="202" y="-251" type="line"/>
      <point x="40" y="-251" type="line"/>
    </contour>
  </outline>
</glyph>
<glyph name="asciicircum" format="2">
  <advance width="1485.0"/>
  <unicode hex="005E"/>
  <outline>
    <contour>
      <point x="1130.0" y="14.0" type="line"/>
      <point x="788.0" y="905.0" type="line"/>
      <point x="696.0" y="905.0" type="line"/>
      <point x="354.0" y="14.0" type="line"/>
      <point x="446.0" y="14.0" type="line"/>
      <point x="743.0" y="811.0" type="line"/>
      <point x="1038.0" y="14.0" type="line"/>
    </contour>
  </outline>
</glyph>
<glyph name="underscore" format="2">
  <advance width="743.0"/>
  <unicode hex="005F"/>
  <outline>
    <contour>
      <point x="743.0" y="-174.0" type="line"/>
      <point x="743.0" y="-119.0" type="line"/>
      <point x="0.0" y="-119.0" type="line"/>
      <point x="0.0" y="-174.0" type="line"/>
    </contour>
  </outline>
</glyph>
<glyph name="a" format="2">
  <advance width="821"/>
  <unicode hex="0061"/>
  <note>
a
</note>
  <anchor x="406" y="711" name="above"/>
  <anchor x="410" y="0" name="below"/>
  <anchor x="743" y="0" name="ogonek"/>
  <outline>
    <contour>
      <point x="301" y="-12" type="curve" smooth="yes"/>
      <point x="364" y="-12"/>
      <point x="439" y="38"/>
      <point x="503" y="123" type="curve"/>
      <point x="467" y="131" type="line"/>
      <point x="499" y="54" type="line" smooth="yes"/>
      <point x="518" y="9"/>
      <point x="548" y="-12"/>
      <point x="593" y="-12" type="curve" smooth="yes"/>
      <point x="627" y="-12"/>
      <point x="662" y="-3"/>
      <point x="702" y="14" type="curve" smooth="yes"/>
      <point x="816" y="64" type="line"/>
      <point x="816" y="139" type="line"/>
      <point x="709" y="158" type="line"/>
      <point x="699" y="179"/>
      <point x="696" y="205"/>
      <point x="696" y="271" type="curve"/>
      <point x="701" y="479" type="line"/>
      <point x="701" y="629"/>
      <point x="576" y="723"/>
      <point x="375" y="723" type="curve"/>
      <point x="284" y="712"/>
      <point x="65" y="609"/>
      <point x="65" y="520" type="curve" smooth="yes"/>
      <point x="65" y="449"/>
      <point x="146" y="415"/>
      <point x="261" y="438" type="curve"/>
      <point x="271" y="547" type="line" smooth="yes"/>
      <point x="274" y="585"/>
      <point x="284" y="598"/>
      <point x="314" y="598" type="curve" smooth="yes"/>
      <point x="386" y="598"/>
      <point x="459" y="534"/>
      <point x="459" y="468" type="curve" smooth="yes"/>
      <point x="459" y="420" type="line"/>
      <point x="205" y="349" type="line" smooth="yes"/>
      <point x="105" y="321"/>
      <point x="57" y="269"/>
      <point x="57" y="187" type="curve" smooth="yes"/>
      <point x="57" y="107"/>
      <point x="147" y="-12"/>
    </contour>
    <contour>
      <point x="396" y="147" type="curve" smooth="yes"/>
      <point x="346" y="147"/>
      <point x="301" y="195"/>
      <point x="301" y="243" type="curve" smooth="yes"/>
      <point x="301" y="282"/>
      <point x="322" y="309"/>
      <point x="377" y="314" type="curve" smooth="yes"/>
      <point x="462" y="325" type="line"/>
      <point x="462" y="173" type="line"/>
      <point x="442" y="155"/>
      <point x="418" y="147"/>
    </contour>
  </outline>
</glyph>
<glyph name="b" format="2">
  <advance width="914"/>
  <unicode hex="0062"/>
  <note>
b
</note>
  <anchor x="454" y="0" name="bottom"/>
  <anchor x="454" y="1059" name="top"/>
  <outline>
    <contour>
      <point x="104" y="48" type="curve"/>
      <point x="211" y="4"/>
      <point x="306" y="-14"/>
      <point x="412" y="-14" type="curve" smooth="yes"/>
      <point x="696" y="-14"/>
      <point x="861" y="176"/>
      <point x="861" y="394" type="curve" smooth="yes"/>
      <point x="861" y="600"/>
      <point x="717" y="723"/>
      <point x="558" y="723" type="curve" smooth="yes"/>
      <point x="475" y="723"/>
      <point x="386" y="664"/>
      <point x="345" y="601" type="curve"/>
      <point x="340" y="603" type="line"/>
      <point x="346" y="855"/>
      <point x="349" y="958"/>
      <point x="359" y="1091" type="curve"/>
      <point x="309" y="1121" type="line"/>
      <point x="-19" y="1036" type="line"/>
      <point x="-16" y="961" type="line"/>
      <point x="102" y="946" type="line"/>
      <point x="105" y="895"/>
      <point x="110" y="792"/>
      <point x="110" y="577" type="curve"/>
      <point x="110" y="412" type="line"/>
      <point x="110" y="287"/>
      <point x="109" y="150"/>
    </contour>
    <contour>
      <point x="454" y="121" type="curve" smooth="yes"/>
      <point x="417" y="121"/>
      <point x="373" y="136"/>
      <point x="345" y="157" type="curve"/>
      <point x="345" y="511" type="line"/>
      <point x="370" y="536"/>
      <point x="410" y="555"/>
      <point x="454" y="555" type="curve" smooth="yes"/>
      <point x="532" y="555"/>
      <point x="609" y="494"/>
      <point x="609" y="341" type="curve" smooth="yes"/>
      <point x="609" y="179"/>
      <point x="542" y="121"/>
    </contour>
  </outline>
</glyph>
<glyph name="c" format="2">
  <advance width="686.0"/>
  <unicode hex="0063"/>
  <anchor x="351.0" y="-65.0" name="below"/>
  <outline>
    <contour>
      <point x="612.0" y="272.0" type="line"/>
      <point x="573.0" y="180.0"/>
      <point x="510.0" y="98.0"/>
      <point x="399.0" y="98.0" type="curve" smooth="yes"/>
      <point x="238.0" y="98.0"/>
      <point x="176.0" y="274.0"/>
      <point x="176.0" y="410.0" type="curve" smooth="yes"/>
      <point x="176.0" y="522.0"/>
      <point x="223.0" y="662.0"/>
      <point x="356.0" y="662.0" type="curve" smooth="yes"/>
      <point x="524.0" y="662.0"/>
      <point x="408.0" y="481.0"/>
      <point x="545.0" y="481.0" type="curve" smooth="yes"/>
      <point x="588.0" y="481.0"/>
      <point x="616.0" y="500.0"/>
      <point x="616.0" y="545.0" type="curve" smooth="yes"/>
      <point x="616.0" y="655.0"/>
      <point x="473.0" y="711.0"/>
      <point x="381.0" y="711.0" type="curve" smooth="yes"/>
      <point x="178.0" y="711.0"/>
      <point x="51.0" y="537.0"/>
      <point x="51.0" y="344.0" type="curve" smooth="yes"/>
      <point x="51.0" y="168.0"/>
      <point x="145.0" y="-23.0"/>
      <point x="346.0" y="-23.0" type="curve" smooth="yes"/>
      <point x="502.0" y="-23.0"/>
      <point x="612.0" y="119.0"/>
      <point x="635.0" y="262.0" type="curve"/>
    </contour>
  </outline>
</glyph>
<glyph name="d" format="2">
  <advance width="913"/>
  <unicode hex="0064"/>
  <note>
d
</note>
  <anchor x="486" y="0" name="bottom"/>
  <anchor x="457" y="356" name="center"/>
  <anchor x="582" y="829" name="stroke"/>
  <anchor x="457" y="1059" name="top"/>
  <anchor x="850" y="1104" name="topright"/>
  <outline>
    <contour>
      <point x="608" y="-22" type="line"/>
      <point x="902" y="59" type="line"/>
      <point x="902" y="133" type="line"/>
      <point x="794" y="155" type="line"/>
      <point x="789" y="215"/>
      <point x="784" y="263"/>
      <point x="784" y="365" type="curve"/>
      <point x="786" y="739" type="line" smooth="yes"/>
      <point x="786" y="858"/>
      <point x="794" y="958"/>
      <point x="800" y="1091" type="curve"/>
      <point x="752" y="1121" type="line"/>
      <point x="423" y="1036" type="line"/>
      <point x="426" y="963" type="line"/>
      <point x="544" y="946" type="line"/>
      <point x="547" y="897"/>
      <point x="550" y="792"/>
      <point x="550" y="704" type="curve"/>
      <point x="528" y="714"/>
      <point x="487" y="720"/>
      <point x="452" y="720" type="curve" smooth="yes"/>
      <point x="255" y="720"/>
      <point x="51" y="572"/>
      <point x="51" y="332" type="curve" smooth="yes"/>
      <point x="51" y="120"/>
      <point x="202" y="-17"/>
      <point x="367" y="-17" type="curve" smooth="yes"/>
      <point x="434" y="-17"/>
      <point x="503" y="16"/>
      <point x="555" y="112" type="curve"/>
      <point x="560" y="109" type="line"/>
      <point x="558" y="3" type="line"/>
    </contour>
    <contour>
      <point x="457" y="155" type="curve" smooth="yes"/>
      <point x="373" y="155"/>
      <point x="301" y="237"/>
      <point x="301" y="393" type="curve" smooth="yes"/>
      <point x="301" y="532"/>
      <point x="369" y="616"/>
      <point x="459" y="616" type="curve" smooth="yes"/>
      <point x="494" y="616"/>
      <point x="528" y="606"/>
      <point x="553" y="579" type="curve"/>
      <point x="553" y="215" type="line"/>
      <point x="529" y="173"/>
      <point x="481" y="155"/>
    </contour>
  </outline>
</glyph>
<glyph name="f" format="2">
  <advance width="543"/>
  <unicode hex="0066"/>
  <note>
f
</note>
  <outline>
    <contour>
      <point x="502" y="0" type="line"/>
      <point x="507" y="78" type="line"/>
      <point x="375" y="107" type="line"/>
      <point x="367" y="194"/>
      <point x="364" y="319"/>
      <point x="364" y="431" type="curve"/>
      <point x="362" y="598" type="line"/>
      <point x="359" y="707" type="line"/>
      <point x="359" y="823" type="line" smooth="yes"/>
      <point x="359" y="964"/>
      <point x="390" y="1040"/>
      <point x="449" y="1040" type="curve"/>
      <point x="367" y="1051" type="line"/>
      <point x="465" y="961" type="line" smooth="yes"/>
      <point x="500" y="930"/>
      <point x="531" y="916"/>
      <point x="564" y="916" type="curve" smooth="yes"/>
      <point x="616" y="916"/>
      <point x="646" y="945"/>
      <point x="646" y="995" type="curve" smooth="yes"/>
      <point x="646" y="1068"/>
      <point x="566" y="1120"/>
      <point x="451" y="1120" type="curve" smooth="yes"/>
      <point x="266" y="1120"/>
      <point x="126" y="958"/>
      <point x="126" y="743" type="curve" smooth="yes"/>
      <point x="126" y="598" type="line"/>
      <point x="128" y="431" type="line"/>
      <point x="128" y="227"/>
      <point x="128" y="203"/>
      <point x="125" y="107" type="curve"/>
      <point x="25" y="78" type="line"/>
      <point x="30" y="0" type="line"/>
    </contour>
    <contour>
      <point x="11" y="598" type="line"/>
      <point x="529" y="598" type="line"/>
      <point x="529" y="707" type="line"/>
      <point x="213" y="707" type="line"/>
      <point x="126" y="714" type="line"/>
      <point x="11" y="680" type="line"/>
    </contour>
  </outline>
</glyph>
<glyph name="g" format="2">
  <advance width="772.0"/>
  <unicode hex="0067"/>
  <outline>
    <contour>
      <point x="743.0" y="629.0" type="curve"/>
      <point x="743.0" y="662.0"/>
      <point x="735.0" y="662.0"/>
      <point x="709.0" y="662.0" type="curve" smooth="yes"/>
      <point x="682.0" y="662.0"/>
      <point x="655.0" y="657.0"/>
      <point x="629.0" y="657.0" type="curve" smooth="yes"/>
      <point x="543.0" y="657.0"/>
      <point x="465.0" y="711.0"/>
      <point x="377.0" y="711.0" type="curve" smooth="yes"/>
      <point x="231.0" y="711.0"/>
      <point x="102.0" y="616.0"/>
      <point x="102.0" y="461.0" type="curve" smooth="yes"/>
      <point x="102.0" y="373.0"/>
      <point x="152.0" y="289.0"/>
      <point x="233.0" y="252.0" type="curve"/>
      <point x="193.0" y="219.0"/>
      <point x="113.0" y="147.0"/>
      <point x="113.0" y="90.0" type="curve" smooth="yes"/>
      <point x="113.0" y="55.0"/>
      <point x="158.0" y="23.0"/>
      <point x="184.0" y="6.0" type="curve"/>
      <point x="147.0" y="-31.0"/>
      <point x="45.0" y="-133.0"/>
      <point x="45.0" y="-190.0" type="curve" smooth="yes"/>
      <point x="45.0" y="-293.0"/>
      <point x="270.0" y="-334.0"/>
      <point x="348.0" y="-334.0" type="curve" smooth="yes"/>
      <point x="502.0" y="-334.0"/>
      <point x="735.0" y="-248.0"/>
      <point x="735.0" y="-63.0" type="curve" smooth="yes"/>
      <point x="735.0" y="207.0"/>
      <point x="213.0" y="33.0"/>
      <point x="213.0" y="154.0" type="curve" smooth="yes"/>
      <point x="213.0" y="188.0"/>
      <point x="244.0" y="217.0"/>
      <point x="270.0" y="238.0" type="curve"/>
      <point x="305.0" y="227.0"/>
      <point x="340.0" y="223.0"/>
      <point x="375.0" y="223.0" type="curve" smooth="yes"/>
      <point x="516.0" y="223.0"/>
      <point x="647.0" y="303.0"/>
      <point x="647.0" y="457.0" type="curve" smooth="yes"/>
      <point x="647.0" y="504.0"/>
      <point x="635.0" y="555.0"/>
      <point x="606.0" y="594.0" type="curve"/>
      <point x="649.0" y="594.0"/>
      <point x="743.0" y="571.0"/>
    </contour>
    <contour>
      <point x="514.0" y="436.0" type="curve"/>
      <point x="514.0" y="348.0"/>
      <point x="489.0" y="260.0"/>
      <point x="385.0" y="260.0" type="curve" smooth="yes"/>
      <point x="264.0" y="260.0"/>
      <point x="233.0" y="399.0"/>
      <point x="233.0" y="494.0" type="curve" smooth="yes"/>
      <point x="233.0" y="578.0"/>
      <point x="264.0" y="674.0"/>
      <point x="365.0" y="674.0" type="curve" smooth="yes"/>
      <point x="483.0" y="674.0"/>
      <point x="514.0" y="530.0"/>
    </contour>
    <contour>
      <point x="680.0" y="-92.0" type="curve"/>
      <point x="680.0" y="-211.0"/>
      <point x="506.0" y="-242.0"/>
      <point x="416.0" y="-242.0" type="curve" smooth="yes"/>
      <point x="350.0" y="-242.0"/>
      <point x="154.0" y="-225.0"/>
      <point x="154.0" y="-133.0" type="curve" smooth="yes"/>
      <point x="154.0" y="-84.0"/>
      <point x="197.0" y="-33.0"/>
      <point x="225.0" y="0.0" type="curve"/>
      <point x="319.0" y="-8.0"/>
      <point x="528.0" y="-8.0"/>
      <point x="606.0" y="-27.0" type="curve" smooth="yes"/>
      <point x="641.0" y="-35.0"/>
      <point x="680.0" y="-51.0"/>
    </contour>
  </outline>
</glyph>
<glyph name="h" format="2">
  <advance width="965"/>
  <unicode hex="0068"/>
  <note>
h
</note>
  <anchor x="487" y="0" name="bottom"/>
  <anchor x="329" y="829" name="stroke"/>
  <anchor x="247" y="1059" name="top"/>
  <outline>
    <contour>
      <point x="24" y="0" type="line"/>
      <point x="460" y="0" type="line"/>
      <point x="465" y="78" type="line"/>
      <point x="370" y="107" type="line"/>
      <point x="365" y="123"/>
      <point x="362" y="189"/>
      <point x="362" y="261" type="curve" smooth="yes"/>
      <point x="362" y="495" type="line"/>
      <point x="396" y="536"/>
      <point x="439" y="556"/>
      <point x="486" y="556" type="curve" smooth="yes"/>
      <point x="556" y="556"/>
      <point x="611" y="508"/>
      <point x="611" y="391" type="curve" smooth="yes"/>
      <point x="611" y="269" type="line" smooth="yes"/>
      <point x="611" y="221"/>
      <point x="608" y="141"/>
      <point x="603" y="107" type="curve"/>
      <point x="515" y="78" type="line"/>
      <point x="520" y="0" type="line"/>
      <point x="946" y="0" type="line"/>
      <point x="951" y="78" type="line"/>
      <point x="852" y="107" type="line"/>
      <point x="847" y="123"/>
      <point x="845" y="197"/>
      <point x="845" y="268" type="curve" smooth="yes"/>
      <point x="845" y="431" type="line" smooth="yes"/>
      <point x="845" y="613"/>
      <point x="743" y="723"/>
      <point x="600" y="723" type="curve" smooth="yes"/>
      <point x="508" y="723"/>
      <point x="425" y="678"/>
      <point x="362" y="592" type="curve"/>
      <point x="357" y="593" type="line"/>
      <point x="362" y="868"/>
      <point x="365" y="963"/>
      <point x="375" y="1091" type="curve"/>
      <point x="325" y="1121" type="line"/>
      <point x="-3" y="1036" type="line"/>
      <point x="0" y="961" type="line"/>
      <point x="118" y="945" type="line"/>
      <point x="125" y="863"/>
      <point x="128" y="725"/>
      <point x="128" y="577" type="curve" smooth="yes"/>
      <point x="128" y="373" type="line" smooth="yes"/>
      <point x="128" y="290"/>
      <point x="121" y="147"/>
      <point x="118" y="107" type="curve"/>
      <point x="19" y="78" type="line"/>
    </contour>
  </outline>
</glyph>
<glyph name="k" format="2">
  <advance width="772.0"/>
  <unicode hex="006B"/>
  <outline>
    <contour>
      <point x="780.0" y="0.0" type="line"/>
      <point x="780.0" y="29.0" type="line"/>
      <point x="766.0" y="29.0"/>
      <point x="729.0" y="27.0"/>
      <point x="715.0" y="35.0" type="curve" smooth="yes"/>
      <point x="645.0" y="74.0"/>
      <point x="602.0" y="135.0"/>
      <point x="553.0" y="197.0" type="curve" smooth="yes"/>
      <point x="371.0" y="424.0" type="line"/>
      <point x="553.0" y="586.0" type="line" smooth="yes"/>
      <point x="616.0" y="643.0"/>
      <point x="659.0" y="664.0"/>
      <point x="745.0" y="668.0" type="curve"/>
      <point x="745.0" y="690.0" type="line"/>
      <point x="446.0" y="690.0" type="line"/>
      <point x="446.0" y="668.0" type="line"/>
      <point x="469.0" y="666.0"/>
      <point x="500.0" y="657.0"/>
      <point x="500.0" y="629.0" type="curve" smooth="yes"/>
      <point x="500.0" y="604.0"/>
      <point x="444.0" y="559.0"/>
      <point x="428.0" y="545.0" type="curve" smooth="yes"/>
      <point x="254.0" y="397.0" type="line"/>
      <point x="254.0" y="1071.0" type="line"/>
      <point x="219.0" y="1071.0" type="line"/>
      <point x="10.0" y="989.0" type="line"/>
      <point x="25.0" y="963.0" type="line"/>
      <point x="41.0" y="969.0"/>
      <point x="57.0" y="975.0"/>
      <point x="74.0" y="975.0" type="curve" smooth="yes"/>
      <point x="139.0" y="975.0"/>
      <point x="125.0" y="840.0"/>
      <point x="125.0" y="797.0" type="curve" smooth="yes"/>
      <point x="125.0" y="152.0" type="line" smooth="yes"/>
      <point x="125.0" y="51.0"/>
      <point x="113.0" y="29.0"/>
      <point x="10.0" y="29.0" type="curve"/>
      <point x="10.0" y="0.0" type="line"/>
      <point x="365.0" y="0.0" type="line"/>
      <point x="365.0" y="29.0" type="line"/>
      <point x="258.0" y="29.0"/>
      <point x="254.0" y="59.0"/>
      <point x="254.0" y="156.0" type="curve" smooth="yes"/>
      <point x="254.0" y="381.0" type="line"/>
      <point x="465.0" y="115.0" type="line" smooth="yes"/>
      <point x="477.0" y="98.0"/>
      <point x="494.0" y="78.0"/>
      <point x="494.0" y="55.0" type="curve" smooth="yes"/>
      <point x="494.0" y="31.0"/>
      <point x="465.0" y="29.0"/>
      <point x="446.0" y="29.0" type="curve"/>
      <point x="446.0" y="0.0" type="line"/>
    </contour>
  </outline>
</glyph>
<glyph name="l" format="2">
  <advance width="496"/>
  <unicode hex="006C"/>
  <note>
l
</note>
  <anchor x="248" y="0" name="bottom"/>
  <anchor x="248" y="540" name="center"/>
  <anchor x="556" y="540" name="dotacc"/>
  <anchor x="248" y="1059" name="top"/>
  <anchor x="433" y="1104" name="topright"/>
  <outline>
    <contour>
      <point x="19" y="0" type="line"/>
      <point x="475" y="0" type="line"/>
      <point x="478" y="81" type="line"/>
      <point x="373" y="107" type="line"/>
      <point x="369" y="130"/>
      <point x="367" y="239"/>
      <point x="367" y="396" type="curve"/>
      <point x="369" y="624" type="line" smooth="yes"/>
      <point x="370" y="858"/>
      <point x="369" y="959"/>
      <point x="378" y="1091" type="curve"/>
      <point x="329" y="1121" type="line"/>
      <point x="-3" y="1036" type="line"/>
      <point x="0" y="961" type="line"/>
      <point x="118" y="945" type="line"/>
      <point x="125" y="863"/>
      <point x="128" y="722"/>
      <point x="128" y="577" type="curve" smooth="yes"/>
      <point x="128" y="373" type="line" smooth="yes"/>
      <point x="128" y="290"/>
      <point x="121" y="147"/>
      <point x="118" y="107" type="curve"/>
      <point x="14" y="81" type="line"/>
    </contour>
  </outline>
</glyph>
<glyph name="m" format="2">
  <advance width="1418"/>
  <unicode hex="006D"/>
  <note>
m
</note>
  <anchor x="715" y="0" name="bottom"/>
  <anchor x="715" y="711" name="top"/>
  <outline>
    <contour>
      <point x="25" y="0" type="line"/>
      <point x="454" y="0" type="line"/>
      <point x="459" y="78" type="line"/>
      <point x="372" y="107" type="line"/>
      <point x="367" y="123"/>
      <point x="364" y="199"/>
      <point x="364" y="261" type="curve" smooth="yes"/>
      <point x="364" y="495" type="line"/>
      <point x="391" y="532"/>
      <point x="439" y="556"/>
      <point x="481" y="556" type="curve" smooth="yes"/>
      <point x="550" y="556"/>
      <point x="597" y="518"/>
      <point x="597" y="412" type="curve"/>
      <point x="600" y="269" type="line"/>
      <point x="600" y="221"/>
      <point x="597" y="141"/>
      <point x="592" y="107" type="curve"/>
      <point x="513" y="78" type="line"/>
      <point x="518" y="0" type="line"/>
      <point x="919" y="0" type="line"/>
      <point x="924" y="78" type="line"/>
      <point x="841" y="107" type="line"/>
      <point x="836" y="123"/>
      <point x="834" y="197"/>
      <point x="834" y="268" type="curve"/>
      <point x="831" y="433" type="line"/>
      <point x="831" y="630"/>
      <point x="720" y="723"/>
      <point x="590" y="723" type="curve" smooth="yes"/>
      <point x="507" y="723"/>
      <point x="430" y="683"/>
      <point x="362" y="593" type="curve"/>
      <point x="357" y="595" type="line"/>
      <point x="367" y="691" type="line"/>
      <point x="317" y="720" type="line"/>
      <point x="14" y="643" type="line"/>
      <point x="14" y="564" type="line"/>
      <point x="117" y="542" type="line"/>
      <point x="126" y="479"/>
      <point x="128" y="444"/>
      <point x="130" y="385" type="curve"/>
      <point x="128" y="264" type="line" smooth="yes"/>
      <point x="126" y="200"/>
      <point x="121" y="121"/>
      <point x="120" y="107" type="curve"/>
      <point x="20" y="78" type="line"/>
    </contour>
    <contour>
      <point x="982" y="0" type="line"/>
      <point x="1401" y="0" type="line"/>
      <point x="1405" y="78" type="line"/>
      <point x="1306" y="107" type="line"/>
      <point x="1300" y="123"/>
      <point x="1298" y="197"/>
      <point x="1298" y="268" type="curve"/>
      <point x="1295" y="431" type="line"/>
      <point x="1295" y="619"/>
      <point x="1186" y="723"/>
      <point x="1030" y="723" type="curve" smooth="yes"/>
      <point x="927" y="723"/>
      <point x="839" y="667"/>
      <point x="762" y="560" type="curve"/>
      <point x="816" y="503" type="line"/>
      <point x="842" y="536"/>
      <point x="890" y="556"/>
      <point x="935" y="556" type="curve" smooth="yes"/>
      <point x="1009" y="556"/>
      <point x="1060" y="513"/>
      <point x="1060" y="391" type="curve"/>
      <point x="1065" y="269" type="line"/>
      <point x="1065" y="224"/>
      <point x="1062" y="141"/>
      <point x="1057" y="107" type="curve"/>
      <point x="977" y="78" type="line"/>
    </contour>
  </outline>
</glyph>
<glyph name="n" format="2">
  <advance width="965"/>
  <unicode hex="006E"/>
  <note>
n
</note>
  <anchor x="487" y="711" name="above"/>
  <anchor x="487" y="0" name="below"/>
  <outline>
    <contour>
      <point x="24" y="0" type="line"/>
      <point x="460" y="0" type="line"/>
      <point x="465" y="78" type="line"/>
      <point x="370" y="107" type="line"/>
      <point x="365" y="123"/>
      <point x="362" y="197"/>
      <point x="362" y="261" type="curve" smooth="yes"/>
      <point x="362" y="495" type="line"/>
      <point x="396" y="536"/>
      <point x="439" y="556"/>
      <point x="486" y="556" type="curve" smooth="yes"/>
      <point x="556" y="556"/>
      <point x="611" y="508"/>
      <point x="611" y="391" type="curve" smooth="yes"/>
      <point x="611" y="269" type="line" smooth="yes"/>
      <point x="611" y="221"/>
      <point x="608" y="141"/>
      <point x="603" y="107" type="curve"/>
      <point x="515" y="78" type="line"/>
      <point x="520" y="0" type="line"/>
      <point x="946" y="0" type="line"/>
      <point x="951" y="78" type="line"/>
      <point x="852" y="107" type="line"/>
      <point x="847" y="123"/>
      <point x="845" y="197"/>
      <point x="845" y="268" type="curve" smooth="yes"/>
      <point x="845" y="431" type="line" smooth="yes"/>
      <point x="845" y="613"/>
      <point x="743" y="723"/>
      <point x="600" y="723" type="curve" smooth="yes"/>
      <point x="508" y="723"/>
      <point x="425" y="678"/>
      <point x="361" y="590" type="curve"/>
      <point x="356" y="592" type="line"/>
      <point x="365" y="691" type="line"/>
      <point x="316" y="720" type="line"/>
      <point x="12" y="643" type="line"/>
      <point x="12" y="564" type="line"/>
      <point x="115" y="542" type="line"/>
      <point x="125" y="483"/>
      <point x="128" y="451"/>
      <point x="128" y="386" type="curve"/>
      <point x="126" y="264" type="line" smooth="yes"/>
      <point x="125" y="199"/>
      <point x="120" y="121"/>
      <point x="118" y="107" type="curve"/>
      <point x="19" y="78" type="line"/>
    </contour>
  </outline>
</glyph>
<glyph name="o" format="2">
  <advance width="871"/>
  <unicode hex="006F"/>
  <note>
o
</note>
  <anchor x="436" y="711" name="above"/>
  <anchor x="436" y="0" name="below"/>
  <anchor x="436" y="356" name="center"/>
  <anchor x="550" y="0" name="ogonek"/>
  <anchor x="844" y="711" name="topright"/>
  <outline>
    <contour>
      <point x="441" y="-12" type="curve" smooth="yes"/>
      <point x="650" y="-12"/>
      <point x="818" y="152"/>
      <point x="818" y="364" type="curve" smooth="yes"/>
      <point x="818" y="574"/>
      <point x="666" y="723"/>
      <point x="447" y="723" type="curve" smooth="yes"/>
      <point x="245" y="723"/>
      <point x="51" y="589"/>
      <point x="51" y="346" type="curve" smooth="yes"/>
      <point x="51" y="136"/>
      <point x="213" y="-12"/>
    </contour>
    <contour>
      <point x="457" y="99" type="curve" smooth="yes"/>
      <point x="372" y="99"/>
      <point x="308" y="229"/>
      <point x="308" y="399" type="curve" smooth="yes"/>
      <point x="308" y="536"/>
      <point x="351" y="617"/>
      <point x="420" y="617" type="curve" smooth="yes"/>
      <point x="507" y="617"/>
      <point x="566" y="491"/>
      <point x="566" y="306" type="curve" smooth="yes"/>
      <point x="566" y="173"/>
      <point x="528" y="99"/>
    </contour>
  </outline>
</glyph>
<glyph name="s" format="2">
  <advance width="684"/>
  <unicode hex="0073"/>
  <note>
s
</note>
  <anchor x="338" y="0" name="bottom"/>
  <anchor x="341" y="711" name="top"/>
  <outline>
    <contour>
      <point x="314" y="-12" type="curve" smooth="yes"/>
      <point x="515" y="-12"/>
      <point x="650" y="80"/>
      <point x="650" y="221" type="curve" smooth="yes"/>
      <point x="650" y="319"/>
      <point x="595" y="383"/>
      <point x="454" y="436" type="curve" smooth="yes"/>
      <point x="329" y="486"/>
      <point x="290" y="510"/>
      <point x="290" y="558" type="curve" smooth="yes"/>
      <point x="290" y="601"/>
      <point x="330" y="629"/>
      <point x="390" y="629" type="curve" smooth="yes"/>
      <point x="415" y="629"/>
      <point x="451" y="621"/>
      <point x="473" y="608" type="curve"/>
      <point x="507" y="492" type="line"/>
      <point x="619" y="492" type="line"/>
      <point x="600" y="686" type="line"/>
      <point x="553" y="707"/>
      <point x="473" y="723"/>
      <point x="401" y="723" type="curve" smooth="yes"/>
      <point x="202" y="723"/>
      <point x="65" y="627"/>
      <point x="65" y="489" type="curve" smooth="yes"/>
      <point x="65" y="385"/>
      <point x="120" y="319"/>
      <point x="277" y="263" type="curve" smooth="yes"/>
      <point x="393" y="221"/>
      <point x="418" y="197"/>
      <point x="418" y="150" type="curve" smooth="yes"/>
      <point x="418" y="112"/>
      <point x="388" y="86"/>
      <point x="325" y="86" type="curve" smooth="yes"/>
      <point x="284" y="86"/>
      <point x="242" y="97"/>
      <point x="199" y="121" type="curve"/>
      <point x="165" y="237" type="line"/>
      <point x="52" y="237" type="line"/>
      <point x="60" y="43" type="line"/>
      <point x="123" y="11"/>
      <point x="219" y="-12"/>
    </contour>
  </outline>
</glyph>
<glyph name="t" format="2">
  <advance width="430.0"/>
  <unicode hex="0074"/>
  <outline>
    <contour>
      <point x="401.0" y="127.0" type="line"/>
      <point x="385.0" y="88.0"/>
      <point x="360.0" y="63.0"/>
      <point x="315.0" y="63.0" type="curve" smooth="yes"/>
      <point x="258.0" y="63.0"/>
      <point x="248.0" y="133.0"/>
      <point x="248.0" y="178.0" type="curve" smooth="yes"/>
      <point x="248.0" y="639.0" type="line"/>
      <point x="410.0" y="639.0" type="line"/>
      <point x="410.0" y="690.0" type="line"/>
      <point x="248.0" y="690.0" type="line"/>
      <point x="248.0" y="918.0" type="line"/>
      <point x="225.0" y="918.0" type="line"/>
      <point x="184.0" y="821.0"/>
      <point x="117.0" y="702.0"/>
      <point x="12.0" y="662.0" type="curve"/>
      <point x="12.0" y="639.0" type="line"/>
      <point x="121.0" y="639.0" type="line"/>
      <point x="121.0" y="160.0" type="line" smooth="yes"/>
      <point x="121.0" y="66.0"/>
      <point x="150.0" y="-23.0"/>
      <point x="258.0" y="-23.0" type="curve" smooth="yes"/>
      <point x="342.0" y="-23.0"/>
      <point x="408.0" y="51.0"/>
      <point x="430.0" y="127.0" type="curve"/>
    </contour>
  </outline>
</glyph>
<glyph name="u" format="2">
  <advance width="956"/>
  <unicode hex="0075"/>
  <note>
u
</note>
  <anchor x="475" y="0" name="bottom"/>
  <anchor x="712" y="0" name="ogonek"/>
  <anchor x="475" y="711" name="top"/>
  <anchor x="784" y="711" name="topright"/>
  <outline>
    <contour>
      <point x="836" y="155" type="line"/>
      <point x="829" y="237"/>
      <point x="829" y="285"/>
      <point x="829" y="314" type="curve" smooth="yes"/>
      <point x="829" y="447" type="line" smooth="yes"/>
      <point x="829" y="576"/>
      <point x="829" y="651"/>
      <point x="834" y="691" type="curve"/>
      <point x="784" y="720" type="line"/>
      <point x="476" y="643" type="line"/>
      <point x="476" y="564" type="line"/>
      <point x="587" y="542" type="line"/>
      <point x="593" y="479"/>
      <point x="595" y="447"/>
      <point x="595" y="359" type="curve" smooth="yes"/>
      <point x="595" y="221" type="line"/>
      <point x="566" y="174"/>
      <point x="521" y="154"/>
      <point x="483" y="154" type="curve" smooth="yes"/>
      <point x="401" y="154"/>
      <point x="353" y="203"/>
      <point x="353" y="308" type="curve"/>
      <point x="354" y="428" type="line"/>
      <point x="354" y="524"/>
      <point x="359" y="629"/>
      <point x="364" y="691" type="curve"/>
      <point x="312" y="720" type="line"/>
      <point x="1" y="643" type="line"/>
      <point x="1" y="564" type="line"/>
      <point x="110" y="542" type="line"/>
      <point x="115" y="507"/>
      <point x="117" y="467"/>
      <point x="117" y="417" type="curve" smooth="yes"/>
      <point x="117" y="280" type="line" smooth="yes"/>
      <point x="117" y="83"/>
      <point x="221" y="-17"/>
      <point x="380" y="-17" type="curve" smooth="yes"/>
      <point x="457" y="-17"/>
      <point x="536" y="17"/>
      <point x="597" y="123" type="curve"/>
      <point x="601" y="121" type="line"/>
      <point x="600" y="3" type="line"/>
      <point x="650" y="-22" type="line"/>
      <point x="943" y="59" type="line"/>
      <point x="943" y="133" type="line"/>
    </contour>
  </outline>
</glyph>
<glyph name="v" format="2">
  <advance width="816"/>
  <unicode hex="0076"/>
  <note>
v
</note>
  <anchor x="409" y="0" name="bottom"/>
  <anchor x="409" y="711" name="top"/>
  <outline>
    <contour>
      <point x="365" y="-6" type="line"/>
      <point x="442" y="-6" type="line"/>
      <point x="755" y="603" type="line"/>
      <point x="831" y="632" type="line"/>
      <point x="826" y="711" type="line"/>
      <point x="526" y="711" type="line"/>
      <point x="521" y="632" type="line"/>
      <point x="621" y="603" type="line"/>
      <point x="465" y="245" type="line"/>
      <point x="511" y="243" type="line"/>
      <point x="343" y="603" type="line"/>
      <point x="442" y="632" type="line"/>
      <point x="438" y="711" type="line"/>
      <point x="-4" y="711" type="line"/>
      <point x="-9" y="632" type="line"/>
      <point x="65" y="603" type="line"/>
    </contour>
  </outline>
</glyph>
<glyph name="w" format="2">
  <advance width="1114.0"/>
  <unicode hex="0077"/>
  <outline>
    <contour>
      <point x="1102.0" y="690.0" type="line"/>
      <point x="883.0" y="690.0" type="line"/>
      <point x="883.0" y="662.0" type="line"/>
      <point x="909.0" y="662.0"/>
      <point x="956.0" y="659.0"/>
      <point x="956.0" y="625.0" type="curve" smooth="yes"/>
      <point x="956.0" y="602.0"/>
      <point x="948.0" y="580.0"/>
      <point x="940.0" y="559.0" type="curve" smooth="yes"/>
      <point x="797.0" y="178.0" type="line"/>
      <point x="774.0" y="231.0"/>
      <point x="631.0" y="569.0"/>
      <point x="631.0" y="602.0" type="curve" smooth="yes"/>
      <point x="631.0" y="657.0"/>
      <point x="680.0" y="659.0"/>
      <point x="725.0" y="662.0" type="curve"/>
      <point x="725.0" y="690.0" type="line"/>
      <point x="395.0" y="690.0" type="line"/>
      <point x="395.0" y="662.0" type="line"/>
      <point x="506.0" y="659.0"/>
      <point x="508.0" y="580.0"/>
      <point x="543.0" y="485.0" type="curve"/>
      <point x="395.0" y="162.0" type="line"/>
      <point x="246.0" y="559.0" type="line" smooth="yes"/>
      <point x="240.0" y="575.0"/>
      <point x="236.0" y="596.0"/>
      <point x="236.0" y="614.0" type="curve" smooth="yes"/>
      <point x="236.0" y="655.0"/>
      <point x="266.0" y="662.0"/>
      <point x="299.0" y="662.0" type="curve"/>
      <point x="299.0" y="690.0" type="line"/>
      <point x="8.0" y="690.0" type="line"/>
      <point x="8.0" y="662.0" type="line"/>
      <point x="80.0" y="649.0"/>
      <point x="94.0" y="623.0"/>
      <point x="119.0" y="559.0" type="curve" smooth="yes"/>
      <point x="342.0" y="-23.0" type="line"/>
      <point x="371.0" y="-23.0" type="line"/>
      <point x="569.0" y="420.0" type="line"/>
      <point x="743.0" y="-23.0" type="line"/>
      <point x="774.0" y="-23.0" type="line"/>
      <point x="1004.0" y="575.0" type="line" smooth="yes"/>
      <point x="1022.0" y="621.0"/>
      <point x="1053.0" y="655.0"/>
      <point x="1102.0" y="662.0" type="curve"/>
    </contour>
  </outline>
</glyph>
<glyph name="x" format="2">
  <advance width="861"/>
  <unicode hex="0078"/>
  <note>
x
</note>
  <anchor x="442" y="0" name="bottom"/>
  <anchor x="442" y="711" name="top"/>
  <outline>
    <contour>
      <point x="850" y="0" type="line"/>
      <point x="855" y="78" type="line"/>
      <point x="780" y="107" type="line"/>
      <point x="548" y="393" type="line"/>
      <point x="489" y="468" type="line"/>
      <point x="380" y="603" type="line"/>
      <point x="447" y="632" type="line"/>
      <point x="442" y="711" type="line"/>
      <point x="28" y="711" type="line"/>
      <point x="24" y="632" type="line"/>
      <point x="99" y="603" type="line"/>
      <point x="303" y="349" type="line"/>
      <point x="364" y="276" type="line"/>
      <point x="500" y="107" type="line"/>
      <point x="425" y="78" type="line"/>
      <point x="430" y="0" type="line"/>
    </contour>
    <contour>
      <point x="590" y="603" type="line"/>
      <point x="489" y="468" type="line"/>
      <point x="303" y="349" type="line"/>
      <point x="94" y="107" type="line"/>
      <point x="19" y="78" type="line"/>
      <point x="24" y="0" type="line"/>
      <point x="314" y="0" type="line"/>
      <point x="319" y="78" type="line"/>
      <point x="243" y="107" type="line"/>
      <point x="364" y="276" type="line"/>
      <point x="548" y="393" type="line"/>
      <point x="736" y="603" type="line"/>
      <point x="812" y="632" type="line"/>
      <point x="807" y="711" type="line"/>
      <point x="528" y="711" type="line"/>
      <point x="523" y="632" type="line"/>
    </contour>
  </outline>
</glyph>
<glyph name="y" format="2">
  <advance width="816"/>
  <unicode hex="0079"/>
  <note>
y
</note>
  <anchor x="481" y="711" name="above"/>
  <anchor x="540" y="0" name="below"/>
  <outline>
    <contour>
      <point x="364" y="-6" type="line"/>
      <point x="510" y="243" type="line"/>
      <point x="343" y="603" type="line"/>
      <point x="442" y="632" type="line"/>
      <point x="438" y="711" type="line"/>
      <point x="-4" y="711" type="line"/>
      <point x="-9" y="632" type="line"/>
      <point x="65" y="603" type="line"/>
    </contour>
    <contour>
      <point x="826" y="711" type="line"/>
      <point x="526" y="711" type="line"/>
      <point x="521" y="632" type="line"/>
      <point x="621" y="603" type="line"/>
      <point x="462" y="245" type="line"/>
      <point x="439" y="203" type="line"/>
      <point x="240" y="-163" type="line"/>
      <point x="357" y="-91" type="line"/>
      <point x="155" y="-146" type="line" smooth="yes"/>
      <point x="72" y="-168"/>
      <point x="28" y="-213"/>
      <point x="28" y="-268" type="curve" smooth="yes"/>
      <point x="28" y="-321"/>
      <point x="77" y="-365"/>
      <point x="155" y="-365" type="curve" smooth="yes"/>
      <point x="223" y="-365"/>
      <point x="285" y="-335"/>
      <point x="346" y="-208" type="curve" smooth="yes"/>
      <point x="473" y="56" type="line"/>
      <point x="755" y="603" type="line"/>
      <point x="831" y="632" type="line"/>
    </contour>
  </outline>
</glyph>
<glyph name="z" format="2">
  <advance width="686.0"/>
  <unicode hex="007A"/>
  <anchor x="377.0" y="760.0" name="above"/>
  <outline>
    <contour>
      <point x="662.0" y="662.0" type="line"/>
      <point x="662.0" y="690.0" type="line"/>
      <point x="82.0" y="690.0" type="line"/>
      <point x="78.0" y="500.0" type="line"/>
      <point x="106.0" y="500.0" type="line"/>
      <point x="119.0" y="618.0"/>
      <point x="147.0" y="639.0"/>
      <point x="262.0" y="639.0" type="curve" smooth="yes"/>
      <point x="489.0" y="639.0" type="line"/>
      <point x="31.0" y="29.0" type="line"/>
      <point x="31.0" y="0.0" type="line"/>
      <point x="639.0" y="0.0" type="line"/>
      <point x="649.0" y="211.0" type="line"/>
      <point x="623.0" y="211.0" type="line"/>
      <point x="606.0" y="78.0"/>
      <point x="592.0" y="51.0"/>
      <point x="451.0" y="51.0" type="curve" smooth="yes"/>
      <point x="197.0" y="51.0" type="line"/>
    </contour>
  </outline>
</glyph>
<glyph name="braceleft" format="2">
  <advance width="539.0"/>
  <unicode hex="007B"/>
  <outline>
    <contour>
      <point x="412.0" y="1104.0" type="line"/>
      <point x="186.0" y="1104.0"/>
      <point x="166.0" y="969.0"/>
      <point x="166.0" y="856.0" type="curve" smooth="yes"/>
      <point x="166.0" y="487.0" type="line" smooth="yes"/>
      <point x="166.0" y="371.0"/>
      <point x="70.0" y="309.0"/>
      <point x="70.0" y="307.0" type="curve" smooth="yes"/>
      <point x="70.0" y="299.0"/>
      <point x="166.0" y="225.0"/>
      <point x="166.0" y="125.0" type="curve" smooth="yes"/>
      <point x="166.0" y="-250.0" type="line" smooth="yes"/>
      <point x="166.0" y="-372.0"/>
      <point x="183.0" y="-481.0"/>
      <point x="418.0" y="-481.0" type="curve"/>
      <point x="418.0" y="-420.0" type="line"/>
      <point x="268.0" y="-418.0"/>
      <point x="240.0" y="-377.0"/>
      <point x="240.0" y="-250.0" type="curve" smooth="yes"/>
      <point x="240.0" y="125.0" type="line" smooth="yes"/>
      <point x="240.0" y="225.0"/>
      <point x="152.0" y="307.0"/>
      <point x="152.0" y="307.0" type="curve"/>
      <point x="152.0" y="311.0"/>
      <point x="240.0" y="379.0"/>
      <point x="240.0" y="487.0" type="curve" smooth="yes"/>
      <point x="240.0" y="856.0" type="line" smooth="yes"/>
      <point x="240.0" y="981.0"/>
      <point x="254.0" y="1034.0"/>
      <point x="414.0" y="1034.0" type="curve"/>
    </contour>
  </outline>
</glyph>
<glyph name="bar" format="2">
  <advance width="428"/>
  <unicode hex="007C"/>
  <note>
bar
</note>
  <outline>
    <contour>
      <point x="138" y="-353" type="line"/>
      <point x="290" y="-353" type="line"/>
      <point x="290" y="1158" type="line"/>
      <point x="138" y="1158" type="line"/>
    </contour>
  </outline>
</glyph>
<glyph name="exclamdown" format="2">
  <advance width="488"/>
  <unicode hex="00A1"/>
  <note>
exclamdown
</note>
  <outline>
    <contour>
      <point x="194" y="322" type="line"/>
      <point x="85" y="-93" type="line" smooth="yes"/>
      <point x="49" y="-247"/>
      <point x="117" y="-365"/>
      <point x="243" y="-365" type="curve" smooth="yes"/>
      <point x="372" y="-365"/>
      <point x="438" y="-247"/>
      <point x="404" y="-93" type="curve" smooth="yes"/>
      <point x="295" y="322" type="line"/>
    </contour>
    <contour>
      <point x="243" y="723" type="curve" smooth="yes"/>
      <point x="150" y="723"/>
      <point x="77" y="650"/>
      <point x="77" y="561" type="curve" smooth="yes"/>
      <point x="77" y="468"/>
      <point x="152" y="394"/>
      <point x="243" y="394" type="curve" smooth="yes"/>
      <point x="337" y="394"/>
      <point x="410" y="468"/>
      <point x="410" y="561" type="curve" smooth="yes"/>
      <point x="410" y="653"/>
      <point x="337" y="723"/>
    </contour>
  </outline>
</glyph>
<glyph name="cent" format="2">
  <advance width="772.0"/>
  <unicode hex="00A2"/>
  <outline>
    <contour>
      <point x="655.0" y="272.0" type="line"/>
      <point x="616.0" y="180.0"/>
      <point x="553.0" y="98.0"/>
      <point x="442.0" y="98.0" type="curve" smooth="yes"/>
      <point x="403.0" y="98.0"/>
      <point x="365.0" y="111.0"/>
      <point x="332.0" y="133.0" type="curve"/>
      <point x="500.0" y="594.0" type="line"/>
      <point x="518.0" y="539.0"/>
      <point x="504.0" y="481.0"/>
      <point x="588.0" y="481.0" type="curve" smooth="yes"/>
      <point x="631.0" y="481.0"/>
      <point x="659.0" y="500.0"/>
      <point x="659.0" y="545.0" type="curve" smooth="yes"/>
      <point x="659.0" y="608.0"/>
      <point x="590.0" y="668.0"/>
      <point x="537.0" y="690.0" type="curve"/>
      <point x="647.0" y="999.0" type="line"/>
      <point x="594.0" y="999.0" type="line"/>
      <point x="487.0" y="705.0" type="line"/>
      <point x="467.0" y="709.0"/>
      <point x="446.0" y="711.0"/>
      <point x="424.0" y="711.0" type="curve" smooth="yes"/>
      <point x="221.0" y="711.0"/>
      <point x="94.0" y="537.0"/>
      <point x="94.0" y="344.0" type="curve" smooth="yes"/>
      <point x="94.0" y="217.0"/>
      <point x="133.0" y="98.0"/>
      <point x="240.0" y="25.0" type="curve"/>
      <point x="127.0" y="-285.0" type="line"/>
      <point x="180.0" y="-285.0" type="line"/>
      <point x="283.0" y="0.0" type="line"/>
      <point x="317.0" y="-14.0"/>
      <point x="352.0" y="-23.0"/>
      <point x="389.0" y="-23.0" type="curve" smooth="yes"/>
      <point x="545.0" y="-23.0"/>
      <point x="655.0" y="119.0"/>
      <point x="678.0" y="262.0" type="curve"/>
    </contour>
    <contour>
      <point x="293.0" y="170.0" type="line"/>
      <point x="236.0" y="238.0"/>
      <point x="219.0" y="326.0"/>
      <point x="219.0" y="410.0" type="curve" smooth="yes"/>
      <point x="219.0" y="522.0"/>
      <point x="266.0" y="662.0"/>
      <point x="399.0" y="662.0" type="curve" smooth="yes"/>
      <point x="422.0" y="662.0"/>
      <point x="444.0" y="657.0"/>
      <point x="465.0" y="645.0" type="curve"/>
    </contour>
  </outline>
</glyph>
<glyph name="sterling" format="2">
  <advance width="772.0"/>
  <unicode hex="00A3"/>
  <outline>
    <contour>
      <point x="709.0" y="236.0" type="line"/>
      <point x="686.0" y="156.0"/>
      <point x="633.0" y="115.0"/>
      <point x="549.0" y="115.0" type="curve" smooth="yes"/>
      <point x="492.0" y="115.0"/>
      <point x="360.0" y="158.0"/>
      <point x="305.0" y="176.0" type="curve"/>
      <point x="346.0" y="285.0"/>
      <point x="350.0" y="383.0"/>
      <point x="350.0" y="498.0" type="curve"/>
      <point x="545.0" y="498.0" type="line"/>
      <point x="545.0" y="569.0" type="line"/>
      <point x="350.0" y="569.0" type="line"/>
      <point x="344.0" y="641.0"/>
      <point x="334.0" y="717.0"/>
      <point x="334.0" y="791.0" type="curve" smooth="yes"/>
      <point x="334.0" y="883.0"/>
      <point x="354.0" y="1001.0"/>
      <point x="471.0" y="1001.0" type="curve" smooth="yes"/>
      <point x="627.0" y="1001.0"/>
      <point x="512.0" y="827.0"/>
      <point x="623.0" y="827.0" type="curve" smooth="yes"/>
      <point x="653.0" y="827.0"/>
      <point x="680.0" y="860.0"/>
      <point x="680.0" y="889.0" type="curve" smooth="yes"/>
      <point x="680.0" y="989.0"/>
      <point x="580.0" y="1044.0"/>
      <point x="489.0" y="1044.0" type="curve" smooth="yes"/>
      <point x="309.0" y="1044.0"/>
      <point x="209.0" y="885.0"/>
      <point x="209.0" y="719.0" type="curve" smooth="yes"/>
      <point x="209.0" y="668.0"/>
      <point x="217.0" y="618.0"/>
      <point x="219.0" y="569.0" type="curve"/>
      <point x="74.0" y="569.0" type="line"/>
      <point x="74.0" y="498.0" type="line"/>
      <point x="219.0" y="498.0" type="line"/>
      <point x="227.0" y="412.0"/>
      <point x="236.0" y="326.0"/>
      <point x="236.0" y="240.0" type="curve" smooth="yes"/>
      <point x="236.0" y="223.0"/>
      <point x="236.0" y="207.0"/>
      <point x="233.0" y="190.0" type="curve"/>
      <point x="213.0" y="195.0"/>
      <point x="190.0" y="197.0"/>
      <point x="170.0" y="197.0" type="curve" smooth="yes"/>
      <point x="98.0" y="197.0"/>
      <point x="45.0" y="152.0"/>
      <point x="45.0" y="78.0" type="curve" smooth="yes"/>
      <point x="45.0" y="20.0"/>
      <point x="72.0" y="-18.0"/>
      <point x="133.0" y="-18.0" type="curve" smooth="yes"/>
      <point x="203.0" y="-18.0"/>
      <point x="248.0" y="47.0"/>
      <point x="274.0" y="104.0" type="curve"/>
      <point x="350.0" y="49.0"/>
      <point x="422.0" y="-18.0"/>
      <point x="520.0" y="-18.0" type="curve" smooth="yes"/>
      <point x="651.0" y="-18.0"/>
      <point x="723.0" y="113.0"/>
      <point x="737.0" y="229.0" type="curve"/>
    </contour>
    <contour>
      <point x="225.0" y="129.0" type="curve"/>
      <point x="215.0" y="88.0"/>
      <point x="193.0" y="27.0"/>
      <point x="139.0" y="27.0" type="curve" smooth="yes"/>
      <point x="102.0" y="27.0"/>
      <point x="90.0" y="51.0"/>
      <point x="90.0" y="84.0" type="curve" smooth="yes"/>
      <point x="90.0" y="131.0"/>
      <point x="117.0" y="150.0"/>
      <point x="160.0" y="150.0" type="curve" smooth="yes"/>
      <point x="184.0" y="150.0"/>
      <point x="207.0" y="143.0"/>
    </contour>
  </outline>
</glyph>
<glyph name="currency" format="2">
  <advance width="866"/>
  <unicode hex="00A4"/>
  <note>
currency
</note>
  <outline>
    <contour>
      <point x="428" y="165" type="curve" smooth="yes"/>
      <point x="624" y="165"/>
      <point x="781" y="329"/>
      <point x="781" y="526" type="curve" smooth="yes"/>
      <point x="781" y="727"/>
      <point x="624" y="890"/>
      <point x="428" y="890" type="curve" smooth="yes"/>
      <point x="231" y="890"/>
      <point x="73" y="727"/>
      <point x="73" y="526" type="curve" smooth="yes"/>
      <point x="73" y="329"/>
      <point x="231" y="165"/>
    </contour>
    <contour>
      <point x="109" y="104" type="line"/>
      <point x="311" y="309" type="line"/>
      <point x="218" y="401" type="line"/>
      <point x="17" y="194" type="line"/>
    </contour>
    <contour>
      <point x="754" y="105" type="line"/>
      <point x="845" y="194" type="line"/>
      <point x="621" y="422" type="line"/>
      <point x="540" y="324" type="line"/>
    </contour>
    <contour>
      <point x="428" y="264" type="curve" smooth="yes"/>
      <point x="357" y="264"/>
      <point x="303" y="383"/>
      <point x="303" y="529" type="curve" smooth="yes"/>
      <point x="303" y="675"/>
      <point x="359" y="792"/>
      <point x="428" y="792" type="curve" smooth="yes"/>
      <point x="495" y="789"/>
      <point x="552" y="675"/>
      <point x="552" y="529" type="curve" smooth="yes"/>
      <point x="552" y="383"/>
      <point x="495" y="264"/>
    </contour>
    <contour>
      <point x="186" y="686" type="line"/>
      <point x="285" y="772" type="line"/>
      <point x="109" y="953" type="line"/>
      <point x="17" y="860" type="line"/>
    </contour>
    <contour>
      <point x="659" y="666" type="line"/>
      <point x="847" y="857" type="line"/>
      <point x="747" y="956" type="line"/>
      <point x="558" y="760" type="line"/>
    </contour>
  </outline>
</glyph>
<glyph name="brokenbar" format="2">
  <advance width="467.0"/>
  <unicode hex="00A6"/>
  <outline>
    <contour>
      <point x="272.0" y="500.0" type="line"/>
      <point x="272.0" y="1094.0" type="line"/>
      <point x="197.0" y="1094.0" type="line"/>
      <point x="197.0" y="500.0" type="line"/>
    </contour>
    <contour>
      <point x="272.0" y="-295.0" type="line"/>
      <point x="272.0" y="299.0" type="line"/>
      <point x="197.0" y="299.0" type="line"/>
      <point x="197.0" y="-295.0" type="line"/>
    </contour>
  </outline>
</glyph>
<glyph name="section" format="2">
  <advance width="772.0"/>
  <unicode hex="00A7"/>
  <outline>
    <contour>
      <point x="655.0" y="362.0" type="curve"/>
      <point x="655.0" y="616.0"/>
      <point x="272.0" y="686.0"/>
      <point x="272.0" y="881.0" type="curve" smooth="yes"/>
      <point x="272.0" y="956.0"/>
      <point x="328.0" y="1012.0"/>
      <point x="403.0" y="1012.0" type="curve" smooth="yes"/>
      <point x="453.0" y="1012.0"/>
      <point x="487.0" y="993.0"/>
      <point x="487.0" y="940.0" type="curve" smooth="yes"/>
      <point x="487.0" y="915.0"/>
      <point x="477.0" y="891.0"/>
      <point x="477.0" y="866.0" type="curve" smooth="yes"/>
      <point x="477.0" y="836.0"/>
      <point x="506.0" y="809.0"/>
      <point x="537.0" y="809.0" type="curve" smooth="yes"/>
      <point x="580.0" y="809.0"/>
      <point x="596.0" y="838.0"/>
      <point x="596.0" y="877.0" type="curve" smooth="yes"/>
      <point x="596.0" y="983.0"/>
      <point x="502.0" y="1044.0"/>
      <point x="403.0" y="1044.0" type="curve" smooth="yes"/>
      <point x="287.0" y="1044.0"/>
      <point x="190.0" y="948.0"/>
      <point x="190.0" y="831.0" type="curve" smooth="yes"/>
      <point x="190.0" y="760.0"/>
      <point x="240.0" y="688.0"/>
      <point x="283.0" y="635.0" type="curve"/>
      <point x="188.0" y="578.0"/>
      <point x="117.0" y="496.0"/>
      <point x="117.0" y="381.0" type="curve" smooth="yes"/>
      <point x="117.0" y="129.0"/>
      <point x="504.0" y="45.0"/>
      <point x="504.0" y="-150.0" type="curve" smooth="yes"/>
      <point x="504.0" y="-213.0"/>
      <point x="434.0" y="-272.0"/>
      <point x="371.0" y="-272.0" type="curve" smooth="yes"/>
      <point x="338.0" y="-272.0"/>
      <point x="281.0" y="-256.0"/>
      <point x="281.0" y="-213.0" type="curve" smooth="yes"/>
      <point x="281.0" y="-186.0"/>
      <point x="295.0" y="-158.0"/>
      <point x="295.0" y="-131.0" type="curve" smooth="yes"/>
      <point x="295.0" y="-98.0"/>
      <point x="272.0" y="-66.0"/>
      <point x="236.0" y="-66.0" type="curve" smooth="yes"/>
      <point x="199.0" y="-66.0"/>
      <point x="178.0" y="-98.0"/>
      <point x="178.0" y="-133.0" type="curve" smooth="yes"/>
      <point x="178.0" y="-233.0"/>
      <point x="268.0" y="-301.0"/>
      <point x="365.0" y="-301.0" type="curve" smooth="yes"/>
      <point x="489.0" y="-301.0"/>
      <point x="580.0" y="-209.0"/>
      <point x="580.0" y="-86.0" type="curve" smooth="yes"/>
      <point x="580.0" y="-12.0"/>
      <point x="537.0" y="53.0"/>
      <point x="489.0" y="104.0" type="curve"/>
      <point x="584.0" y="164.0"/>
      <point x="655.0" y="246.0"/>
    </contour>
    <contour>
      <point x="309.0" y="612.0" type="curve"/>
      <point x="399.0" y="537.0"/>
      <point x="578.0" y="426.0"/>
      <point x="578.0" y="295.0" type="curve" smooth="yes"/>
      <point x="578.0" y="219.0"/>
      <point x="522.0" y="164.0"/>
      <point x="463.0" y="127.0" type="curve"/>
      <point x="379.0" y="225.0"/>
      <point x="193.0" y="289.0"/>
      <point x="193.0" y="444.0" type="curve" smooth="yes"/>
      <point x="193.0" y="520.0"/>
      <point x="246.0" y="575.0"/>
    </contour>
  </outline>
</glyph>
<glyph name="dieresis" format="2">
  <advance width="461.0"/>
  <unicode hex="00A8"/>
  <anchor x="242.0" y="770.0" name="_above"/>
  <outline>
    <contour>
      <point x="461.0" y="926.0" type="curve"/>
      <point x="461.0" y="967.0"/>
      <point x="426.0" y="1001.0"/>
      <point x="385.0" y="1001.0" type="curve" smooth="yes"/>
      <point x="346.0" y="1001.0"/>
      <point x="307.0" y="965.0"/>
      <point x="307.0" y="926.0" type="curve" smooth="yes"/>
      <point x="307.0" y="885.0"/>
      <point x="344.0" y="848.0"/>
      <point x="385.0" y="848.0" type="curve" smooth="yes"/>
      <point x="426.0" y="848.0"/>
      <point x="461.0" y="883.0"/>
    </contour>
    <contour>
      <point x="154.0" y="926.0" type="curve"/>
      <point x="154.0" y="967.0"/>
      <point x="117.0" y="1001.0"/>
      <point x="76.0" y="1001.0" type="curve" smooth="yes"/>
      <point x="37.0" y="1001.0"/>
      <point x="0.0" y="965.0"/>
      <point x="0.0" y="926.0" type="curve" smooth="yes"/>
      <point x="0.0" y="885.0"/>
      <point x="35.0" y="848.0"/>
      <point x="76.0" y="848.0" type="curve" smooth="yes"/>
      <point x="117.0" y="848.0"/>
      <point x="154.0" y="883.0"/>
    </contour>
  </outline>
</glyph>
<glyph name="copyright" format="2">
  <advance width="1313"/>
  <unicode hex="00A9"/>
  <outline>
    <contour>
      <point x="658" y="-19" type="curve" smooth="yes"/>
      <point x="988" y="-19"/>
      <point x="1245" y="232"/>
      <point x="1245" y="560" type="curve" smooth="yes"/>
      <point x="1245" y="889"/>
      <point x="988" y="1139"/>
      <point x="658" y="1139" type="curve" smooth="yes"/>
      <point x="325" y="1139"/>
      <point x="67" y="889"/>
      <point x="67" y="560" type="curve" smooth="yes"/>
      <point x="67" y="232"/>
      <point x="327" y="-19"/>
    </contour>
    <contour>
      <point x="686" y="245" type="curve" smooth="yes"/>
      <point x="784" y="245"/>
      <point x="889" y="277"/>
      <point x="927" y="306" type="curve"/>
      <point x="963" y="459" type="line"/>
      <point x="858" y="470" type="line"/>
      <point x="829" y="369" type="line"/>
      <point x="804" y="348"/>
      <point x="765" y="340"/>
      <point x="743" y="340" type="curve" smooth="yes"/>
      <point x="651" y="340"/>
      <point x="574" y="439"/>
      <point x="574" y="584" type="curve" smooth="yes"/>
      <point x="574" y="735"/>
      <point x="646" y="796"/>
      <point x="722" y="796" type="curve" smooth="yes"/>
      <point x="743" y="796"/>
      <point x="762" y="794"/>
      <point x="784" y="784" type="curve"/>
      <point x="831" y="661" type="line"/>
      <point x="922" y="664" type="line"/>
      <point x="914" y="847" type="line"/>
      <point x="871" y="868"/>
      <point x="800" y="887"/>
      <point x="720" y="887" type="curve" smooth="yes"/>
      <point x="523" y="887"/>
      <point x="322" y="786"/>
      <point x="322" y="548" type="curve" smooth="yes"/>
      <point x="322" y="365"/>
      <point x="460" y="245"/>
    </contour>
    <contour>
      <point x="658" y="65" type="curve" smooth="yes"/>
      <point x="378" y="65"/>
      <point x="163" y="280"/>
      <point x="163" y="561" type="curve" smooth="yes"/>
      <point x="163" y="841"/>
      <point x="378" y="1054"/>
      <point x="658" y="1054" type="curve" smooth="yes"/>
      <point x="935" y="1054"/>
      <point x="1152" y="841"/>
      <point x="1152" y="561" type="curve" smooth="yes"/>
      <point x="1152" y="280"/>
      <point x="935" y="65"/>
    </contour>
  </outline>
</glyph>
<glyph name="ordfeminine" format="2">
  <advance width="698"/>
  <unicode hex="00AA"/>
  <note>
ordfeminine
</note>
  <outline>
    <contour>
      <point x="242" y="353" type="curve" smooth="yes"/>
      <point x="293" y="353"/>
      <point x="353" y="383"/>
      <point x="409" y="465" type="curve"/>
      <point x="380" y="475" type="line"/>
      <point x="412" y="415" type="line" smooth="yes"/>
      <point x="434" y="375"/>
      <point x="455" y="353"/>
      <point x="499" y="353" type="curve" smooth="yes"/>
      <point x="523" y="353"/>
      <point x="544" y="359"/>
      <point x="584" y="375" type="curve" smooth="yes"/>
      <point x="694" y="426" type="line"/>
      <point x="694" y="494" type="line"/>
      <point x="606" y="515" type="line"/>
      <point x="597" y="540"/>
      <point x="593" y="572"/>
      <point x="593" y="614" type="curve"/>
      <point x="593" y="746" type="line"/>
      <point x="595" y="874"/>
      <point x="499" y="954"/>
      <point x="317" y="954" type="curve"/>
      <point x="261" y="950"/>
      <point x="57" y="860"/>
      <point x="57" y="773" type="curve" smooth="yes"/>
      <point x="57" y="730"/>
      <point x="121" y="690"/>
      <point x="227" y="707" type="curve"/>
      <point x="235" y="802" type="line" smooth="yes"/>
      <point x="237" y="824"/>
      <point x="245" y="834"/>
      <point x="268" y="834" type="curve" smooth="yes"/>
      <point x="321" y="834"/>
      <point x="372" y="797"/>
      <point x="372" y="733" type="curve" smooth="yes"/>
      <point x="372" y="706" type="line"/>
      <point x="154" y="656" type="line" smooth="yes"/>
      <point x="75" y="638"/>
      <point x="46" y="589"/>
      <point x="46" y="528" type="curve" smooth="yes"/>
      <point x="46" y="451"/>
      <point x="123" y="353"/>
    </contour>
    <contour>
      <point x="348" y="494" type="curve" smooth="yes"/>
      <point x="290" y="494"/>
      <point x="266" y="524"/>
      <point x="266" y="561" type="curve" smooth="yes"/>
      <point x="266" y="595"/>
      <point x="287" y="614"/>
      <point x="319" y="619" type="curve" smooth="yes"/>
      <point x="375" y="629" type="line"/>
      <point x="375" y="502" type="line"/>
      <point x="364" y="495"/>
      <point x="354" y="494"/>
    </contour>
  </outline>
</glyph>
<glyph name="guillemetleft" format="2">
  <advance width="582"/>
  <unicode hex="00AB"/>
  <guideline x="187" y="-82" angle="37.0885"/>
  <outline>
    <component base="guilsinglleft"/>
    <contour>
      <point x="532" y="179" type="line"/>
      <point x="456" y="267"/>
      <point x="395" y="375"/>
      <point x="395" y="482" type="curve" smooth="yes"/>
      <point x="395" y="534"/>
      <point x="409" y="585"/>
      <point x="443" y="634" type="curve"/>
      <point x="438" y="638" type="line"/>
      <point x="352" y="561"/>
      <point x="310" y="445"/>
      <point x="310" y="330" type="curve" smooth="yes"/>
      <point x="310" y="237"/>
      <point x="338" y="144"/>
      <point x="392" y="73" type="curve"/>
    </contour>
  </outline>
</glyph>
<glyph name="logicalnot" format="2">
  <advance width="922.0"/>
  <unicode hex="00AC"/>
  <outline>
    <contour>
      <point x="862.0" y="281.0" type="line"/>
      <point x="862.0" y="625.0" type="line"/>
      <point x="59.0" y="625.0" type="line"/>
      <point x="59.0" y="535.0" type="line"/>
      <point x="772.0" y="535.0" type="line"/>
      <point x="772.0" y="281.0" type="line"/>
    </contour>
  </outline>
</glyph>
<glyph name="registered" format="2">
  <advance width="1313"/>
  <unicode hex="00AE"/>
  <outline>
    <contour>
      <point x="343" y="324" type="line"/>
      <point x="348" y="251" type="line"/>
      <point x="677" y="251" type="line"/>
      <point x="682" y="324" type="line"/>
      <point x="633" y="345" type="line"/>
      <point x="633" y="364"/>
      <point x="630" y="460"/>
      <point x="630" y="520" type="curve" smooth="yes"/>
      <point x="630" y="813" type="line"/>
      <point x="653" y="813" type="line" smooth="yes"/>
      <point x="702" y="813"/>
      <point x="744" y="791"/>
      <point x="744" y="711" type="curve" smooth="yes"/>
      <point x="744" y="633"/>
      <point x="694" y="601"/>
      <point x="645" y="601" type="curve" smooth="yes"/>
      <point x="640" y="601"/>
      <point x="630" y="601"/>
      <point x="624" y="601" type="curve"/>
      <point x="624" y="532" type="line"/>
      <point x="685" y="532" type="line" smooth="yes"/>
      <point x="847" y="532"/>
      <point x="969" y="608"/>
      <point x="969" y="712" type="curve" smooth="yes"/>
      <point x="969" y="849"/>
      <point x="853" y="889"/>
      <point x="675" y="889" type="curve"/>
      <point x="340" y="889" type="line"/>
      <point x="335" y="816" type="line"/>
      <point x="407" y="796" type="line"/>
      <point x="415" y="788"/>
      <point x="418" y="686"/>
      <point x="418" y="624" type="curve" smooth="yes"/>
      <point x="418" y="520" type="line" smooth="yes"/>
      <point x="418" y="460"/>
      <point x="417" y="354"/>
      <point x="415" y="345" type="curve"/>
    </contour>
    <contour>
      <point x="934" y="243" type="curve" smooth="yes"/>
      <point x="966" y="243"/>
      <point x="990" y="245"/>
      <point x="1020" y="253" type="curve"/>
      <point x="1033" y="317" type="line"/>
      <point x="982" y="338"/>
      <point x="950" y="372"/>
      <point x="930" y="402" type="curve" smooth="yes"/>
      <point x="823" y="585" type="line"/>
      <point x="645" y="548" type="line"/>
      <point x="696" y="418" type="line" smooth="yes"/>
      <point x="744" y="295"/>
      <point x="792" y="243"/>
    </contour>
    <contour>
      <point x="658" y="-19" type="curve" smooth="yes"/>
      <point x="988" y="-19"/>
      <point x="1245" y="232"/>
      <point x="1245" y="560" type="curve" smooth="yes"/>
      <point x="1245" y="889"/>
      <point x="988" y="1139"/>
      <point x="658" y="1139" type="curve" smooth="yes"/>
      <point x="325" y="1139"/>
      <point x="67" y="889"/>
      <point x="67" y="560" type="curve" smooth="yes"/>
      <point x="67" y="232"/>
      <point x="327" y="-19"/>
    </contour>
    <contour>
      <point x="658" y="65" type="curve" smooth="yes"/>
      <point x="378" y="65"/>
      <point x="163" y="280"/>
      <point x="163" y="561" type="curve" smooth="yes"/>
      <point x="163" y="841"/>
      <point x="378" y="1054"/>
      <point x="658" y="1054" type="curve" smooth="yes"/>
      <point x="935" y="1054"/>
      <point x="1152" y="841"/>
      <point x="1152" y="561" type="curve" smooth="yes"/>
      <point x="1152" y="280"/>
      <point x="935" y="65"/>
    </contour>
  </outline>
</glyph>
<glyph name="degree" format="2">
  <advance width="661"/>
  <unicode hex="00B0"/>
  <note>
degree
</note>
  <outline>
    <contour>
      <point x="330" y="486" type="curve" smooth="yes"/>
      <point x="467" y="486"/>
      <point x="574" y="585"/>
      <point x="574" y="720" type="curve" smooth="yes"/>
      <point x="574" y="860"/>
      <point x="467" y="959"/>
      <point x="330" y="959" type="curve" smooth="yes"/>
      <point x="194" y="959"/>
      <point x="86" y="860"/>
      <point x="86" y="720" type="curve" smooth="yes"/>
      <point x="86" y="585"/>
      <point x="194" y="486"/>
    </contour>
    <contour>
      <point x="330" y="598" type="curve" smooth="yes"/>
      <point x="263" y="598"/>
      <point x="211" y="650"/>
      <point x="211" y="720" type="curve" smooth="yes"/>
      <point x="211" y="796"/>
      <point x="263" y="845"/>
      <point x="330" y="845" type="curve" smooth="yes"/>
      <point x="399" y="845"/>
      <point x="451" y="796"/>
      <point x="451" y="720" type="curve" smooth="yes"/>
      <point x="451" y="650"/>
      <point x="399" y="598"/>
    </contour>
  </outline>
</glyph>
<glyph name="twosuperior" format="2">
  <advance width="543.0"/>
  <unicode hex="00B2"/>
  <outline>
    <contour>
      <point x="504.0" y="506.0" type="line"/>
      <point x="483.0" y="506.0" type="line"/>
      <point x="438.0" y="451.0"/>
      <point x="391.0" y="457.0"/>
      <point x="328.0" y="457.0" type="curve" smooth="yes"/>
      <point x="133.0" y="457.0" type="line"/>
      <point x="233.0" y="537.0"/>
      <point x="459.0" y="717.0"/>
      <point x="459.0" y="852.0" type="curve" smooth="yes"/>
      <point x="459.0" y="961.0"/>
      <point x="342.0" y="1014.0"/>
      <point x="248.0" y="1014.0" type="curve" smooth="yes"/>
      <point x="131.0" y="1014.0"/>
      <point x="57.0" y="958.0"/>
      <point x="41.0" y="840.0" type="curve"/>
      <point x="59.0" y="840.0" type="line"/>
      <point x="88.0" y="913.0"/>
      <point x="143.0" y="944.0"/>
      <point x="219.0" y="944.0" type="curve" smooth="yes"/>
      <point x="299.0" y="944.0"/>
      <point x="365.0" y="895.0"/>
      <point x="365.0" y="811.0" type="curve" smooth="yes"/>
      <point x="365.0" y="659.0"/>
      <point x="127.0" y="489.0"/>
      <point x="18.0" y="403.0" type="curve"/>
      <point x="18.0" y="387.0" type="line"/>
      <point x="451.0" y="387.0" type="line"/>
    </contour>
  </outline>
</glyph>
<glyph name="acute" format="2">
  <advance width="528.0"/>
  <unicode hex="00B4"/>
  <anchor x="227.0" y="760.0" name="_above"/>
  <outline>
    <contour>
      <point x="434.0" y="1001.0" type="curve"/>
      <point x="434.0" y="1020.0"/>
      <point x="414.0" y="1051.0"/>
      <point x="395.0" y="1051.0" type="curve" smooth="yes"/>
      <point x="358.0" y="1051.0"/>
      <point x="326.0" y="1026.0"/>
      <point x="301.0" y="1001.0" type="curve" smooth="yes"/>
      <point x="88.0" y="786.0" type="line"/>
      <point x="150.0" y="786.0" type="line"/>
      <point x="373.0" y="926.0" type="line" smooth="yes"/>
      <point x="397.0" y="942.0"/>
      <point x="434.0" y="969.0"/>
    </contour>
  </outline>
</glyph>
<glyph name="periodcentered" format="2">
  <advance width="506"/>
  <unicode hex="00B7"/>
  <note>
periodcentered
</note>
  <outline>
    <contour>
      <point x="253" y="194" type="curve" smooth="yes"/>
      <point x="345" y="194"/>
      <point x="420" y="266"/>
      <point x="420" y="357" type="curve" smooth="yes"/>
      <point x="420" y="449"/>
      <point x="345" y="526"/>
      <point x="253" y="526" type="curve" smooth="yes"/>
      <point x="162" y="526"/>
      <point x="85" y="449"/>
      <point x="85" y="357" type="curve" smooth="yes"/>
      <point x="85" y="266"/>
      <point x="162" y="194"/>
    </contour>
  </outline>
</glyph>
<glyph name="cedilla" format="2">
  <advance width="362.0"/>
  <unicode hex="00B8"/>
  <anchor x="154.0" y="-50.0" name="_below"/>
  <outline>
    <contour>
      <point x="342.0" y="-203.0" type="curve"/>
      <point x="342.0" y="-129.0"/>
      <point x="281.0" y="-96.0"/>
      <point x="213.0" y="-96.0" type="curve" smooth="yes"/>
      <point x="199.0" y="-96.0"/>
      <point x="184.0" y="-98.0"/>
      <point x="170.0" y="-100.0" type="curve"/>
      <point x="209.0" y="0.0" type="line"/>
      <point x="154.0" y="0.0" type="line"/>
      <point x="90.0" y="-154.0" type="line"/>
      <point x="100.0" y="-162.0" type="line"/>
      <point x="119.0" y="-156.0"/>
      <point x="137.0" y="-154.0"/>
      <point x="156.0" y="-154.0" type="curve" smooth="yes"/>
      <point x="197.0" y="-154.0"/>
      <point x="227.0" y="-168.0"/>
      <point x="227.0" y="-213.0" type="curve" smooth="yes"/>
      <point x="227.0" y="-266.0"/>
      <point x="182.0" y="-279.0"/>
      <point x="137.0" y="-279.0" type="curve" smooth="yes"/>
      <point x="104.0" y="-279.0"/>
      <point x="72.0" y="-272.0"/>
      <point x="41.0" y="-260.0" type="curve"/>
      <point x="18.0" y="-309.0" type="line"/>
      <point x="59.0" y="-324.0"/>
      <point x="102.0" y="-332.0"/>
      <point x="143.0" y="-332.0" type="curve" smooth="yes"/>
      <point x="221.0" y="-332.0"/>
      <point x="342.0" y="-299.0"/>
    </contour>
  </outline>
</glyph>
<glyph name="onesuperior" format="2">
  <advance width="543.0"/>
  <unicode hex="00B9"/>
  <outline>
    <contour>
      <point x="414.0" y="387.0" type="line"/>
      <point x="414.0" y="403.0" type="line"/>
      <point x="332.0" y="403.0"/>
      <point x="322.0" y="412.0"/>
      <point x="322.0" y="496.0" type="curve" smooth="yes"/>
      <point x="322.0" y="1014.0" type="line"/>
      <point x="303.0" y="1014.0" type="line"/>
      <point x="125.0" y="942.0" type="line"/>
      <point x="133.0" y="926.0" type="line"/>
      <point x="150.0" y="934.0"/>
      <point x="170.0" y="940.0"/>
      <point x="188.0" y="940.0" type="curve" smooth="yes"/>
      <point x="240.0" y="940.0"/>
      <point x="231.0" y="877.0"/>
      <point x="231.0" y="842.0" type="curve" smooth="yes"/>
      <point x="231.0" y="496.0" type="line" smooth="yes"/>
      <point x="231.0" y="412.0"/>
      <point x="219.0" y="403.0"/>
      <point x="137.0" y="403.0" type="curve"/>
      <point x="137.0" y="387.0" type="line"/>
    </contour>
  </outline>
</glyph>
<glyph name="ordmasculine" format="2">
  <advance width="726"/>
  <unicode hex="00BA"/>
  <note>
ordmasculine
</note>
  <outline>
    <contour>
      <point x="367" y="353" type="curve" smooth="yes"/>
      <point x="544" y="353"/>
      <point x="683" y="489"/>
      <point x="683" y="662" type="curve" smooth="yes"/>
      <point x="683" y="831"/>
      <point x="553" y="954"/>
      <point x="373" y="954" type="curve" smooth="yes"/>
      <point x="176" y="954"/>
      <point x="41" y="821"/>
      <point x="41" y="640" type="curve" smooth="yes"/>
      <point x="41" y="473"/>
      <point x="178" y="353"/>
    </contour>
    <contour>
      <point x="383" y="457" type="curve" smooth="yes"/>
      <point x="327" y="457"/>
      <point x="276" y="571"/>
      <point x="276" y="702" type="curve" smooth="yes"/>
      <point x="276" y="804"/>
      <point x="301" y="857"/>
      <point x="345" y="857" type="curve" smooth="yes"/>
      <point x="407" y="857"/>
      <point x="451" y="747"/>
      <point x="451" y="597" type="curve" smooth="yes"/>
      <point x="451" y="497"/>
      <point x="430" y="457"/>
    </contour>
  </outline>
</glyph>
<glyph name="onequarter" format="2">
  <advance width="1188.0"/>
  <unicode hex="00BC"/>
  <outline>
    <contour>
      <point x="1040.0" y="160.0" type="line"/>
      <point x="1040.0" y="223.0" type="line"/>
      <point x="958.0" y="223.0" type="line"/>
      <point x="958.0" y="627.0" type="line"/>
      <point x="909.0" y="627.0" type="line"/>
      <point x="621.0" y="215.0" type="line"/>
      <point x="621.0" y="160.0" type="line"/>
      <point x="883.0" y="160.0" type="line"/>
      <point x="883.0" y="-6.0" type="line"/>
      <point x="958.0" y="-6.0" type="line"/>
      <point x="958.0" y="160.0" type="line"/>
    </contour>
    <contour>
      <point x="985.0" y="1040.0" type="line"/>
      <point x="915.0" y="1040.0" type="line"/>
      <point x="213.0" y="-12.0" type="line"/>
      <point x="287.0" y="-12.0" type="line"/>
    </contour>
    <contour>
      <point x="391.0" y="395.0" type="line"/>
      <point x="391.0" y="414.0" type="line"/>
      <point x="311.0" y="414.0"/>
      <point x="313.0" y="430.0"/>
      <point x="313.0" y="506.0" type="curve" smooth="yes"/>
      <point x="313.0" y="1028.0" type="line"/>
      <point x="297.0" y="1028.0" type="line"/>
      <point x="147.0" y="954.0" type="line"/>
      <point x="154.0" y="938.0" type="line"/>
      <point x="168.0" y="946.0"/>
      <point x="184.0" y="952.0"/>
      <point x="203.0" y="952.0" type="curve" smooth="yes"/>
      <point x="244.0" y="952.0"/>
      <point x="238.0" y="879.0"/>
      <point x="238.0" y="852.0" type="curve" smooth="yes"/>
      <point x="238.0" y="498.0" type="line" smooth="yes"/>
      <point x="238.0" y="426.0"/>
      <point x="231.0" y="414.0"/>
      <point x="158.0" y="414.0" type="curve"/>
      <point x="158.0" y="395.0" type="line"/>
    </contour>
    <contour>
      <point x="883.0" y="223.0" type="line"/>
      <point x="666.0" y="223.0" type="line"/>
      <point x="883.0" y="530.0" type="line"/>
    </contour>
  </outline>
</glyph>
<glyph name="AE" format="2">
  <advance width="1358"/>
  <unicode hex="00C6"/>
  <note>
AE
</note>
  <anchor x="711" y="0" name="bottom"/>
  <anchor x="711" y="942" name="top"/>
  <outline>
    <contour>
      <point x="1259" y="-11" type="curve"/>
      <point x="1336" y="258" type="line"/>
      <point x="1239" y="277" type="line"/>
      <point x="1149" y="113" type="line"/>
      <point x="1121" y="109"/>
      <point x="1120" y="107"/>
      <point x="1038" y="107" type="curve" smooth="yes"/>
      <point x="985" y="107" type="line" smooth="yes"/>
      <point x="932" y="107"/>
      <point x="884" y="110"/>
      <point x="832" y="113" type="curve"/>
      <point x="829" y="142"/>
      <point x="829" y="142"/>
      <point x="829" y="329" type="curve" smooth="yes"/>
      <point x="829" y="635" type="line" smooth="yes"/>
      <point x="829" y="781"/>
      <point x="831" y="816"/>
      <point x="832" y="836" type="curve"/>
      <point x="853" y="841"/>
      <point x="898" y="842"/>
      <point x="942" y="842" type="curve" smooth="yes"/>
      <point x="1025" y="842" type="line" smooth="yes"/>
      <point x="1051" y="842"/>
      <point x="1070" y="841"/>
      <point x="1104" y="834" type="curve"/>
      <point x="1166" y="690" type="line"/>
      <point x="1264" y="704" type="line"/>
      <point x="1219" y="951" type="line"/>
      <point x="1162" y="950"/>
      <point x="1017" y="942"/>
      <point x="946" y="942" type="curve" smooth="yes"/>
      <point x="444" y="942" type="line"/>
      <point x="439" y="855" type="line"/>
      <point x="593" y="828" type="line"/>
      <point x="579" y="892" type="line"/>
      <point x="48" y="113" type="line"/>
      <point x="-41" y="86" type="line"/>
      <point x="-36" y="0" type="line"/>
      <point x="282" y="0" type="line"/>
      <point x="287" y="86" type="line"/>
      <point x="184" y="113" type="line"/>
      <point x="646" y="810" type="line"/>
      <point x="589" y="797" type="line"/>
      <point x="589" y="319" type="line" smooth="yes"/>
      <point x="589" y="237"/>
      <point x="589" y="165"/>
      <point x="585" y="113" type="curve"/>
      <point x="483" y="86" type="line"/>
      <point x="487" y="0" type="line"/>
      <point x="1014" y="0" type="line" smooth="yes"/>
      <point x="1089" y="0"/>
      <point x="1210" y="-8"/>
    </contour>
    <contour>
      <point x="242" y="248" type="line"/>
      <point x="280" y="251"/>
      <point x="338" y="255"/>
      <point x="428" y="255" type="curve" smooth="yes"/>
      <point x="470" y="255"/>
      <point x="539" y="255"/>
      <point x="629" y="251" type="curve"/>
      <point x="629" y="367" type="line"/>
      <point x="564" y="361"/>
      <point x="505" y="359"/>
      <point x="428" y="359" type="curve" smooth="yes"/>
      <point x="332" y="359"/>
      <point x="327" y="364"/>
      <point x="280" y="367" type="curve"/>
    </contour>
    <contour>
      <point x="1048" y="317" type="line"/>
      <point x="1144" y="317" type="line"/>
      <point x="1144" y="646" type="line"/>
      <point x="1048" y="646" type="line"/>
      <point x="1033" y="542" type="line"/>
      <point x="1019" y="540"/>
      <point x="979" y="539"/>
      <point x="935" y="539" type="curve" smooth="yes"/>
      <point x="879" y="539" type="line" smooth="yes"/>
      <point x="839" y="539"/>
      <point x="804" y="544"/>
      <point x="791" y="545" type="curve"/>
      <point x="791" y="422" type="line"/>
      <point x="804" y="423"/>
      <point x="839" y="426"/>
      <point x="879" y="426" type="curve" smooth="yes"/>
      <point x="935" y="426" type="line" smooth="yes"/>
      <point x="979" y="426"/>
      <point x="1019" y="425"/>
      <point x="1033" y="425" type="curve"/>
    </contour>
  </outline>
</glyph>
<glyph name="Eth" format="2">
  <advance width="1116.0"/>
  <unicode hex="00D0"/>
  <outline>
    <contour>
      <point x="1055.0" y="519.0" type="curve"/>
      <point x="1055.0" y="733.0"/>
      <point x="947.0" y="897.0"/>
      <point x="795.0" y="968.0" type="curve" smooth="yes"/>
      <point x="719.0" y="1004.0"/>
      <point x="601.0" y="1022.0"/>
      <point x="442.0" y="1022.0" type="curve" smooth="yes"/>
      <point x="27.0" y="1022.0" type="line"/>
      <point x="27.0" y="995.0" type="line"/>
      <point x="65.0" y="995.0" type="line" smooth="yes"/>
      <point x="104.0" y="995.0"/>
      <point x="132.0" y="984.0"/>
      <point x="153.0" y="963.0" type="curve"/>
      <point x="166.0" y="945.0"/>
      <point x="173.0" y="905.0"/>
      <point x="173.0" y="842.0" type="curve" smooth="yes"/>
      <point x="173.0" y="597.0" type="line"/>
      <point x="27.0" y="597.0" type="line"/>
      <point x="27.0" y="511.0" type="line"/>
      <point x="173.0" y="511.0" type="line"/>
      <point x="173.0" y="181.0" type="line" smooth="yes"/>
      <point x="173.0" y="123.0"/>
      <point x="168.0" y="86.0"/>
      <point x="157.0" y="70.0" type="curve" smooth="yes"/>
      <point x="140.0" y="41.0"/>
      <point x="109.0" y="28.0"/>
      <point x="65.0" y="28.0" type="curve" smooth="yes"/>
      <point x="27.0" y="28.0" type="line"/>
      <point x="27.0" y="0.0" type="line"/>
      <point x="485.0" y="0.0" type="line" smooth="yes"/>
      <point x="889.0" y="0.0"/>
      <point x="1055.0" y="231.0"/>
    </contour>
    <contour>
      <point x="886.0" y="511.0" type="curve"/>
      <point x="886.0" y="227.0"/>
      <point x="712.0" y="52.0"/>
      <point x="478.0" y="54.0" type="curve" smooth="yes"/>
      <point x="435.0" y="54.0"/>
      <point x="382.0" y="62.0"/>
      <point x="318.0" y="75.0" type="curve"/>
      <point x="318.0" y="511.0" type="line"/>
      <point x="617.0" y="511.0" type="line"/>
      <point x="617.0" y="597.0" type="line"/>
      <point x="318.0" y="597.0" type="line"/>
      <point x="318.0" y="945.0" type="line"/>
      <point x="377.0" y="961.0"/>
      <point x="428.0" y="967.0"/>
      <point x="472.0" y="967.0" type="curve" smooth="yes"/>
      <point x="716.0" y="967.0"/>
      <point x="886.0" y="794.0"/>
    </contour>
  </outline>
</glyph>
<glyph name="multiply" format="2">
  <advance width="983.0"/>
  <unicode hex="00D7"/>
  <outline>
    <contour>
      <point x="438.0" y="471.0" type="line"/>
      <point x="96.0" y="129.0" type="line"/>
      <point x="152.0" y="74.0" type="line"/>
      <point x="494.0" y="416.0" type="line"/>
      <point x="838.0" y="74.0" type="line"/>
      <point x="893.0" y="129.0" type="line"/>
      <point x="551.0" y="471.0" type="line"/>
      <point x="893.0" y="815.0" type="line"/>
      <point x="838.0" y="870.0" type="line"/>
      <point x="494.0" y="528.0" type="line"/>
      <point x="152.0" y="870.0" type="line"/>
      <point x="96.0" y="815.0" type="line"/>
    </contour>
  </outline>
</glyph>
<glyph name="Oslash" format="2">
  <advance width="1116.0"/>
  <unicode hex="00D8"/>
  <outline>
    <contour>
      <point x="1056.0" y="519.0" type="curve"/>
      <point x="1056.0" y="673.0"/>
      <point x="1015.0" y="783.0"/>
      <point x="906.0" y="897.0" type="curve"/>
      <point x="1009.0" y="1022.0" type="line"/>
      <point x="964.0" y="1055.0" type="line"/>
      <point x="865.0" y="933.0" type="line"/>
      <point x="774.0" y="1009.0"/>
      <point x="673.0" y="1046.0"/>
      <point x="559.0" y="1046.0" type="curve" smooth="yes"/>
      <point x="276.0" y="1046.0"/>
      <point x="55.0" y="817.0"/>
      <point x="55.0" y="523.0" type="curve" smooth="yes"/>
      <point x="55.0" y="360.0"/>
      <point x="105.0" y="227.0"/>
      <point x="207.0" y="123.0" type="curve"/>
      <point x="107.0" y="0.0" type="line"/>
      <point x="152.0" y="-36.0" type="line"/>
      <point x="248.0" y="85.0" type="line"/>
      <point x="340.0" y="10.0"/>
      <point x="461.0" y="-24.0"/>
      <point x="561.0" y="-24.0" type="curve" smooth="yes"/>
      <point x="822.0" y="-24.0"/>
      <point x="1056.0" y="205.0"/>
    </contour>
    <contour>
      <point x="282.0" y="218.0" type="line"/>
      <point x="245.0" y="308.0"/>
      <point x="227.0" y="410.0"/>
      <point x="227.0" y="526.0" type="curve" smooth="yes"/>
      <point x="227.0" y="741.0"/>
      <point x="302.0" y="992.0"/>
      <point x="554.0" y="992.0" type="curve" smooth="yes"/>
      <point x="661.0" y="992.0"/>
      <point x="743.0" y="948.0"/>
      <point x="802.0" y="856.0" type="curve"/>
    </contour>
    <contour>
      <point x="883.0" y="495.0" type="curve"/>
      <point x="883.0" y="159.0"/>
      <point x="736.0" y="31.0"/>
      <point x="550.0" y="31.0" type="curve" smooth="yes"/>
      <point x="459.0" y="31.0"/>
      <point x="382.0" y="65.0"/>
      <point x="313.0" y="163.0" type="curve"/>
      <point x="829.0" y="802.0" type="line"/>
      <point x="879.0" y="673.0"/>
      <point x="883.0" y="598.0"/>
    </contour>
  </outline>
</glyph>
<glyph name="germandbls" format="2">
  <advance width="773.0"/>
  <unicode hex="00DF"/>
  <outline>
    <contour>
      <point x="723.0" y="318.0" type="curve"/>
      <point x="723.0" y="485.0"/>
      <point x="648.0" y="582.0"/>
      <point x="517.0" y="619.0" type="curve"/>
      <point x="639.0" y="670.0"/>
      <point x="661.0" y="750.0"/>
      <point x="661.0" y="828.0" type="curve" smooth="yes"/>
      <point x="661.0" y="973.0"/>
      <point x="556.0" y="1073.0"/>
      <point x="395.0" y="1073.0" type="curve" smooth="yes"/>
      <point x="220.0" y="1073.0"/>
      <point x="126.0" y="974.0"/>
      <point x="126.0" y="730.0" type="curve" smooth="yes"/>
      <point x="126.0" y="169.0" type="line" smooth="yes"/>
      <point x="126.0" y="54.0"/>
      <point x="105.0" y="30.0"/>
      <point x="27.0" y="28.0" type="curve"/>
      <point x="27.0" y="0.0" type="line"/>
      <point x="252.0" y="0.0" type="line"/>
      <point x="252.0" y="781.0" type="line" smooth="yes"/>
      <point x="252.0" y="982.0"/>
      <point x="310.0" y="1022.0"/>
      <point x="390.0" y="1022.0" type="curve" smooth="yes"/>
      <point x="475.0" y="1022.0"/>
      <point x="535.0" y="968.0"/>
      <point x="535.0" y="832.0" type="curve" smooth="yes"/>
      <point x="535.0" y="678.0"/>
      <point x="474.0" y="627.0"/>
      <point x="373.0" y="627.0" type="curve"/>
      <point x="373.0" y="584.0" type="line"/>
      <point x="526.0" y="572.0"/>
      <point x="594.0" y="442.0"/>
      <point x="594.0" y="236.0" type="curve" smooth="yes"/>
      <point x="594.0" y="101.0"/>
      <point x="548.0" y="33.0"/>
      <point x="482.0" y="33.0" type="curve"/>
      <point x="455.0" y="36.0"/>
      <point x="438.0" y="44.0"/>
      <point x="438.0" y="68.0" type="curve" smooth="yes"/>
      <point x="438.0" y="77.0"/>
      <point x="448.0" y="105.0"/>
      <point x="447.0" y="119.0" type="curve" smooth="yes"/>
      <point x="445.0" y="155.0"/>
      <point x="424.0" y="178.0"/>
      <point x="384.0" y="178.0" type="curve" smooth="yes"/>
      <point x="346.0" y="178.0"/>
      <point x="322.0" y="152.0"/>
      <point x="324.0" y="113.0" type="curve" smooth="yes"/>
      <point x="326.0" y="41.0"/>
      <point x="386.0" y="-9.0"/>
      <point x="469.0" y="-9.0" type="curve" smooth="yes"/>
      <point x="627.0" y="-9.0"/>
      <point x="723.0" y="146.0"/>
    </contour>
  </outline>
</glyph>
<glyph name="ae" format="2">
  <advance width="1186"/>
  <unicode hex="00E6"/>
  <note>
ae
</note>
  <anchor x="592" y="0" name="bottom"/>
  <anchor x="592" y="711" name="top"/>
  <outline>
    <contour>
      <point x="341" y="-12" type="curve" smooth="yes"/>
      <point x="394" y="-12"/>
      <point x="484" y="27"/>
      <point x="587" y="142" type="curve"/>
      <point x="536" y="218" type="line"/>
      <point x="494" y="170"/>
      <point x="465" y="147"/>
      <point x="414" y="147" type="curve" smooth="yes"/>
      <point x="361" y="147"/>
      <point x="303" y="182"/>
      <point x="303" y="231" type="curve" smooth="yes"/>
      <point x="303" y="266"/>
      <point x="327" y="290"/>
      <point x="390" y="298" type="curve" smooth="yes"/>
      <point x="1134" y="401" type="line"/>
      <point x="1134" y="590"/>
      <point x="1030" y="723"/>
      <point x="853" y="723" type="curve" smooth="yes"/>
      <point x="744" y="723"/>
      <point x="654" y="669"/>
      <point x="597" y="582" type="curve"/>
      <point x="683" y="582" type="line"/>
      <point x="630" y="677"/>
      <point x="526" y="723"/>
      <point x="380" y="723" type="curve"/>
      <point x="293" y="712"/>
      <point x="73" y="609"/>
      <point x="73" y="520" type="curve" smooth="yes"/>
      <point x="73" y="452"/>
      <point x="150" y="414"/>
      <point x="271" y="438" type="curve"/>
      <point x="279" y="547" type="line" smooth="yes"/>
      <point x="282" y="589"/>
      <point x="296" y="598"/>
      <point x="322" y="598" type="curve" smooth="yes"/>
      <point x="402" y="598"/>
      <point x="471" y="534"/>
      <point x="471" y="426" type="curve" smooth="yes"/>
      <point x="471" y="346" type="line" smooth="yes"/>
      <point x="471" y="147"/>
      <point x="630" y="-12"/>
      <point x="832" y="-12" type="curve" smooth="yes"/>
      <point x="972" y="-12"/>
      <point x="1091" y="59"/>
      <point x="1145" y="192" type="curve"/>
      <point x="1093" y="242" type="line"/>
      <point x="1041" y="181"/>
      <point x="985" y="157"/>
      <point x="918" y="157" type="curve" smooth="yes"/>
      <point x="789" y="157"/>
      <point x="711" y="258"/>
      <point x="711" y="396" type="curve" smooth="yes"/>
      <point x="711" y="433" type="line" smooth="yes"/>
      <point x="711" y="574"/>
      <point x="759" y="625"/>
      <point x="826" y="625" type="curve" smooth="yes"/>
      <point x="889" y="625"/>
      <point x="926" y="572"/>
      <point x="926" y="470" type="curve" smooth="yes"/>
      <point x="926" y="409" type="line"/>
      <point x="963" y="465" type="line"/>
      <point x="301" y="375" type="line" smooth="yes"/>
      <point x="126" y="353"/>
      <point x="59" y="288"/>
      <point x="59" y="187" type="curve" smooth="yes"/>
      <point x="59" y="110"/>
      <point x="155" y="-12"/>
    </contour>
  </outline>
</glyph>
<glyph name="eth" format="2">
  <advance width="856"/>
  <unicode hex="00F0"/>
  <note>
eth
</note>
  <outline>
    <contour>
      <point x="629" y="589" type="curve"/>
      <point x="667" y="693" type="line"/>
      <point x="614" y="707"/>
      <point x="545" y="720"/>
      <point x="491" y="720" type="curve" smooth="yes"/>
      <point x="224" y="720"/>
      <point x="51" y="585"/>
      <point x="51" y="353" type="curve" smooth="yes"/>
      <point x="51" y="144"/>
      <point x="216" y="-12"/>
      <point x="436" y="-12" type="curve" smooth="yes"/>
      <point x="654" y="-12"/>
      <point x="802" y="147"/>
      <point x="802" y="441" type="curve" smooth="yes"/>
      <point x="802" y="743"/>
      <point x="603" y="1040"/>
      <point x="324" y="1104" type="curve"/>
      <point x="59" y="1104" type="line"/>
      <point x="56" y="1027" type="line"/>
      <point x="414" y="937"/>
      <point x="561" y="723"/>
      <point x="561" y="361" type="curve" smooth="yes"/>
      <point x="561" y="174"/>
      <point x="528" y="101"/>
      <point x="465" y="101" type="curve" smooth="yes"/>
      <point x="390" y="101"/>
      <point x="304" y="181"/>
      <point x="304" y="378" type="curve" smooth="yes"/>
      <point x="304" y="526"/>
      <point x="373" y="613"/>
      <point x="489" y="613" type="curve" smooth="yes"/>
      <point x="534" y="613"/>
      <point x="585" y="605"/>
    </contour>
    <contour>
      <point x="138" y="754" type="line"/>
      <point x="731" y="1023" type="line"/>
      <point x="688" y="1120" type="line"/>
      <point x="93" y="852" type="line"/>
    </contour>
  </outline>
</glyph>
<glyph name="oslash" format="2">
  <advance width="773.0"/>
  <unicode hex="00F8"/>
  <outline>
    <contour>
      <point x="743.0" y="706.0" type="line"/>
      <point x="709.0" y="738.0" type="line"/>
      <point x="609.0" y="627.0" type="line"/>
      <point x="533.0" y="691.0"/>
      <point x="474.0" y="710.0"/>
      <point x="392.0" y="710.0" type="curve" smooth="yes"/>
      <point x="177.0" y="710.0"/>
      <point x="54.0" y="511.0"/>
      <point x="55.0" y="343.0" type="curve" smooth="yes"/>
      <point x="57.0" y="263.0"/>
      <point x="88.0" y="160.0"/>
      <point x="136.0" y="102.0" type="curve"/>
      <point x="30.0" y="-18.0" type="line"/>
      <point x="65.0" y="-51.0" type="line"/>
      <point x="166.0" y="65.0" type="line"/>
      <point x="244.0" y="0.0"/>
      <point x="302.0" y="-22.0"/>
      <point x="382.0" y="-22.0" type="curve" smooth="yes"/>
      <point x="611.0" y="-22.0"/>
      <point x="723.0" y="187.0"/>
      <point x="722.0" y="357.0" type="curve" smooth="yes"/>
      <point x="722.0" y="445.0"/>
      <point x="693.0" y="524.0"/>
      <point x="642.0" y="591.0" type="curve"/>
    </contour>
    <contour>
      <point x="226.0" y="204.0" type="line"/>
      <point x="205.0" y="273.0"/>
      <point x="196.0" y="340.0"/>
      <point x="196.0" y="401.0" type="curve" smooth="yes"/>
      <point x="196.0" y="590.0"/>
      <point x="269.0" y="661.0"/>
      <point x="369.0" y="661.0" type="curve" smooth="yes"/>
      <point x="432.0" y="661.0"/>
      <point x="477.0" y="634.0"/>
      <point x="532.0" y="543.0" type="curve"/>
    </contour>
    <contour>
      <point x="582.0" y="303.0" type="curve"/>
      <point x="582.0" y="99.0"/>
      <point x="509.0" y="33.0"/>
      <point x="413.0" y="33.0" type="curve" smooth="yes"/>
      <point x="340.0" y="33.0"/>
      <point x="300.0" y="62.0"/>
      <point x="247.0" y="155.0" type="curve"/>
      <point x="553.0" y="493.0" type="line"/>
      <point x="572.0" y="427.0"/>
      <point x="582.0" y="363.0"/>
    </contour>
  </outline>
</glyph>
<glyph name="thorn" format="2">
  <advance width="773.0"/>
  <unicode hex="00FE"/>
  <outline>
    <contour>
      <point x="720.0" y="371.0" type="curve"/>
      <point x="720.0" y="563.0"/>
      <point x="615.0" y="710.0"/>
      <point x="462.0" y="710.0" type="curve" smooth="yes"/>
      <point x="379.0" y="710.0"/>
      <point x="310.0" y="669.0"/>
      <point x="239.0" y="547.0" type="curve"/>
      <point x="239.0" y="1073.0" type="line"/>
      <point x="211.0" y="1073.0" type="line"/>
      <point x="-1.0" y="988.0" type="line"/>
      <point x="7.0" y="963.0" type="line"/>
      <point x="54.0" y="981.0"/>
      <point x="74.0" y="974.0"/>
      <point x="89.0" y="964.0" type="curve" smooth="yes"/>
      <point x="110.0" y="952.0"/>
      <point x="115.0" y="943.0"/>
      <point x="115.0" y="852.0" type="curve" smooth="yes"/>
      <point x="115.0" y="-166.0" type="line" smooth="yes"/>
      <point x="115.0" y="-289.0"/>
      <point x="101.0" y="-296.0"/>
      <point x="-6.0" y="-302.0" type="curve"/>
      <point x="-6.0" y="-330.0" type="line"/>
      <point x="357.0" y="-330.0" type="line"/>
      <point x="357.0" y="-302.0" type="line"/>
      <point x="248.0" y="-296.0"/>
      <point x="239.0" y="-278.0"/>
      <point x="239.0" y="-169.0" type="curve" smooth="yes"/>
      <point x="239.0" y="40.0" type="line"/>
      <point x="305.0" y="-18.0"/>
      <point x="343.0" y="-22.0"/>
      <point x="404.0" y="-22.0" type="curve" smooth="yes"/>
      <point x="596.0" y="-20.0"/>
      <point x="720.0" y="155.0"/>
    </contour>
    <contour>
      <point x="585.0" y="300.0" type="curve"/>
      <point x="585.0" y="129.0"/>
      <point x="514.0" y="22.0"/>
      <point x="401.0" y="24.0" type="curve" smooth="yes"/>
      <point x="312.0" y="25.0"/>
      <point x="260.0" y="81.0"/>
      <point x="247.0" y="133.0" type="curve" smooth="yes"/>
      <point x="242.0" y="153.0"/>
      <point x="239.0" y="189.0"/>
      <point x="239.0" y="244.0" type="curve" smooth="yes"/>
      <point x="239.0" y="502.0" type="line"/>
      <point x="336.0" y="601.0"/>
      <point x="358.0" y="603.0"/>
      <point x="401.0" y="603.0" type="curve" smooth="yes"/>
      <point x="514.0" y="603.0"/>
      <point x="585.0" y="475.0"/>
    </contour>
  </outline>
</glyph>
<glyph name="idotless" format="2">
  <advance width="495"/>
  <unicode hex="0131"/>
  <note>
dotlessi
</note>
  <anchor x="248" y="0" name="bottom"/>
  <anchor x="341" y="0" name="ogonek"/>
  <anchor x="248" y="711" name="top"/>
  <outline>
    <contour>
      <point x="19" y="0" type="line"/>
      <point x="475" y="0" type="line"/>
      <point x="479" y="81" type="line"/>
      <point x="373" y="107" type="line"/>
      <point x="369" y="123"/>
      <point x="365" y="199"/>
      <point x="365" y="261" type="curve" smooth="yes"/>
      <point x="365" y="467" type="line" smooth="yes"/>
      <point x="365" y="555"/>
      <point x="369" y="621"/>
      <point x="375" y="691" type="curve"/>
      <point x="325" y="720" type="line"/>
      <point x="9" y="643" type="line"/>
      <point x="9" y="564" type="line"/>
      <point x="117" y="542" type="line"/>
      <point x="126" y="483"/>
      <point x="130" y="446"/>
      <point x="130" y="385" type="curve"/>
      <point x="128" y="264" type="line"/>
      <point x="126" y="200"/>
      <point x="121" y="121"/>
      <point x="120" y="107" type="curve"/>
      <point x="14" y="81" type="line"/>
    </contour>
  </outline>
</glyph>
<glyph name="OE" format="2">
  <advance width="1493"/>
  <unicode hex="0152"/>
  <note>
OE
</note>
  <anchor x="852" y="0" name="bottom"/>
  <anchor x="852" y="942" name="top"/>
  <outline>
    <contour>
      <point x="603" y="-14" type="curve" smooth="yes"/>
      <point x="677" y="-14"/>
      <point x="739" y="0"/>
      <point x="832" y="0" type="curve" smooth="yes"/>
      <point x="1149" y="0" type="line" smooth="yes"/>
      <point x="1223" y="0"/>
      <point x="1340" y="-4"/>
      <point x="1396" y="-11" type="curve"/>
      <point x="1471" y="258" type="line"/>
      <point x="1373" y="277" type="line"/>
      <point x="1284" y="113" type="line"/>
      <point x="1255" y="109"/>
      <point x="1253" y="107"/>
      <point x="1170" y="107" type="curve" smooth="yes"/>
      <point x="1129" y="107" type="line" smooth="yes"/>
      <point x="1062" y="107"/>
      <point x="1022" y="109"/>
      <point x="979" y="117" type="curve"/>
      <point x="975" y="147"/>
      <point x="974" y="210"/>
      <point x="974" y="329" type="curve" smooth="yes"/>
      <point x="974" y="635" type="line" smooth="yes"/>
      <point x="974" y="751"/>
      <point x="975" y="808"/>
      <point x="979" y="836" type="curve"/>
      <point x="996" y="841"/>
      <point x="1033" y="842"/>
      <point x="1084" y="842" type="curve" smooth="yes"/>
      <point x="1162" y="842" type="line" smooth="yes"/>
      <point x="1187" y="842"/>
      <point x="1206" y="841"/>
      <point x="1240" y="834" type="curve"/>
      <point x="1303" y="690" type="line"/>
      <point x="1401" y="704" type="line"/>
      <point x="1354" y="951" type="line"/>
      <point x="1295" y="946"/>
      <point x="1157" y="942"/>
      <point x="1083" y="942" type="curve" smooth="yes"/>
      <point x="844" y="942" type="line" smooth="yes"/>
      <point x="763" y="942"/>
      <point x="696" y="950"/>
      <point x="643" y="950" type="curve" smooth="yes"/>
      <point x="227" y="950"/>
      <point x="69" y="701"/>
      <point x="69" y="459" type="curve" smooth="yes"/>
      <point x="69" y="174"/>
      <point x="284" y="-14"/>
    </contour>
    <contour>
      <point x="630" y="112" type="curve" smooth="yes"/>
      <point x="460" y="112"/>
      <point x="354" y="258"/>
      <point x="354" y="494" type="curve" smooth="yes"/>
      <point x="354" y="702"/>
      <point x="463" y="837"/>
      <point x="630" y="837" type="curve" smooth="yes"/>
      <point x="664" y="837"/>
      <point x="701" y="832"/>
      <point x="722" y="826" type="curve"/>
      <point x="727" y="800"/>
      <point x="731" y="680"/>
      <point x="731" y="590" type="curve" smooth="yes"/>
      <point x="731" y="370" type="line" smooth="yes"/>
      <point x="731" y="298"/>
      <point x="728" y="165"/>
      <point x="725" y="126" type="curve"/>
      <point x="693" y="117"/>
      <point x="658" y="112"/>
    </contour>
    <contour>
      <point x="1182" y="317" type="line"/>
      <point x="1279" y="317" type="line"/>
      <point x="1279" y="646" type="line"/>
      <point x="1182" y="646" type="line"/>
      <point x="1170" y="540" type="line"/>
      <point x="1153" y="544"/>
      <point x="1115" y="539"/>
      <point x="1072" y="539" type="curve" smooth="yes"/>
      <point x="1022" y="539" type="line" smooth="yes"/>
      <point x="980" y="539"/>
      <point x="946" y="544"/>
      <point x="935" y="545" type="curve"/>
      <point x="935" y="422" type="line"/>
      <point x="946" y="423"/>
      <point x="980" y="426"/>
      <point x="1022" y="426" type="curve" smooth="yes"/>
      <point x="1072" y="426" type="line" smooth="yes"/>
      <point x="1115" y="426"/>
      <point x="1153" y="423"/>
      <point x="1170" y="425" type="curve"/>
    </contour>
  </outline>
</glyph>
<glyph name="oe" format="2">
  <advance width="1114.0"/>
  <unicode hex="0153"/>
  <outline>
    <contour>
      <point x="1040.0" y="268.0" type="line"/>
      <point x="1010.0" y="182.0"/>
      <point x="956.0" y="104.0"/>
      <point x="858.0" y="104.0" type="curve" smooth="yes"/>
      <point x="702.0" y="104.0"/>
      <point x="647.0" y="270.0"/>
      <point x="651.0" y="399.0" type="curve" smooth="yes"/>
      <point x="651.0" y="432.0" type="line"/>
      <point x="1065.0" y="432.0" type="line"/>
      <point x="1065.0" y="452.0" type="line" smooth="yes"/>
      <point x="1065.0" y="605.0"/>
      <point x="981.0" y="711.0"/>
      <point x="817.0" y="711.0" type="curve" smooth="yes"/>
      <point x="725.0" y="711.0"/>
      <point x="655.0" y="668.0"/>
      <point x="606.0" y="592.0" type="curve"/>
      <point x="549.0" y="672.0"/>
      <point x="467.0" y="711.0"/>
      <point x="371.0" y="711.0" type="curve" smooth="yes"/>
      <point x="158.0" y="711.0"/>
      <point x="51.0" y="528.0"/>
      <point x="51.0" y="334.0" type="curve" smooth="yes"/>
      <point x="51.0" y="145.0"/>
      <point x="160.0" y="-23.0"/>
      <point x="365.0" y="-23.0" type="curve" smooth="yes"/>
      <point x="463.0" y="-23.0"/>
      <point x="547.0" y="23.0"/>
      <point x="606.0" y="100.0" type="curve"/>
      <point x="643.0" y="23.0"/>
      <point x="721.0" y="-23.0"/>
      <point x="807.0" y="-23.0" type="curve" smooth="yes"/>
      <point x="969.0" y="-23.0"/>
      <point x="1038.0" y="117.0"/>
      <point x="1065.0" y="256.0" type="curve"/>
    </contour>
    <contour>
      <point x="651.0" y="481.0" type="line"/>
      <point x="653.0" y="557.0"/>
      <point x="690.0" y="662.0"/>
      <point x="782.0" y="662.0" type="curve" smooth="yes"/>
      <point x="883.0" y="662.0"/>
      <point x="915.0" y="567.0"/>
      <point x="915.0" y="481.0" type="curve"/>
    </contour>
    <contour>
      <point x="539.0" y="285.0" type="curve"/>
      <point x="539.0" y="180.0"/>
      <point x="520.0" y="33.0"/>
      <point x="385.0" y="33.0" type="curve" smooth="yes"/>
      <point x="225.0" y="33.0"/>
      <point x="193.0" y="291.0"/>
      <point x="193.0" y="408.0" type="curve" smooth="yes"/>
      <point x="193.0" y="508.0"/>
      <point x="207.0" y="668.0"/>
      <point x="342.0" y="668.0" type="curve" smooth="yes"/>
      <point x="518.0" y="668.0"/>
      <point x="539.0" y="414.0"/>
    </contour>
  </outline>
</glyph>
<glyph name="florin" format="2">
  <advance width="674"/>
  <unicode hex="0192"/>
  <outline>
    <contour>
      <point x="141" y="-370" type="curve" smooth="yes"/>
      <point x="308" y="-370"/>
      <point x="447" y="-216"/>
      <point x="447" y="118" type="curve" smooth="yes"/>
      <point x="447" y="598" type="line"/>
      <point x="444" y="707" type="line"/>
      <point x="444" y="823" type="line" smooth="yes"/>
      <point x="444" y="934"/>
      <point x="460" y="991"/>
      <point x="483" y="1020" type="curve"/>
      <point x="548" y="961" type="line" smooth="yes"/>
      <point x="581" y="930"/>
      <point x="609" y="916"/>
      <point x="648" y="916" type="curve" smooth="yes"/>
      <point x="698" y="916"/>
      <point x="730" y="943"/>
      <point x="730" y="995" type="curve" smooth="yes"/>
      <point x="730" y="1068"/>
      <point x="648" y="1120"/>
      <point x="534" y="1120" type="curve" smooth="yes"/>
      <point x="356" y="1120"/>
      <point x="208" y="967"/>
      <point x="208" y="743" type="curve" smooth="yes"/>
      <point x="208" y="-11" type="line"/>
      <point x="208" y="-184"/>
      <point x="203" y="-240"/>
      <point x="190" y="-271" type="curve"/>
      <point x="126" y="-211" type="line" smooth="yes"/>
      <point x="94" y="-181"/>
      <point x="65" y="-166"/>
      <point x="25" y="-166" type="curve" smooth="yes"/>
      <point x="-24" y="-166"/>
      <point x="-56" y="-192"/>
      <point x="-56" y="-243" type="curve" smooth="yes"/>
      <point x="-56" y="-317"/>
      <point x="27" y="-370"/>
    </contour>
    <contour>
      <point x="89" y="598" type="line"/>
      <point x="611" y="598" type="line"/>
      <point x="611" y="707" type="line"/>
      <point x="296" y="707" type="line"/>
      <point x="208" y="714" type="line"/>
      <point x="168" y="698"/>
      <point x="130" y="686"/>
      <point x="89" y="680" type="curve"/>
    </contour>
  </outline>
</glyph>
<glyph name="jdotless" format="2">
  <advance width="486"/>
  <unicode hex="0237"/>
  <note>
uni0237
</note>
  <anchor x="248" y="711" name="above"/>
  <outline>
    <contour>
      <point x="27" y="-367" type="line"/>
      <point x="207" y="-308"/>
      <point x="372" y="-130"/>
      <point x="372" y="54" type="curve"/>
      <point x="369" y="444" type="line"/>
      <point x="369" y="560"/>
      <point x="372" y="627"/>
      <point x="378" y="691" type="curve"/>
      <point x="329" y="720" type="line"/>
      <point x="11" y="643" type="line"/>
      <point x="11" y="564" type="line"/>
      <point x="117" y="540" type="line"/>
      <point x="126" y="484"/>
      <point x="130" y="447"/>
      <point x="130" y="378" type="curve"/>
      <point x="128" y="-16" type="line"/>
      <point x="128" y="-142"/>
      <point x="86" y="-226"/>
      <point x="-16" y="-290" type="curve"/>
    </contour>
  </outline>
</glyph>
<glyph name="firsttonechinese" format="2">
  <advance width="483.0"/>
  <unicode hex="02C9"/>
  <outline>
    <contour>
      <point x="483.0" y="848.0" type="line"/>
      <point x="483.0" y="932.0" type="line"/>
      <point x="0.0" y="932.0" type="line"/>
      <point x="0.0" y="848.0" type="line"/>
    </contour>
  </outline>
</glyph>
<glyph name="gravecomb" format="2">
  <unicode hex="0300"/>
  <note>
gravecomb
</note>
  <anchor x="481" y="711" name="_above"/>
  <anchor x="481" y="1102" name="above"/>
  <outline>
    <contour>
      <point x="425" y="776" type="line"/>
      <point x="537" y="812" type="line"/>
      <point x="378" y="1086" type="line"/>
      <point x="160" y="1049" type="line"/>
    </contour>
  </outline>
</glyph>
<glyph name="tildecomb" format="2">
  <unicode hex="0303"/>
  <note>
tildecomb
</note>
  <anchor x="481" y="711" name="_top"/>
  <anchor x="481" y="1102" name="top"/>
  <outline>
    <contour>
      <point x="714" y="1048" type="line"/>
      <point x="683" y="996"/>
      <point x="654" y="972"/>
      <point x="614" y="972" type="curve" smooth="yes"/>
      <point x="553" y="972"/>
      <point x="446" y="1048"/>
      <point x="367" y="1048" type="curve" smooth="yes"/>
      <point x="277" y="1048"/>
      <point x="207" y="975"/>
      <point x="173" y="853" type="curve"/>
      <point x="248" y="808" type="line"/>
      <point x="279" y="860"/>
      <point x="308" y="884"/>
      <point x="346" y="884" type="curve" smooth="yes"/>
      <point x="409" y="884"/>
      <point x="516" y="808"/>
      <point x="595" y="808" type="curve" smooth="yes"/>
      <point x="685" y="808"/>
      <point x="755" y="881"/>
      <point x="789" y="1003" type="curve"/>
    </contour>
  </outline>
</glyph>
<glyph name="macroncomb" format="2">
  <unicode hex="0304"/>
  <note>
uni0304
</note>
  <anchor x="481" y="711" name="_top"/>
  <anchor x="481" y="1102" name="top"/>
  <outline>
    <contour>
      <point x="226" y="990" type="line"/>
      <point x="226" y="866" type="line"/>
      <point x="736" y="866" type="line"/>
      <point x="736" y="990" type="line"/>
    </contour>
  </outline>
</glyph>
<glyph name="brevecomb" format="2">
  <unicode hex="0306"/>
  <note>
uni0306
</note>
  <anchor x="481" y="711" name="_top"/>
  <anchor x="481" y="1102" name="top"/>
  <outline>
    <contour>
      <point x="640" y="1086" type="line"/>
      <point x="621" y="985"/>
      <point x="563" y="930"/>
      <point x="487" y="930" type="curve" smooth="yes"/>
      <point x="412" y="930"/>
      <point x="354" y="985"/>
      <point x="335" y="1086" type="curve"/>
      <point x="218" y="1049" type="line"/>
      <point x="227" y="892"/>
      <point x="337" y="786"/>
      <point x="483" y="786" type="curve" smooth="yes"/>
      <point x="629" y="786"/>
      <point x="735" y="892"/>
      <point x="744" y="1049" type="curve"/>
    </contour>
  </outline>
</glyph>
<glyph name="ringcomb" format="2">
  <unicode hex="030A"/>
  <note>
uni030A
</note>
  <anchor x="481" y="711" name="_above"/>
  <anchor x="481" y="1051" name="above"/>
  <outline>
    <contour>
      <point x="483" y="773" type="curve" smooth="yes"/>
      <point x="590" y="773"/>
      <point x="667" y="847"/>
      <point x="667" y="948" type="curve" smooth="yes"/>
      <point x="667" y="1048"/>
      <point x="590" y="1121"/>
      <point x="483" y="1121" type="curve" smooth="yes"/>
      <point x="375" y="1121"/>
      <point x="295" y="1046"/>
      <point x="295" y="948" type="curve" smooth="yes"/>
      <point x="295" y="847"/>
      <point x="375" y="773"/>
    </contour>
    <contour>
      <point x="484" y="852" type="curve" smooth="yes"/>
      <point x="428" y="852"/>
      <point x="390" y="893"/>
      <point x="390" y="950" type="curve" smooth="yes"/>
      <point x="390" y="1003"/>
      <point x="428" y="1044"/>
      <point x="484" y="1044" type="curve" smooth="yes"/>
      <point x="537" y="1044"/>
      <point x="576" y="1004"/>
      <point x="576" y="950" type="curve" smooth="yes"/>
      <point x="576" y="892"/>
      <point x="537" y="852"/>
    </contour>
  </outline>
</glyph>
<glyph name="mu" format="2">
  <advance width="964"/>
  <unicode hex="03BC"/>
  <outline>
    <contour>
      <point x="844" y="155" type="line"/>
      <point x="839" y="215"/>
      <point x="837" y="263"/>
      <point x="837" y="314" type="curve" smooth="yes"/>
      <point x="837" y="447" type="line" smooth="yes"/>
      <point x="837" y="537"/>
      <point x="837" y="625"/>
      <point x="842" y="691" type="curve"/>
      <point x="792" y="720" type="line"/>
      <point x="486" y="643" type="line"/>
      <point x="486" y="564" type="line"/>
      <point x="595" y="542" type="line"/>
      <point x="600" y="486"/>
      <point x="603" y="451"/>
      <point x="603" y="359" type="curve" smooth="yes"/>
      <point x="603" y="221" type="line"/>
      <point x="574" y="174"/>
      <point x="529" y="154"/>
      <point x="491" y="154" type="curve" smooth="yes"/>
      <point x="409" y="154"/>
      <point x="361" y="208"/>
      <point x="361" y="312" type="curve"/>
      <point x="362" y="428" type="line"/>
      <point x="364" y="523"/>
      <point x="367" y="627"/>
      <point x="372" y="691" type="curve"/>
      <point x="321" y="720" type="line"/>
      <point x="9" y="643" type="line"/>
      <point x="9" y="564" type="line"/>
      <point x="118" y="542" type="line"/>
      <point x="123" y="486"/>
      <point x="125" y="451"/>
      <point x="125" y="426" type="curve" smooth="yes"/>
      <point x="121" y="125"/>
      <point x="97" y="-35"/>
      <point x="97" y="-200" type="curve" smooth="yes"/>
      <point x="97" y="-316"/>
      <point x="171" y="-370"/>
      <point x="251" y="-370" type="curve" smooth="yes"/>
      <point x="332" y="-370"/>
      <point x="393" y="-303"/>
      <point x="393" y="-194" type="curve" smooth="yes"/>
      <point x="393" y="-112"/>
      <point x="357" y="-41"/>
      <point x="304" y="69" type="curve"/>
      <point x="276" y="69" type="line"/>
      <point x="301" y="33"/>
      <point x="378" y="-17"/>
      <point x="431" y="-17" type="curve" smooth="yes"/>
      <point x="486" y="-17"/>
      <point x="550" y="17"/>
      <point x="605" y="121" type="curve"/>
      <point x="609" y="120" type="line"/>
      <point x="608" y="3" type="line"/>
      <point x="658" y="-22" type="line"/>
      <point x="951" y="59" type="line"/>
      <point x="951" y="133" type="line"/>
    </contour>
  </outline>
</glyph>
<glyph name="pi" format="2">
  <advance width="1141"/>
  <unicode hex="03C0"/>
  <outline>
    <contour>
      <point x="841" y="-17" type="curve" smooth="yes"/>
      <point x="945" y="-17"/>
      <point x="1049" y="36"/>
      <point x="1107" y="165" type="curve"/>
      <point x="1041" y="226" type="line"/>
      <point x="1011" y="182"/>
      <point x="964" y="150"/>
      <point x="934" y="150" type="curve" smooth="yes"/>
      <point x="876" y="150"/>
      <point x="853" y="192"/>
      <point x="855" y="293" type="curve" smooth="yes"/>
      <point x="857" y="659" type="line"/>
      <point x="617" y="658" type="line"/>
      <point x="606" y="229" type="line" smooth="yes"/>
      <point x="601" y="85"/>
      <point x="688" y="-17"/>
    </contour>
    <contour>
      <point x="178" y="-16" type="curve" smooth="yes"/>
      <point x="338" y="-16"/>
      <point x="415" y="97"/>
      <point x="430" y="349" type="curve" smooth="yes"/>
      <point x="447" y="674" type="line"/>
      <point x="303" y="674" type="line"/>
      <point x="285" y="309" type="line" smooth="yes"/>
      <point x="276" y="113"/>
      <point x="253" y="64"/>
      <point x="186" y="64" type="curve"/>
      <point x="285" y="52" type="line"/>
      <point x="184" y="142" type="line" smooth="yes"/>
      <point x="150" y="174"/>
      <point x="118" y="187"/>
      <point x="81" y="187" type="curve" smooth="yes"/>
      <point x="30" y="187"/>
      <point x="0" y="158"/>
      <point x="0" y="109" type="curve" smooth="yes"/>
      <point x="0" y="38"/>
      <point x="78" y="-16"/>
    </contour>
    <contour>
      <point x="101" y="552" type="line"/>
      <point x="176" y="585"/>
      <point x="243" y="600"/>
      <point x="304" y="600" type="curve" smooth="yes"/>
      <point x="855" y="600" type="line" smooth="yes"/>
      <point x="911" y="600"/>
      <point x="969" y="598"/>
      <point x="1028" y="597" type="curve"/>
      <point x="1060" y="831" type="line"/>
      <point x="951" y="831" type="line"/>
      <point x="908" y="719" type="line"/>
      <point x="857" y="712"/>
      <point x="823" y="711"/>
      <point x="792" y="711" type="curve" smooth="yes"/>
      <point x="340" y="711" type="line" smooth="yes"/>
      <point x="247" y="711"/>
      <point x="158" y="699"/>
      <point x="62" y="659" type="curve"/>
    </contour>
  </outline>
</glyph>
<glyph name="number-ar" format="2">
  <advance width="1123.0"/>
  <unicode hex="0600"/>
  <outline>
    <contour>
      <point x="1020.0" y="257.0" type="curve" smooth="yes"/>
      <point x="979.0" y="277.0"/>
      <point x="971.0" y="283.0"/>
      <point x="971.0" y="322.0" type="curve" smooth="yes"/>
      <point x="971.0" y="360.0"/>
      <point x="1002.0" y="481.0"/>
      <point x="1054.0" y="510.0" type="curve" smooth="yes"/>
      <point x="1076.0" y="521.0"/>
      <point x="1100.0" y="704.0"/>
      <point x="1067.0" y="704.0" type="curve" smooth="yes"/>
      <point x="1029.0" y="704.0"/>
      <point x="899.0" y="490.0"/>
      <point x="899.0" y="271.0" type="curve" smooth="yes"/>
      <point x="899.0" y="216.0"/>
      <point x="761.0" y="137.0"/>
      <point x="533.0" y="137.0" type="curve" smooth="yes"/>
      <point x="322.0" y="137.0"/>
      <point x="262.0" y="154.0"/>
      <point x="85.0" y="199.0" type="curve" smooth="yes"/>
      <point x="60.0" y="205.0"/>
      <point x="26.0" y="148.0"/>
      <point x="46.0" y="135.0" type="curve" smooth="yes"/>
      <point x="164.0" y="55.0"/>
      <point x="305.0" y="-10.0"/>
      <point x="521.0" y="-10.0" type="curve" smooth="yes"/>
      <point x="777.0" y="-10.0"/>
      <point x="894.0" y="102.0"/>
      <point x="944.0" y="102.0" type="curve" smooth="yes"/>
      <point x="963.0" y="102.0"/>
      <point x="957.0" y="98.0"/>
      <point x="969.0" y="98.0" type="curve" smooth="yes"/>
      <point x="1016.0" y="98.0"/>
      <point x="1051.0" y="242.0"/>
    </contour>
  </outline>
</glyph>
<glyph name="year-ar" format="2">
  <advance width="1711"/>
  <unicode hex="0601"/>
  <anchor x="745" y="0" name="digitR"/>
  <outline>
    <contour>
      <point x="1671" y="-48" type="curve"/>
      <point x="1646" y="-16" type="line"/>
      <point x="1480" y="-141"/>
      <point x="1318" y="-182"/>
      <point x="1048" y="-182" type="curve" smooth="yes"/>
      <point x="821" y="-182"/>
      <point x="631" y="-90"/>
      <point x="544" y="-90" type="curve" smooth="yes"/>
      <point x="477" y="-90"/>
      <point x="459" y="-283"/>
      <point x="376" y="-283" type="curve" smooth="yes"/>
      <point x="331" y="-283"/>
      <point x="271" y="-262"/>
      <point x="228" y="-262" type="curve" smooth="yes"/>
      <point x="155" y="-262"/>
      <point x="59" y="-451"/>
      <point x="40" y="-604" type="curve"/>
      <point x="72" y="-628" type="line"/>
      <point x="129" y="-572"/>
      <point x="182" y="-522"/>
      <point x="229" y="-522" type="curve" smooth="yes"/>
      <point x="279" y="-522"/>
      <point x="307" y="-541"/>
      <point x="364" y="-541" type="curve" smooth="yes"/>
      <point x="458" y="-541"/>
      <point x="508" y="-370"/>
      <point x="553" y="-370" type="curve" smooth="yes"/>
      <point x="619" y="-370"/>
      <point x="751" y="-434"/>
      <point x="1015" y="-434" type="curve" smooth="yes"/>
      <point x="1314" y="-434"/>
      <point x="1520" y="-281"/>
    </contour>
  </outline>
</glyph>
<glyph name="footnotemarker-ar" format="2">
  <advance width="1450"/>
  <unicode hex="0602"/>
  <anchor x="648" y="335" name="digitR"/>
  <outline>
    <contour>
      <point x="682" y="-10" type="curve" smooth="yes"/>
      <point x="1029" y="-10"/>
      <point x="1218" y="90"/>
      <point x="1386" y="257" type="curve"/>
      <point x="1410" y="380" type="line"/>
      <point x="1336" y="326"/>
      <point x="1023" y="275"/>
      <point x="727" y="275" type="curve" smooth="yes"/>
      <point x="425" y="275"/>
      <point x="139" y="310"/>
      <point x="139" y="394" type="curve" smooth="yes"/>
      <point x="139" y="430"/>
      <point x="180" y="502"/>
      <point x="236" y="502" type="curve" smooth="yes"/>
      <point x="300" y="502"/>
      <point x="342" y="429"/>
      <point x="342" y="361" type="curve" smooth="yes"/>
      <point x="342" y="295"/>
      <point x="318" y="216"/>
      <point x="280" y="160" type="curve"/>
      <point x="313" y="137" type="line"/>
      <point x="382" y="249"/>
      <point x="440" y="448"/>
      <point x="440" y="587" type="curve" smooth="yes"/>
      <point x="440" y="679"/>
      <point x="415" y="745"/>
      <point x="351" y="745" type="curve" smooth="yes"/>
      <point x="219" y="745"/>
      <point x="40" y="430"/>
      <point x="40" y="263" type="curve" smooth="yes"/>
      <point x="40" y="73"/>
      <point x="356" y="-10"/>
    </contour>
  </outline>
</glyph>
